<svg width="94" height="89" viewBox="0 0 94 89" fill="none" xmlns="http://www.w3.org/2000/svg">
<path d="M68.4126 -5.96318C62.9382 -2.65878 58.3499 2.07639 52.5503 4.7676C46.1651 7.72825 38.8845 7.95432 32.1089 9.85892C20.2432 13.1943 10.038 21.9926 4.9974 33.2344C-0.0432184 44.4762 0.173649 57.9477 5.57675 69.0192C7.15988 72.2647 9.20463 75.3523 11.996 77.6471C17.9816 82.5712 26.427 83.1473 34.1382 82.3606C41.8494 81.574 49.5451 79.6539 57.2563 80.4344C62.647 80.9825 67.8518 82.8376 73.258 83.2092C78.6363 83.5777 84.0208 82.4566 89.1389 80.7626C98.7337 77.5852 107.855 72.1563 113.809 63.9929C119.764 55.8294 122.106 44.6806 118.292 35.3248C114.794 26.7402 106.835 20.7353 102.495 12.5408C100.438 8.65732 99.2387 4.35881 97.0793 0.531033C91.4718 -9.41314 77.7812 -11.6181 68.4126 -5.96318Z" fill="#808AFF"/>
<path d="M41.0685 -7.13066C40.1329 -6.66922 39.2097 -6.14894 38.4754 -5.40878C37.7629 -4.6903 37.261 -3.79839 36.7746 -2.91267C35.9133 -1.33944 35.052 0.493928 35.6685 2.17555C36.0744 3.28114 37.072 4.09254 38.1749 4.51062C39.2778 4.9256 40.4768 4.99373 41.6541 4.97825C45.2231 4.9318 48.7797 4.15138 52.042 2.70512C53.0241 2.26846 53.9907 1.76676 54.8055 1.06686C55.6327 0.357664 56.2895 -0.540439 56.7883 -1.50977C57.6589 -3.20068 58.009 -5.40568 56.841 -6.91078C56.0076 -7.98541 54.6135 -8.43446 53.2813 -8.70389C48.9935 -9.57102 45 -9.07242 41.0685 -7.13066Z" fill="#808AFF"/>
<path d="M96.1096 82.2713C96.0538 82.2713 95.998 82.2465 95.9639 82.197C95.902 82.1164 95.9206 82.0018 96.0011 81.9399C102.405 77.1118 107.402 70.6393 110.448 63.2253C110.971 61.9525 111.259 60.0603 110.661 58.9082C110.404 58.4127 110.001 58.0999 109.469 57.9822C108.759 57.8212 108.022 58.1092 107.384 58.3941C106.048 58.9825 104.753 59.6948 103.536 60.5093C102.941 60.9057 102.352 61.3362 101.791 61.7821C101.723 61.8348 101.627 61.9308 101.513 62.0423C100.949 62.5904 100.49 63.0023 100.131 62.866C100.041 62.832 99.9915 62.7329 100.019 62.6431C100.109 62.3396 100.218 62.0547 100.32 61.779C100.555 61.1535 100.775 60.5589 100.788 59.8373C100.797 59.2643 100.67 58.8617 100.41 58.6419C100.174 58.4437 99.8118 58.3755 99.3347 58.4344C98.272 58.5675 97.2837 59.1714 96.6238 60.0881C96.5774 60.1532 96.4906 60.181 96.4163 60.1532C96.3388 60.1253 96.2892 60.0541 96.2923 59.9704C96.314 59.4904 96.4132 58.998 96.5092 58.5242C96.5588 58.2795 96.6084 58.0349 96.6455 57.7933C97.5409 52.1322 97.987 46.3564 97.9653 40.6272C97.9591 38.6235 97.5905 33.8852 94.3312 33.111C92.3175 32.634 90.3037 34.0803 89.0862 35.5916C86.1275 39.2738 85.4304 44.3589 84.8696 48.4468C84.8572 48.5398 84.7767 48.6048 84.6837 48.6048C84.5908 48.6017 84.5133 48.5305 84.5041 48.4376C84.4018 47.3227 83.776 46.2511 82.7877 45.5017C81.7994 44.7522 80.5973 44.4394 79.4944 44.6407C78.3915 44.8451 77.3846 45.5667 76.7278 46.6197C76.2848 47.3289 76.0493 48.1155 76.0369 48.8804C76.1732 49.2551 76.2259 49.6484 76.1794 50.0449C76.1701 50.1316 76.0989 50.1997 76.0121 50.2059C75.9161 50.2121 75.8448 50.1563 75.8201 50.0727C75.7178 49.7073 75.6682 49.3295 75.6682 48.9454C75.501 48.5305 75.2097 48.1433 74.807 47.8244C73.8837 47.0873 72.5732 46.8334 71.5478 47.1926C69.4844 47.9173 68.4094 50.1842 68.0903 52.064C68.0903 52.064 68.0903 52.064 68.0903 52.0671C68.0748 52.1662 67.9818 52.2313 67.8796 52.2189C67.7805 52.2034 67.7123 52.1074 67.7278 52.0083C67.8982 50.9491 67.4149 49.9303 66.3956 49.2056C65.0201 48.227 63.1178 48.0535 61.7701 48.7813C59.1058 50.2245 58.1887 53.5722 57.8882 56.1272C57.8789 56.2201 57.7984 56.2882 57.7054 56.2882C57.7054 56.2882 57.7023 56.2882 57.6992 56.2882C57.6032 56.2851 57.5288 56.2108 57.5226 56.1179L56.9371 46.8674C56.7884 44.4983 56.1006 40.4537 53.1822 39.9985C50.4094 39.5649 48.5381 42.8507 48.0331 43.8665C46.4624 47.0161 45.6538 50.528 45.6848 54.0461C45.6972 54.1978 45.7003 54.3496 45.6941 54.5013C45.6879 54.6004 45.6011 54.6716 45.5082 54.6747C45.409 54.6747 45.3285 54.5942 45.3254 54.4982C45.3223 54.3527 45.3192 54.2102 45.3161 54.0646C45.2324 53.1325 44.7306 52.2096 43.9188 51.5345C42.9863 50.7571 41.8059 50.4413 40.7619 50.689C39.7178 50.9368 38.8039 51.7451 38.3144 52.8568C37.828 53.9686 37.8497 55.1888 38.3763 56.1241C38.4197 56.1984 38.4042 56.2944 38.3392 56.3502C38.2741 56.4059 38.1781 56.4121 38.1099 56.3625C37.0101 55.5728 36.6197 54.1823 36.2417 52.8352C35.8235 51.3486 35.4269 49.9427 34.1381 49.4688C32.809 48.9795 31.325 49.9736 30.7116 51.1783C30.0424 52.4914 30.0641 54.0646 30.0827 55.4521C30.0827 55.545 30.0176 55.6224 29.9247 55.6348C29.8349 55.6503 29.7481 55.5914 29.7202 55.5047C28.1247 49.9643 24.7199 44.9814 20.1409 41.4788C18.1829 39.9799 15.4318 39.1004 14.019 40.7015C13.387 41.42 13.2259 42.4667 13.1453 43.4887C12.6744 49.5555 13.954 55.8763 16.7484 61.2835C16.7918 61.364 16.767 61.4631 16.6927 61.5158C16.6183 61.5684 16.5161 61.5592 16.4541 61.491C15.6517 60.6301 14.7409 59.6577 13.5822 59.1993C12.5474 58.7905 11.0665 58.8865 10.3632 59.8713C10.0039 60.3761 9.90163 61.0265 9.85826 61.5375C9.71574 63.1231 9.96979 64.7366 10.5956 66.2014C10.6328 66.2912 10.5956 66.3934 10.5089 66.4368C10.4221 66.4801 10.3168 66.4492 10.2672 66.3656C9.36256 64.7892 8.21006 63.0519 6.5185 62.0856C5.00352 61.2216 2.66755 61.0606 1.31987 62.4604C-1.11524 64.9936 1.73812 69.2302 3.0796 70.9335C6.10645 74.7799 9.53915 79.1434 14.3505 81.2617C14.4435 81.3019 14.4837 81.4103 14.4435 81.5032C14.4032 81.5961 14.2947 81.6395 14.2018 81.5962C9.30679 79.4407 5.84621 75.04 2.79147 71.1596C1.39113 69.3788 -1.58305 64.9472 1.05343 62.2033C2.53123 60.6672 5.06239 60.8314 6.69819 61.7636C7.97461 62.4913 8.95051 63.6279 9.74363 64.814C9.47719 63.7363 9.38734 62.6121 9.48958 61.5034C9.53915 60.9491 9.65068 60.2368 10.0627 59.6577C10.8837 58.5087 12.5226 58.3848 13.7154 58.8586C14.5612 59.1931 15.2706 59.7722 15.8965 60.3885C13.4056 55.1145 12.3274 49.2892 12.7798 43.4577C12.8634 42.3707 13.04 41.2558 13.7433 40.4568C15.3109 38.6761 18.2727 39.5866 20.3639 41.1846C24.6889 44.4921 27.976 49.0941 29.714 54.2474C29.7388 53.1541 29.8689 52.0207 30.3832 51.008C31.0679 49.667 32.744 48.5645 34.262 49.122C35.7306 49.6608 36.1674 51.2217 36.5949 52.733C36.8738 53.7209 37.1588 54.7336 37.7257 55.4737C37.4965 54.6035 37.5801 53.6187 37.9798 52.7051C38.5127 51.488 39.5226 50.5992 40.6782 50.3267C41.8338 50.0541 43.135 50.3979 44.1543 51.2465C44.6748 51.68 45.0775 52.2065 45.344 52.7763C45.4927 49.6299 46.2982 46.5237 47.7047 43.6993C48.2407 42.6278 50.2204 39.1654 53.238 39.633C56.4073 40.1255 57.1447 44.3589 57.3027 46.8395L57.786 54.4672C58.2755 52.1631 59.335 49.6763 61.5936 48.453C63.059 47.6602 65.1192 47.846 66.6063 48.899C67.3343 49.4162 67.8176 50.0727 68.019 50.7974C68.5519 49.1344 69.6424 47.4651 71.4238 46.8426C72.5794 46.437 73.9984 46.7095 75.0331 47.5333C75.3089 47.7531 75.5412 48.0009 75.7209 48.2672C75.8201 47.6324 76.0524 47.0006 76.4149 46.4184C77.1244 45.2756 78.2242 44.4952 79.4263 44.2722C80.6283 44.0492 81.9357 44.3868 83.0077 45.2013C83.776 45.7835 84.343 46.5484 84.6435 47.3846C85.198 43.4453 86.0159 38.8124 88.8011 35.3531C89.4238 34.5758 91.6731 32.0921 94.4149 32.7455C95.8679 33.0893 98.3123 34.5727 98.3309 40.6179C98.3495 46.3657 97.9034 52.16 97.0049 57.8398C96.9646 58.0844 96.9151 58.3353 96.8655 58.5861C96.8128 58.8494 96.7571 59.1188 96.7168 59.3851C97.4108 58.6543 98.3185 58.1773 99.2851 58.0566C99.8707 57.9822 100.326 58.0813 100.642 58.3477C100.995 58.645 101.163 59.1312 101.15 59.8311C101.138 60.6177 100.905 61.2371 100.658 61.8936C100.589 62.0732 100.521 62.256 100.456 62.4449C100.713 62.29 101.098 61.9153 101.249 61.7667C101.373 61.6459 101.482 61.5406 101.553 61.4817C102.123 61.0265 102.718 60.5929 103.322 60.1903C104.558 59.3634 105.872 58.6419 107.226 58.0442C107.969 57.7159 108.762 57.4372 109.54 57.6106C110.184 57.7562 110.668 58.1309 110.977 58.7255C111.634 59.9859 111.352 61.9587 110.779 63.3492C107.709 70.8282 102.671 77.3534 96.2118 82.2186C96.187 82.2589 96.1467 82.2713 96.1096 82.2713Z" fill="#8E97FD"/>
<path d="M81.2133 82.6947C81.1451 82.6978 81.0801 82.6514 81.0646 82.5801C80.2498 79.1395 79.6921 75.609 79.4071 72.0847C79.3296 71.1278 79.2553 69.9974 79.2956 68.8577C79.4133 65.4852 80.5038 62.1158 82.4525 59.1087C84.2556 56.3245 86.8147 53.8594 89.8477 51.9734C89.9159 51.93 90.0088 51.9517 90.0522 52.0198C90.0956 52.088 90.0739 52.1809 90.0057 52.2242C87.0067 54.0855 84.4818 56.5196 82.7035 59.2666C80.7857 62.2272 79.7107 65.5471 79.5961 68.8639C79.5558 69.9881 79.6301 71.1092 79.7076 72.0568C79.9926 75.5656 80.5472 79.0837 81.3558 82.5089C81.3744 82.5894 81.3248 82.6669 81.2474 82.6854C81.2319 82.6916 81.2226 82.6947 81.2133 82.6947Z" fill="#565D70"/>
<path d="M90.3534 51.0072C90.4959 50.8802 90.6663 50.7842 90.8398 50.7037C91.3789 50.4467 92.0047 50.2887 92.5716 50.4745C92.6243 50.49 92.6739 50.5117 92.7141 50.552C92.7513 50.5891 92.7699 50.6418 92.7792 50.6913C92.8133 50.8864 92.7079 51.0753 92.5933 51.2333C92.2432 51.7071 91.7289 52.0447 91.1682 52.2057C90.846 52.2986 89.6966 52.534 89.8329 51.927C89.9042 51.5894 90.0931 51.2364 90.3534 51.0072Z" fill="#565D70"/>
<path d="M87.8004 54.4358C88.4758 54.3708 89.1574 54.4141 89.8328 54.4668C90.2634 54.5008 90.6941 54.5411 91.1247 54.5845C91.2114 54.5938 91.3168 54.6216 91.3323 54.7052C91.3509 54.7982 91.2393 54.8601 91.1526 54.9003C90.5515 55.1698 90.1829 55.7861 89.6345 56.1515C89.2379 56.4147 88.7639 56.5355 88.2899 56.6006C87.8934 56.6532 87.4906 56.6687 87.091 56.647C86.7657 56.6284 86.428 56.5789 86.1615 56.3931C85.892 56.2041 85.7278 55.8759 85.7216 55.5476C85.7154 55.1388 86.0345 54.8942 86.3846 54.761C86.8369 54.5845 87.3233 54.4792 87.8004 54.4358Z" fill="#565D70"/>
<path d="M83.6147 60.0877C84.2901 60.0226 84.9716 60.066 85.647 60.1186C86.0777 60.1527 86.5083 60.193 86.9389 60.2363C87.0257 60.2456 87.131 60.2704 87.1465 60.3571C87.1651 60.45 87.0536 60.5119 86.9668 60.5522C86.3658 60.8216 85.9971 61.4379 85.4487 61.8034C85.0522 62.0666 84.5782 62.1874 84.1042 62.2524C83.7076 62.3051 83.3049 62.3205 82.9052 62.2989C82.5799 62.2803 82.2422 62.2307 81.9758 62.0449C81.7062 61.856 81.5421 61.5277 81.5359 61.1995C81.5297 60.7907 81.8488 60.546 82.1988 60.4128C82.6512 60.2394 83.1345 60.1341 83.6147 60.0877Z" fill="#565D70"/>
<path d="M81.381 65.3804C82.0007 65.1078 82.6637 64.9344 83.3205 64.7734C83.7418 64.6712 84.1631 64.5721 84.5845 64.4792C84.6681 64.4606 84.7766 64.4544 84.8199 64.5287C84.8664 64.6123 84.7828 64.7052 84.7115 64.7672C84.2251 65.2131 84.0702 65.913 83.6643 66.4302C83.37 66.8049 82.958 67.0682 82.5304 67.2757C82.1711 67.4491 81.7931 67.5915 81.4058 67.6937C81.0929 67.7774 80.7552 67.8362 80.4423 67.7433C80.1263 67.6473 79.8691 67.3902 79.7576 67.0775C79.6213 66.6934 79.8475 66.359 80.1387 66.1236C80.5136 65.8232 80.9411 65.5724 81.381 65.3804Z" fill="#565D70"/>
<path d="M81.1115 71.8774C81.7032 71.543 82.3414 71.3076 82.9827 71.0815C83.3917 70.9391 83.8006 70.7997 84.2127 70.6666C84.2932 70.6387 84.4017 70.6201 84.4512 70.6913C84.5039 70.7688 84.4295 70.871 84.3676 70.9422C83.9277 71.4315 83.8409 72.1469 83.4877 72.7012C83.2337 73.1038 82.8464 73.4073 82.4406 73.6551C82.0998 73.8656 81.7373 74.0422 81.3624 74.1815C81.0588 74.2961 80.7304 74.389 80.4113 74.324C80.0891 74.259 79.8041 74.0298 79.6647 73.7294C79.4912 73.3578 79.6832 73.0047 79.9497 72.7415C80.2936 72.4039 80.6932 72.1128 81.1115 71.8774Z" fill="#565D70"/>
<path d="M84.461 55.2127C84.461 54.8256 84.4486 54.4354 84.3804 54.0545C84.3278 53.751 84.241 53.4506 84.1512 53.1564C83.863 52.1963 83.5315 51.2022 82.8221 50.493C82.8004 50.4713 82.7756 50.4466 82.7446 50.4373C82.6672 50.4094 82.5835 50.4713 82.5526 50.5488C82.5216 50.6231 82.5278 50.7098 82.5247 50.7903C82.5185 50.9699 82.4627 51.1434 82.4069 51.3137C82.2613 51.7659 82.1157 52.2211 81.9701 52.6733C81.7501 53.3546 81.5302 54.0452 81.4806 54.7606C81.431 55.476 81.5674 56.2285 82.0042 56.7952C82.1498 56.9842 82.3264 57.1514 82.5154 57.2969C82.6951 57.4363 82.8933 57.5633 83.1133 57.6128C83.4107 57.681 83.736 57.5973 83.9653 57.396C84.2286 57.1669 84.3216 56.7921 84.3587 56.4577C84.4114 56.0427 84.4579 55.6308 84.461 55.2127Z" fill="#565D70"/>
<path d="M80.8233 59.5363C80.6622 59.1833 80.4887 58.8333 80.2688 58.5143C80.0922 58.2604 79.8908 58.025 79.6863 57.7928C79.0264 57.0371 78.3108 56.2722 77.3721 55.9222C77.3411 55.9098 77.3101 55.9005 77.2791 55.9036C77.1986 55.9098 77.1459 56.0027 77.149 56.0833C77.1521 56.1638 77.1924 56.2412 77.2234 56.3155C77.2915 56.4828 77.3132 56.6624 77.3349 56.8389C77.3906 57.3127 77.4464 57.7835 77.5022 58.2573C77.5858 58.9696 77.6726 59.6881 77.9235 60.357C78.1745 61.029 78.6144 61.6546 79.2464 61.9922C79.4571 62.1037 79.6863 62.1811 79.9218 62.2368C80.1417 62.2895 80.3741 62.3235 80.5972 62.2771C80.8946 62.2151 81.1579 62.0046 81.2849 61.7258C81.4306 61.4069 81.3562 61.029 81.254 60.71C81.1239 60.3105 80.9937 59.9141 80.8233 59.5363Z" fill="#565D70"/>
<path d="M77.7005 65.8166C77.3504 65.6493 76.991 65.4976 76.6162 65.3954C76.3188 65.3149 76.012 65.2653 75.7053 65.2189C74.7139 65.0671 73.673 64.9432 72.7281 65.2808C72.6971 65.2932 72.6661 65.3025 72.6444 65.3272C72.5855 65.3861 72.6072 65.4883 72.6599 65.5502C72.7157 65.6122 72.7931 65.64 72.8675 65.6803C73.0255 65.7639 73.1587 65.8878 73.2888 66.0086C73.6358 66.3337 73.9828 66.6589 74.3329 66.9841C74.8565 67.4734 75.3862 67.9689 76.012 68.3189C76.6379 68.6688 77.3752 68.867 78.0754 68.7153C78.3108 68.6657 78.5339 68.5759 78.7477 68.4675C78.9521 68.3653 79.1473 68.2414 79.2898 68.0618C79.4788 67.8234 79.5408 67.492 79.4602 67.1978C79.3642 66.8602 79.0668 66.6187 78.7818 66.439C78.4317 66.2192 78.0785 65.9962 77.7005 65.8166Z" fill="#565D70"/>
<path d="M77.9234 72.2893C77.5733 72.1221 77.2139 71.9703 76.839 71.8681C76.5416 71.7876 76.2349 71.7381 75.9282 71.6916C74.9368 71.5399 73.8958 71.416 72.9509 71.7535C72.9199 71.7659 72.8889 71.7752 72.8672 71.8C72.8084 71.8588 72.8301 71.961 72.8827 72.023C72.9385 72.0849 73.016 72.1128 73.0903 72.153C73.2483 72.2367 73.3815 72.3605 73.5117 72.4813C73.8586 72.8065 74.2056 73.1317 74.5557 73.4569C75.0793 73.9462 75.6091 74.4417 76.2349 74.7916C76.8607 75.1416 77.5981 75.3398 78.2982 75.188C78.5337 75.1385 78.7567 75.0487 78.9705 74.9403C79.175 74.8381 79.3702 74.7142 79.5127 74.5346C79.7017 74.2961 79.7636 73.9647 79.6831 73.6705C79.587 73.333 79.2896 73.0914 79.0046 72.9118C78.6514 72.6888 78.2982 72.4689 77.9234 72.2893Z" fill="#565D70"/>
<path d="M76.1922 68.0833C76.5051 66.6494 77.4965 64.9523 78.9403 65.2248C79.9564 65.4168 80.5079 66.5162 80.8084 67.5072C81.4683 69.6689 81.6759 71.9699 81.4156 74.2151C81.4652 71.2607 82.2769 68.3248 83.7547 65.7668C84.2256 64.9492 84.8886 64.0944 85.8273 64.0108C86.8156 63.921 87.6862 64.7881 87.9558 65.742C88.2253 66.6989 88.0425 67.7147 87.8566 68.6902C88.4174 63.0136 89.6628 56.7176 94.344 53.4566C95.289 52.7969 96.3888 52.2859 97.5413 52.2859C98.6938 52.2859 99.8958 52.8991 100.339 53.9645C100.581 54.5436 100.584 55.1908 100.54 55.8164C100.172 61.0564 96.8597 65.5964 93.3712 69.5295C94.2046 69.161 95.069 68.7863 95.9798 68.7739C96.8907 68.7615 97.8728 69.2074 98.2074 70.056C98.6194 71.1027 97.91 72.2734 97.027 72.9733C96.1471 73.6732 95.069 74.1284 94.3038 74.9553C95.9086 74.5806 98.0246 74.4195 98.7836 75.8844C99.1182 76.5347 99.047 77.3151 98.8952 78.0305C97.9812 82.2764 94.2604 85.7666 89.9633 86.4108C80.2074 87.8663 74.386 76.3458 76.1922 68.0833Z" fill="#F2EDE4"/>
<path d="M84.1108 84.5776C84.1015 84.5776 84.0922 84.5776 84.0829 84.5745C84.0272 84.559 83.9962 84.5002 84.0117 84.4475C84.0798 84.2121 90.8492 60.8707 98.6131 54.0792C98.6564 54.0421 98.7215 54.0452 98.7587 54.0885C98.7959 54.1319 98.7928 54.1969 98.7494 54.2341C91.032 60.9884 84.2781 84.2679 84.213 84.5032C84.1976 84.5497 84.1542 84.5776 84.1108 84.5776Z" fill="#D9C9AC"/>
<path d="M84.7769 82.3944C84.7521 82.3944 84.7305 82.3882 84.7119 82.3696C77.4716 76.47 78.274 67.9783 78.2802 67.8947C78.2864 67.839 78.3391 67.7956 78.3948 67.8018C78.4506 67.808 78.494 67.8575 78.4878 67.9164C78.4785 68 77.6916 76.3833 84.842 82.2086C84.8854 82.2458 84.8947 82.3108 84.8575 82.3541C84.8358 82.382 84.8048 82.3944 84.7769 82.3944Z" fill="#D9C9AC"/>
<path d="M86.6605 76.7768C86.6203 76.7768 86.58 76.752 86.5645 76.7148C84.6313 72.1345 85.8179 65.5412 85.8302 65.4761C85.8395 65.4204 85.8922 65.3801 85.9511 65.3925C86.0068 65.4018 86.044 65.4576 86.0347 65.5133C86.0223 65.5783 84.8481 72.1097 86.7566 76.6343C86.7783 76.6869 86.7535 76.7489 86.7008 76.7706C86.6884 76.7737 86.676 76.7768 86.6605 76.7768Z" fill="#D9C9AC"/>
<path d="M85.1823 83.5153C84.7145 83.5153 84.4418 83.4905 84.4264 83.4905C84.3706 83.4843 84.3272 83.4348 84.3334 83.3759C84.3396 83.3202 84.3892 83.2737 84.448 83.283C84.5317 83.2923 92.8594 84.017 97.0697 77.0335C97.1007 76.9839 97.1627 76.9684 97.2122 76.9994C97.2618 77.0304 97.2773 77.0923 97.2463 77.1419C93.7207 82.9888 87.3634 83.5153 85.1823 83.5153Z" fill="#D9C9AC"/>
<path d="M87.8008 73.686C87.745 73.686 87.6986 73.6426 87.6955 73.5869C87.6924 73.5311 87.7388 73.4816 87.7946 73.4785C87.8442 73.4754 92.7856 73.2834 96.206 70.3289C96.2493 70.2917 96.3144 70.2948 96.3516 70.3382C96.3887 70.3816 96.3857 70.4466 96.3423 70.4838C92.8662 73.4878 87.8535 73.6829 87.8039 73.686C87.8008 73.686 87.8008 73.686 87.8008 73.686Z" fill="#D9C9AC"/>
<path d="M92.3885 63.2277C92.3358 63.2277 92.2894 63.1874 92.2832 63.1317C92.2801 63.0945 92.0353 59.3658 93.8013 56.2906C93.8291 56.2411 93.8942 56.2256 93.9438 56.2534C93.9933 56.2813 94.0119 56.3463 93.9809 56.3959C92.246 59.4123 92.4876 63.0821 92.4907 63.1193C92.4938 63.175 92.4505 63.2277 92.3947 63.2308C92.3947 63.2277 92.3916 63.2277 92.3885 63.2277Z" fill="#D9C9AC"/>
<path d="M91.0099 66.962C90.7466 66.962 90.5948 66.9187 90.5731 66.9125C90.5173 66.8939 90.4894 66.8382 90.5049 66.7824C90.5235 66.7267 90.5793 66.6957 90.635 66.7143C90.6505 66.7174 92.1934 67.154 94.4178 64.8902C94.4581 64.8499 94.5232 64.8468 94.5634 64.8902C94.6037 64.9305 94.6037 64.9955 94.5634 65.0357C92.9245 66.705 91.645 66.962 91.0099 66.962Z" fill="#D9C9AC"/>
<path d="M85.4893 72.4594C85.071 72.4594 84.0673 72.2395 83.4228 70.2916C83.4043 70.2358 83.4352 70.177 83.4879 70.1615C83.5437 70.1429 83.6025 70.1739 83.618 70.2265C84.3709 72.4966 85.5822 72.2519 85.6318 72.2395C85.6876 72.224 85.7433 72.2612 85.7557 72.3169C85.7681 72.3727 85.734 72.4284 85.6783 72.4408C85.669 72.4439 85.6008 72.4594 85.4893 72.4594Z" fill="#D9C9AC"/>
<path d="M80.3217 76.9406C80.3186 76.9406 80.3186 76.9406 80.3155 76.9406C80.2443 76.9344 78.5279 76.8012 77.4529 74.5807C77.4281 74.5281 77.4498 74.4661 77.5024 74.4414C77.552 74.4166 77.6171 74.4383 77.6418 74.4909C78.6642 76.603 80.3124 76.73 80.3279 76.7331C80.3837 76.7362 80.4301 76.7857 80.424 76.8446C80.424 76.8972 80.3775 76.9406 80.3217 76.9406Z" fill="#D9C9AC"/>
<path d="M82.1186 79.709C82.0969 79.709 82.0752 79.7028 82.0566 79.6874C82.0102 79.6533 82.004 79.5883 82.038 79.5418C82.0473 79.5294 83.0202 78.2101 82.2115 74.7478C82.1991 74.692 82.2332 74.6363 82.289 74.6239C82.3448 74.6115 82.4005 74.6456 82.4129 74.7013C83.2463 78.2752 82.2425 79.6161 82.1991 79.6688C82.1775 79.6966 82.1496 79.709 82.1186 79.709Z" fill="#D9C9AC"/>
<path d="M88.8202 83.1002C88.8109 83.1002 88.8016 83.1002 88.7955 83.0971C88.7397 83.0816 88.7056 83.0258 88.7211 82.9701C88.7738 82.7657 90.044 77.9252 92.3955 76.8072C92.4481 76.7825 92.5101 76.8041 92.5349 76.8568C92.5597 76.9094 92.538 76.9714 92.4853 76.9961C90.2237 78.0739 88.938 82.9732 88.9256 83.0227C88.9101 83.0692 88.8667 83.1002 88.8202 83.1002Z" fill="#D9C9AC"/>
<path d="M93.9971 82.3575C93.8267 82.3575 93.6687 82.3296 93.5262 82.2707C92.9375 82.0354 92.8074 81.4129 92.8012 81.385C92.7888 81.3293 92.826 81.2735 92.8818 81.2642C92.9406 81.2518 92.9933 81.289 93.0057 81.3448C93.0057 81.351 93.1203 81.8867 93.6067 82.0787C94.1117 82.2769 94.8615 82.0447 95.7785 81.3974C95.825 81.3633 95.89 81.3757 95.9241 81.4222C95.9582 81.4686 95.9458 81.5337 95.8993 81.5677C95.1496 82.0911 94.5145 82.3575 93.9971 82.3575Z" fill="#D9C9AC"/>
<rect x="53.7255" y="14.5023" width="5.86056" height="14.6187" rx="2.93028" fill="#FDFFFC"/>
<rect width="5.85477" height="14.6332" rx="2.92739" transform="matrix(0.747154 -0.664651 0.666309 0.745676 43.9579 19.3682)" fill="#FDFFFC"/>
<rect width="5.85438" height="14.6342" rx="2.92719" transform="matrix(0.727039 0.686596 -0.688217 0.725505 64.7736 15.4765)" fill="#FDFFFC"/>
<path d="M23.9698 52.3986C21.4263 52.3986 18.9137 51.0825 16.491 48.478C16.2958 48.2674 16.3082 47.9391 16.5189 47.744C16.7295 47.5489 17.0579 47.5613 17.2531 47.7719C19.6201 50.3175 22.0397 51.5191 24.4376 51.3426C28.2049 51.0639 30.7175 47.4684 30.7423 47.4312C30.9065 47.1958 31.2287 47.1339 31.4641 47.298C31.6996 47.4591 31.7616 47.7843 31.5974 48.0196C31.4827 48.1838 28.7719 52.0642 24.512 52.3801C24.3323 52.3893 24.1495 52.3986 23.9698 52.3986Z" fill="#E9F2DE"/>
<path d="M15.1469 49.5279C15.0663 49.5279 14.9858 49.5248 14.9052 49.5155C14.614 49.4814 14.3631 49.3916 14.1617 49.2491C13.5266 48.7939 13.4925 47.9268 13.7868 47.3414C13.9138 47.0844 14.2267 46.9791 14.4839 47.1092C14.741 47.2361 14.8433 47.5489 14.7162 47.806C14.6078 48.0228 14.6326 48.3077 14.7689 48.4068C14.8247 48.447 14.9114 48.4718 15.023 48.4873C15.3607 48.5245 15.7107 48.413 15.9617 48.1838C16.2126 47.9546 16.3582 47.6171 16.3551 47.2795C16.352 47.1711 16.3366 47.0782 16.3056 47.007C16.2405 46.8552 16.0825 46.7313 15.8997 46.6911C15.7107 46.6508 15.4846 46.6973 15.3018 46.8181C15.0601 46.9729 14.7379 46.9048 14.583 46.6663C14.4281 46.4247 14.4963 46.1027 14.7348 45.9478C15.15 45.6784 15.6519 45.5762 16.1135 45.6753C16.6247 45.7837 17.0646 46.1398 17.2629 46.6044C17.3465 46.7995 17.3899 47.0225 17.393 47.264C17.4023 47.8958 17.1297 48.5275 16.6619 48.9549C16.2498 49.3204 15.6983 49.5279 15.1469 49.5279Z" fill="#E9F2DE"/>
<path d="M15.7602 51.8687C15.5402 51.8687 15.3358 51.7293 15.2645 51.5063C14.5891 49.388 16.0948 48.013 16.1599 47.9542C16.3736 47.7622 16.702 47.7838 16.8941 47.9975C17.0831 48.2112 17.0676 48.5364 16.8538 48.7284C16.8074 48.7717 15.7881 49.7256 16.2528 51.1904C16.3395 51.463 16.1877 51.7572 15.9151 51.8439C15.8655 51.8625 15.8129 51.8687 15.7602 51.8687Z" fill="#E9F2DE"/>
<path d="M14.412 52.1599C14.2106 52.1599 14.0185 52.0422 13.9348 51.8471C13.3338 50.4535 14.3221 48.8059 14.3655 48.7378C14.5142 48.4932 14.8333 48.4157 15.0811 48.5644C15.3259 48.713 15.4034 49.032 15.2546 49.2767C15.044 49.6235 14.57 50.6889 14.8922 51.4352C15.0068 51.6985 14.886 52.005 14.6195 52.1165C14.5514 52.1475 14.4801 52.1599 14.412 52.1599Z" fill="#E9F2DE"/>
<path d="M86.2302 33.1232C74.8633 16.2914 57.1142 29.029 57.1142 29.029C57.1142 29.029 40.5672 14.7647 27.7503 30.5248C14.9335 46.2819 36.0811 71.0138 55.1872 72.33C74.3366 72.714 97.5972 49.958 86.2302 33.1232Z" fill="#93BFA8"/>
<path d="M86.2297 33.1234C79.956 23.8326 71.7398 23.5508 65.6366 25.1643C70.3643 27.0689 83.8968 33.7768 81.8707 47.62C80.3588 57.9606 69.1096 66.6815 60.7385 71.8316C78.4534 68.4312 96.5123 48.354 86.2297 33.1234Z" fill="#80B996"/>
<path d="M57.1138 29.0324C57.1138 29.0324 48.0859 21.253 38.2029 23.5354C48.2005 25.759 53.8422 30.8441 53.8422 30.8441C55.2611 29.9553 57.1138 29.0324 57.1138 29.0324Z" fill="#80B996"/>
<path d="M33.385 27.7441C31.4456 28.9766 29.8872 30.9246 29.4938 33.1884C29.4411 33.4857 29.4101 33.7985 29.5093 34.0834C29.6704 34.548 30.1568 34.8422 30.6463 34.9041C31.1358 34.966 31.6253 34.8391 32.0931 34.6842C34.3981 33.9193 36.4738 32.4699 38.8625 32.0333C40.111 31.8041 41.4122 31.8598 42.6174 31.4634C43.8225 31.0701 44.9657 30.0203 44.8852 28.7567C44.7458 26.5765 41.7375 26.0036 40.0119 25.8054C37.837 25.5576 35.1881 26.5982 33.385 27.7441Z" fill="#66A986"/>
<path d="M59.853 29.6917C59.7879 29.9085 59.7445 30.1439 59.8096 30.3607C59.9428 30.7973 60.454 30.9893 60.9032 31.0668C62.0154 31.2588 63.1803 31.1349 64.2244 30.7168C64.8812 30.4536 65.5039 30.0634 65.9438 29.509C66.6843 28.5738 66.8609 26.4338 65.3273 26.1582C64.15 25.9445 62.316 26.9107 61.4175 27.5734C60.708 28.0999 60.1132 28.8277 59.853 29.6917Z" fill="#66A986"/>
<path d="M56.547 30.2434C56.3735 30.5407 56.358 30.9464 56.5749 31.2128C56.7607 31.4419 57.0736 31.5286 57.3649 31.5844C57.6623 31.6401 57.9845 31.6742 58.2509 31.5286C58.3934 31.4512 58.505 31.3304 58.601 31.2004C58.8613 30.8597 59.0471 30.389 58.8489 30.0081C58.7249 29.7727 58.4771 29.6209 58.2168 29.559C57.5786 29.4011 56.8909 29.6612 56.547 30.2434Z" fill="#66A986"/>
<path d="M45.9948 39.8498C46.0754 40.271 46.0939 40.6643 46.0816 41.0824C46.0599 41.4943 45.9979 41.9154 45.8399 42.3273C45.6881 42.7392 45.4186 43.1449 45.0282 43.4236C44.644 43.7085 44.1762 43.8386 43.7332 43.8665C43.507 43.882 43.2716 43.8603 43.0361 43.8045C42.8007 43.7426 42.5683 43.6311 42.3731 43.4763C41.9735 43.1635 41.7566 42.7237 41.642 42.3087C41.4158 41.4664 41.4499 40.6612 41.5862 39.8498C41.6172 39.6671 41.7907 39.5432 41.9735 39.5742C42.147 39.6051 42.2678 39.7631 42.2523 39.9365L42.2492 39.9582C42.2151 40.305 42.2027 40.686 42.2244 41.0421C42.2461 41.4013 42.2926 41.7575 42.3979 42.0765C42.5032 42.3924 42.655 42.6711 42.875 42.8321C42.9834 42.9126 43.1043 42.9715 43.2406 43.0055C43.38 43.0334 43.5287 43.0489 43.6898 43.0365C44.012 43.0179 44.3187 42.9312 44.5542 42.7609C44.7989 42.5937 44.9755 42.3335 45.1057 42.0331C45.2358 41.7296 45.3039 41.3828 45.338 41.0297C45.3752 40.6798 45.369 40.3019 45.338 39.9613L45.3349 39.9427C45.3163 39.7569 45.4526 39.5927 45.6385 39.5773C45.8089 39.5618 45.9638 39.6826 45.9948 39.8498Z" fill="#3F4553"/>
<path d="M61.2622 39.9614C61.2312 40.3021 61.225 40.6799 61.2622 41.0298C61.2932 41.3829 61.3644 41.7297 61.4945 42.0332C61.6247 42.3367 61.8012 42.5938 62.046 42.761C62.2846 42.9344 62.5882 43.0212 62.9104 43.0366C63.0684 43.049 63.2202 43.0335 63.3596 43.0057C63.4959 42.9716 63.6167 42.9128 63.7252 42.8322C63.942 42.6712 64.0969 42.3925 64.2023 42.0766C64.3076 41.7607 64.3541 41.4015 64.3758 41.0422C64.4006 40.6861 64.3851 40.3052 64.351 39.9583L64.3479 39.9366C64.3293 39.7508 64.4656 39.5867 64.6515 39.5712C64.8281 39.5557 64.9861 39.6796 65.014 39.8499C65.1503 40.6613 65.1844 41.4634 64.9582 42.3089C64.8436 42.7239 64.6236 43.1636 64.2271 43.4764C64.0319 43.6312 63.7995 43.7427 63.5641 43.8047C63.3286 43.8604 63.0901 43.8821 62.867 43.8666C62.4271 43.8418 61.9593 43.7087 61.572 43.4238C61.1847 43.145 60.9121 42.7393 60.7603 42.3274C60.6023 41.9156 60.5403 41.4944 60.5186 41.0825C60.5062 40.6644 60.5248 40.2711 60.6054 39.8499C60.6395 39.6672 60.8161 39.5464 60.9988 39.5805C61.1692 39.6115 61.287 39.7694 61.2715 39.9397L61.2622 39.9614Z" fill="#3F4553"/>
<path d="M53.1331 45.8486C52.563 45.8486 52.0549 45.7743 51.6305 45.6752C50.2952 45.3593 49.4742 44.7368 49.437 44.7089C49.2914 44.5943 49.2635 44.3837 49.3751 44.2382C49.4897 44.0926 49.7004 44.0648 49.846 44.1762C49.9668 44.2691 52.8574 46.4153 56.5751 44.1546C56.7331 44.0586 56.9407 44.1081 57.0367 44.2661C57.1327 44.424 57.0832 44.6315 56.9252 44.7275C55.5186 45.5822 54.2112 45.8486 53.1331 45.8486Z" fill="#3F4553"/>
<path d="M95.9829 55.7374C95.2424 55.7374 94.5113 55.6661 93.7832 55.5268C87.4569 54.3035 83.9715 48.2366 83.8259 47.9796C83.6834 47.7287 83.7732 47.4129 84.0242 47.2735C84.2751 47.1341 84.5911 47.2209 84.7305 47.4717C84.7646 47.5305 88.1354 53.3837 93.9877 54.511C97.6527 55.2171 101.532 53.9473 105.528 50.7451C105.751 50.5655 106.08 50.6027 106.259 50.8257C106.439 51.0486 106.402 51.3769 106.179 51.5565C102.706 54.3345 99.2854 55.7374 95.9829 55.7374Z" fill="#E9F2DE"/>
<path d="M49.2327 75.0302C48.8516 75.0302 48.4736 75.024 48.0957 75.0147C47.8075 75.0054 47.5814 74.767 47.5907 74.482C47.6 74.194 47.8354 73.9772 48.1235 73.9772C52.5848 74.098 57.328 73.491 61.842 72.2213C62.5173 72.0324 63.3012 71.7815 64.0044 71.3634C64.3142 71.1776 64.3979 71.0507 64.4134 70.9763C64.4444 70.8215 64.2182 70.5799 63.9146 70.4344C63.2082 70.0999 62.3562 70.0906 61.7769 70.1092C59.7445 70.1804 57.7556 70.7781 56.0206 71.8435C55.7759 71.9921 55.4568 71.9178 55.305 71.6731C55.1562 71.4285 55.2306 71.1095 55.4753 70.9578C57.3621 69.7995 59.5277 69.1492 61.7397 69.0717C62.4244 69.047 63.4437 69.0655 64.3545 69.496C64.9463 69.7747 65.5845 70.3817 65.4296 71.1714C65.3211 71.7289 64.8657 72.0572 64.5342 72.2554C63.7225 72.7385 62.8179 73.0265 62.1208 73.2216C57.8888 74.4108 53.4554 75.0302 49.2327 75.0302Z" fill="#E9F2DE"/>
<path d="M60.8255 75.0459C56.5997 75.0459 52.2778 74.4327 47.9622 73.2218C47.2651 73.0267 46.3604 72.7387 45.5487 72.2556C45.2172 72.0573 44.7618 71.7291 44.6534 71.1716C44.5016 70.3819 45.1367 69.7749 45.7284 69.4962C46.6393 69.0657 47.6586 69.0472 48.3432 69.0719C50.5553 69.1493 52.7209 69.7997 54.6076 70.9579C54.8524 71.1066 54.9298 71.4287 54.778 71.6733C54.6293 71.918 54.3071 71.9954 54.0623 71.8437C52.3274 70.7814 50.3384 70.1806 48.3061 70.1094C47.7298 70.0908 46.8778 70.1001 46.1715 70.4346C45.8648 70.5801 45.6417 70.8217 45.6727 70.9734C45.6882 71.0478 45.7687 71.1778 46.0785 71.3605C46.7818 71.7786 47.5656 72.0295 48.241 72.2184C52.8541 73.5129 57.4703 74.1137 61.9594 73.9898C62.2506 73.9929 62.4861 74.2097 62.4923 74.4946C62.4985 74.7826 62.2723 75.0211 61.9873 75.0273C61.6031 75.0397 61.2128 75.0459 60.8255 75.0459Z" fill="#E9F2DE"/>
<path d="M60.9434 75.7765C60.8442 76.0088 60.7575 76.2504 60.7544 76.5012C60.7482 76.7521 60.838 77.0184 61.0332 77.1733C61.3028 77.39 61.7179 77.3467 61.9998 77.1423C62.2818 76.9379 62.446 76.6127 62.5451 76.2813C62.7186 75.7115 62.7248 75.0921 62.5668 74.5192C62.5141 74.3303 62.4088 74.0794 62.1826 74.0485C61.972 74.0175 61.8666 74.2095 61.7644 74.3612C61.4546 74.8165 61.1602 75.2717 60.9434 75.7765Z" fill="#E9F2DE"/>
<path d="M49.1705 75.7765C49.2696 76.0088 49.3563 76.2504 49.3594 76.5012C49.3656 76.7521 49.2758 77.0184 49.0806 77.1733C48.8111 77.39 48.3959 77.3467 48.114 77.1423C47.8321 76.9379 47.6679 76.6127 47.5687 76.2813C47.3952 75.7115 47.389 75.0921 47.547 74.5192C47.5997 74.3303 47.705 74.0794 47.9312 74.0485C48.1419 74.0175 48.2472 74.2095 48.3495 74.3612C48.6593 74.8165 48.9536 75.2717 49.1705 75.7765Z" fill="#E9F2DE"/>
<path d="M55.6853 88.3283C64.6632 88.3283 71.9411 87.4395 71.9411 86.3432C71.9411 85.2468 64.6632 84.3581 55.6853 84.3581C46.7075 84.3581 39.4296 85.2468 39.4296 86.3432C39.4296 87.4395 46.7075 88.3283 55.6853 88.3283Z" fill="#808AFF"/>
<path d="M34.5408 84.2521C34.6089 84.2552 34.674 84.2088 34.6895 84.1375C35.5043 80.6969 36.0619 77.1664 36.347 73.6421C36.4244 72.6852 36.4988 71.5548 36.4585 70.4151C36.3408 67.0426 35.2502 63.6732 33.3015 60.6661C31.4984 57.8819 28.9394 55.4168 25.9063 53.5308C25.8382 53.4874 25.7452 53.5091 25.7019 53.5772C25.6585 53.6454 25.6802 53.7383 25.7483 53.7816C28.7473 55.6429 31.2723 58.077 33.0506 60.824C34.9683 63.7847 36.0434 67.1045 36.158 70.4213C36.1983 71.5455 36.1239 72.6666 36.0465 73.6142C35.7614 77.123 35.2069 80.6411 34.3983 84.0663C34.3797 84.1468 34.4292 84.2243 34.5067 84.2428C34.5222 84.249 34.5315 84.2521 34.5408 84.2521Z" fill="#565D70"/>
<path d="M25.4016 52.5647C25.2591 52.4377 25.0887 52.3417 24.9152 52.2612C24.3761 52.0041 23.7503 51.8462 23.1833 52.032C23.1307 52.0475 23.0811 52.0691 23.0408 52.1094C23.0036 52.1466 22.985 52.1992 22.9757 52.2488C22.9417 52.4439 23.047 52.6328 23.1616 52.7907C23.5117 53.2646 24.026 53.6021 24.5868 53.7632C24.909 53.8561 26.0584 54.0914 25.922 53.4844C25.8539 53.1469 25.6618 52.7938 25.4016 52.5647Z" fill="#565D70"/>
<path d="M27.9541 55.9932C27.2787 55.9282 26.5971 55.9715 25.9217 56.0242C25.4911 56.0583 25.0604 56.0985 24.6298 56.1419C24.543 56.1512 24.4377 56.179 24.4222 56.2626C24.4036 56.3556 24.5152 56.4175 24.6019 56.4577C25.2029 56.7272 25.5716 57.3435 26.12 57.7089C26.5165 57.9721 26.9905 58.0929 27.4646 58.158C27.8611 58.2106 28.2639 58.2261 28.6635 58.2044C28.9888 58.1858 29.3265 58.1363 29.593 57.9505C29.8625 57.7615 30.0267 57.4333 30.0329 57.105C30.0391 56.6962 29.72 56.4516 29.3699 56.3184C28.9176 56.1419 28.4343 56.0397 27.9541 55.9932Z" fill="#565D70"/>
<path d="M32.1427 61.6451C31.4673 61.58 30.7857 61.6234 30.1103 61.676C29.6797 61.7101 29.249 61.7504 28.8184 61.7937C28.7316 61.803 28.6263 61.8309 28.6108 61.9145C28.5922 62.0074 28.7038 62.0693 28.7905 62.1096C29.3915 62.379 29.7602 62.9953 30.3086 63.3607C30.7051 63.624 31.1792 63.7448 31.6532 63.8098C32.0497 63.8624 32.4525 63.8779 32.8521 63.8562C33.1774 63.8377 33.5151 63.7881 33.7816 63.6023C34.0511 63.4134 34.2153 63.0851 34.2215 62.7568C34.2277 62.3481 33.9086 62.1034 33.5585 61.9702C33.1031 61.7968 32.6198 61.6915 32.1427 61.6451Z" fill="#565D70"/>
<path d="M34.3731 66.9378C33.7535 66.6652 33.0905 66.4918 32.4337 66.3308C32.0124 66.2286 31.591 66.1326 31.1697 66.0366C31.0861 66.018 30.9776 66.0118 30.9342 66.0861C30.8878 66.1697 30.9714 66.2626 31.0427 66.3246C31.5291 66.7705 31.684 67.4704 32.0898 67.9876C32.3842 68.3623 32.7962 68.6256 33.2238 68.8331C33.5831 69.0065 33.9611 69.1489 34.3484 69.2511C34.6613 69.3348 34.999 69.3936 35.3119 69.3007C35.6279 69.2047 35.885 68.9477 35.9966 68.6349C36.1329 68.2508 35.9067 67.9164 35.6155 67.681C35.2406 67.3806 34.8131 67.1298 34.3731 66.9378Z" fill="#565D70"/>
<path d="M34.6431 73.4349C34.0513 73.1004 33.4131 72.865 32.7718 72.639C32.3629 72.4965 31.9539 72.3571 31.5419 72.224C31.4613 72.1961 31.3529 72.1775 31.3033 72.2487C31.2506 72.3262 31.325 72.4284 31.3869 72.4996C31.8269 72.9889 31.9136 73.7043 32.2668 74.2586C32.5209 74.6612 32.9081 74.9647 33.314 75.2125C33.6548 75.4231 34.0172 75.5996 34.3921 75.7389C34.6957 75.8535 35.0241 75.9464 35.3432 75.8814C35.6654 75.8164 35.9505 75.5872 36.0899 75.2868C36.2634 74.9152 36.0713 74.5621 35.8049 74.2989C35.461 73.9613 35.0613 73.6702 34.6431 73.4349Z" fill="#565D70"/>
<path d="M31.294 56.773C31.294 56.3859 31.3064 55.9957 31.3746 55.6148C31.4272 55.3113 31.514 55.0109 31.6038 54.7167C31.8919 53.7566 32.2234 52.7625 32.9329 52.0533C32.9546 52.0316 32.9794 52.0069 33.0104 51.9976C33.0878 51.9697 33.1715 52.0316 33.2024 52.1091C33.2334 52.1834 33.2272 52.2701 33.2303 52.3506C33.2365 52.5302 33.2923 52.7037 33.348 52.874C33.4937 53.3261 33.6393 53.7814 33.7849 54.2335C34.0048 54.9149 34.2248 55.6055 34.2744 56.3209C34.324 57.0362 34.1876 57.7888 33.7508 58.3555C33.6052 58.5444 33.4286 58.7117 33.2396 58.8572C33.0599 58.9966 32.8616 59.1236 32.6417 59.1731C32.3443 59.2412 32.019 59.1576 31.7897 58.9563C31.5264 58.7271 31.4334 58.3524 31.3962 58.018C31.3436 57.603 31.2971 57.188 31.294 56.773Z" fill="#565D70"/>
<path d="M34.9311 61.0942C35.0922 60.7412 35.2657 60.3912 35.4856 60.0722C35.6622 59.8183 35.8636 59.5829 36.0681 59.3506C36.728 58.595 37.4436 57.8301 38.3824 57.4801C38.4133 57.4677 38.4443 57.4584 38.4753 57.4615C38.5558 57.4677 38.6085 57.5606 38.6054 57.6411C38.6023 57.7217 38.562 57.7991 38.5311 57.8734C38.4629 58.0406 38.4412 58.2203 38.4195 58.3968C38.3638 58.8706 38.308 59.3414 38.2522 59.8152C38.1686 60.5275 38.0818 61.246 37.8309 61.9149C37.5799 62.5869 37.14 63.2125 36.508 63.5501C36.2973 63.6616 36.0681 63.739 35.8326 63.7947C35.6126 63.8474 35.3803 63.8814 35.1572 63.835C34.8598 63.773 34.5965 63.5625 34.4694 63.2837C34.3238 62.9647 34.3982 62.5869 34.5004 62.2679C34.6336 61.8684 34.7607 61.472 34.9311 61.0942Z" fill="#565D70"/>
<path d="M38.0544 67.3768C38.4045 67.2096 38.7639 67.0579 39.1388 66.9557C39.4362 66.8751 39.7429 66.8256 40.0496 66.7791C41.041 66.6274 42.082 66.5035 43.0269 66.8411C43.0579 66.8504 43.0888 66.8627 43.1105 66.8875C43.1694 66.9464 43.1477 67.0486 43.095 67.1105C43.0393 67.1724 42.9618 67.2034 42.8875 67.2406C42.7295 67.3242 42.5962 67.4481 42.4661 67.5688C42.1191 67.894 41.7721 68.2192 41.4221 68.5444C40.8985 69.0337 40.3687 69.5292 39.7429 69.8791C39.1171 70.2291 38.3797 70.4273 37.6795 70.2755C37.4441 70.226 37.221 70.1362 37.0073 70.0278C36.8028 69.9256 36.6076 69.8017 36.4651 69.6221C36.2761 69.3836 36.2141 69.0523 36.2947 68.7581C36.3907 68.4205 36.6882 68.1789 36.9732 67.9993C37.3264 67.7763 37.6765 67.5534 38.0544 67.3768Z" fill="#565D70"/>
<path d="M37.8344 73.8467C38.1845 73.6795 38.5439 73.5277 38.9188 73.4255C39.2162 73.345 39.5229 73.2955 39.8296 73.249C40.821 73.0973 41.862 72.9734 42.8069 73.3109C42.8379 73.3233 42.8689 73.3326 42.8905 73.3574C42.9494 73.4162 42.9277 73.5184 42.8751 73.5804C42.8193 73.6423 42.7418 73.6733 42.6675 73.7105C42.5095 73.7941 42.3763 73.9179 42.2461 74.0387C41.8992 74.3639 41.5522 74.6891 41.2021 75.0142C40.6785 75.5036 40.1487 75.9991 39.5229 76.349C38.8971 76.699 38.1597 76.8972 37.4596 76.7454C37.2241 76.6959 37.0011 76.6061 36.7873 76.4977C36.5828 76.3955 36.3876 76.2716 36.2451 76.092C36.0561 75.8535 35.9942 75.5221 36.0747 75.2279C36.1708 74.8904 36.4682 74.6488 36.7532 74.4692C37.1033 74.2462 37.4565 74.0263 37.8344 73.8467Z" fill="#565D70"/>
<path d="M45.4184 74.3051C45.4339 74.1967 45.4463 74.0914 45.4525 73.983C45.784 69.158 39.817 71.8616 38.3082 74.0604C38.8411 73.026 38.3268 71.5953 37.2611 71.1307C36.1953 70.6693 34.7981 71.2763 34.4077 72.3695C34.7113 69.9106 35.018 67.4516 35.3217 64.9927C35.458 63.8933 35.5385 62.6235 34.7516 61.8431C33.8686 60.9729 32.2886 61.2578 31.4149 62.1373C30.5413 63.0168 30.2098 64.2897 29.9898 65.5129C28.921 64.3826 26.6067 65.3364 26.647 66.8911C26.7802 63.7384 26.8948 60.4743 25.7051 57.5508C24.943 55.6772 23.1523 53.8252 21.1881 54.3083C19.447 54.7357 18.626 56.7177 18.2976 58.4799C17.5416 62.543 18.0249 66.826 19.67 70.6166C19.1991 69.5234 17.3898 69.734 16.7764 70.7529C16.163 71.7749 16.4325 73.0911 16.891 74.1905C15.7509 73.0291 14.2514 72.131 12.6249 72.0691C10.9984 72.0072 9.28207 72.9579 8.79257 74.5064C8.29997 76.0579 9.43388 78.009 11.0604 78.0585C10.0287 78.1793 9.47105 79.4583 9.73439 80.4617C11.0542 85.4942 24.4287 86.2065 28.4563 85.807C34.5038 85.2031 40.4242 82.2579 43.9995 77.3431C44.6594 76.4326 45.2542 75.4138 45.4184 74.3051Z" fill="#F2EDE4"/>
<path d="M28.351 84.8378C28.32 84.8378 28.2891 84.8223 28.2674 84.7944C24.94 80.3348 23.3042 72.6081 22.5142 66.9159C21.6591 60.7531 21.5909 55.5751 21.5909 55.5224C21.5909 55.4667 21.6374 55.4171 21.6932 55.4171C21.7489 55.4171 21.7954 55.4636 21.7985 55.5193C21.8016 55.7237 22.1145 76.1943 28.4347 84.6705C28.4687 84.717 28.4594 84.782 28.413 84.8161C28.3944 84.8316 28.3727 84.8378 28.351 84.8378Z" fill="#D9C9AC"/>
<path d="M26.5012 83.9328C19.0905 83.9328 11.8905 79.6745 11.8161 79.6311C11.7666 79.6033 11.7511 79.5382 11.779 79.4887C11.8099 79.4391 11.8719 79.4236 11.9215 79.4515C12.002 79.498 19.9425 84.1929 27.6908 83.685C27.7466 83.685 27.7962 83.7253 27.8024 83.781C27.8055 83.8368 27.7621 83.8863 27.7063 83.8925C27.3067 83.9204 26.9039 83.9328 26.5012 83.9328Z" fill="#D9C9AC"/>
<path d="M25.6157 79.6442C25.5785 79.6442 25.5413 79.6226 25.5227 79.5854C25.498 79.5328 25.5196 79.4708 25.5692 79.446C33.0821 75.705 33.361 62.7878 33.361 62.6577C33.361 62.602 33.4105 62.5555 33.4663 62.5555C33.5221 62.5555 33.5685 62.602 33.5685 62.6608C33.5654 62.7909 33.2866 75.832 25.6622 79.6319C25.6467 79.6412 25.6312 79.6442 25.6157 79.6442Z" fill="#D9C9AC"/>
<path d="M26.0673 81.2115C17.089 81.2115 11.1189 74.2403 11.0601 74.1691C11.0229 74.1257 11.0291 74.0607 11.0724 74.0235C11.1158 73.9864 11.1809 73.9926 11.2181 74.0359C11.2769 74.1072 17.2842 81.1093 26.2656 81.0009C26.3213 81.0009 26.3678 81.0473 26.3709 81.1031C26.3709 81.1588 26.3244 81.2084 26.2687 81.2084C26.2005 81.2115 26.1354 81.2115 26.0673 81.2115Z" fill="#D9C9AC"/>
<path d="M24.7296 77.0646C24.7203 77.0646 24.7141 77.0646 24.7048 77.0615C19.3822 75.7794 18.1461 71.1743 18.1337 71.1309C18.1182 71.0752 18.1523 71.0194 18.208 71.004C18.2638 70.9885 18.3196 71.0225 18.3351 71.0783C18.3475 71.1247 19.5557 75.606 24.7543 76.8602C24.8101 76.8726 24.8442 76.9283 24.8318 76.9841C24.8194 77.0305 24.7791 77.0646 24.7296 77.0646Z" fill="#D9C9AC"/>
<path d="M24.2579 75.4135C24.2207 75.4135 24.1835 75.3919 24.165 75.3547C24.1402 75.302 24.1619 75.2401 24.2114 75.2153C27.1051 73.7815 28.7409 66.1259 28.7564 66.0485C28.7687 65.9927 28.8245 65.9556 28.8803 65.968C28.936 65.9804 28.9732 66.0361 28.9608 66.0919C28.8927 66.4108 27.2879 73.9208 24.3044 75.4011C24.2889 75.4104 24.2734 75.4135 24.2579 75.4135Z" fill="#D9C9AC"/>
<path d="M22.4551 65.7849C22.4334 65.7849 22.4117 65.7788 22.39 65.7633C20.305 64.1498 19.4096 59.6283 19.3724 59.4363C19.36 59.3806 19.3972 59.3248 19.4561 59.3155C19.5119 59.3031 19.5676 59.3403 19.5769 59.3991C19.5862 59.4456 20.494 64.0352 22.517 65.5991C22.5635 65.6332 22.5697 65.6982 22.5356 65.7447C22.517 65.7726 22.486 65.7849 22.4551 65.7849Z" fill="#D9C9AC"/>
<path d="M23.1246 70.2325C23.1091 70.2325 23.0936 70.2294 23.0781 70.2232C23.0254 70.1984 23.0038 70.1365 23.0285 70.0838C23.0533 70.0312 25.5535 64.7912 24.9153 60.8148C24.906 60.759 24.9463 60.7064 25.002 60.6971C25.0578 60.6878 25.1136 60.725 25.1198 60.7838C25.7673 64.8253 23.2392 70.1241 23.2144 70.1767C23.202 70.2108 23.1649 70.2325 23.1246 70.2325Z" fill="#D9C9AC"/>
<path d="M27.0715 71.7283C27.0343 71.7283 26.9971 71.7066 26.9785 71.6694C26.9413 71.5951 26.0708 69.8082 26.0212 68.1018C26.0181 68.046 26.0646 67.9965 26.1234 67.9965C26.1823 67.9965 26.2288 68.0399 26.2288 68.0987C26.2752 69.7617 27.1551 71.5641 27.1644 71.5827C27.1892 71.6354 27.1675 71.6973 27.1179 71.7221C27.1024 71.7252 27.087 71.7283 27.0715 71.7283Z" fill="#D9C9AC"/>
<path d="M19.444 75.5882C18.9328 75.5882 18.3534 75.5447 17.771 75.4082C17.7152 75.3958 17.6811 75.3399 17.6935 75.284C17.7059 75.2282 17.7648 75.194 17.8174 75.2064C19.4811 75.5913 21.1665 75.2095 21.1851 75.2064C21.2409 75.194 21.2966 75.2282 21.309 75.284C21.3214 75.3399 21.2873 75.3958 21.2316 75.4082C21.1851 75.4206 20.4384 75.5882 19.444 75.5882Z" fill="#D9C9AC"/>
<path d="M18.7031 79.6438C18.6598 79.6438 18.6195 79.619 18.604 79.5757C18.5947 79.554 17.7737 77.3026 17.058 76.1877C17.027 76.1381 17.0394 76.0762 17.089 76.0452C17.1386 76.0142 17.2005 76.0297 17.2315 76.0762C17.9596 77.2096 18.7651 79.4115 18.7992 79.5044C18.8178 79.5571 18.7899 79.619 18.7372 79.6376C18.7279 79.6438 18.7155 79.6438 18.7031 79.6438Z" fill="#D9C9AC"/>
<path d="M15.2925 81.3408C15.2616 81.3408 15.2306 81.3253 15.2089 81.3006C15.1748 81.2541 15.181 81.1891 15.2275 81.155C15.2306 81.1519 15.6333 80.8329 15.6922 80.3034C15.7356 79.9008 15.5745 79.4765 15.212 79.0398C15.1748 78.9965 15.181 78.9314 15.2244 78.8943C15.2677 78.8571 15.3328 78.8633 15.37 78.9067C15.7696 79.3867 15.9493 79.8667 15.8967 80.3281C15.8285 80.9475 15.3731 81.3037 15.3545 81.3191C15.339 81.3346 15.3142 81.3408 15.2925 81.3408Z" fill="#D9C9AC"/>
<path d="M11.7294 76.6011C11.2709 76.6011 10.7442 76.5079 10.199 76.2255C10.1494 76.1976 10.1277 76.1355 10.1556 76.0858C10.1835 76.0362 10.2455 76.0144 10.295 76.0424C11.7976 76.8214 13.1887 76.0517 13.2041 76.0455C13.2537 76.0175 13.3188 76.0362 13.3467 76.0858C13.3745 76.1355 13.356 76.2007 13.3064 76.2286C13.2661 76.2472 12.6217 76.6011 11.7294 76.6011Z" fill="#D9C9AC"/>
<path d="M30.5634 74.5434C30.5262 74.5434 30.4891 74.5217 30.4705 74.4846C30.4581 74.4598 29.256 71.9761 29.8508 69.4552C29.8632 69.3994 29.9221 69.3654 29.9748 69.3777C30.0305 69.3901 30.0646 69.4459 30.0522 69.5016C29.476 71.9544 30.644 74.37 30.6564 74.3948C30.6811 74.4474 30.6595 74.5093 30.6099 74.5341C30.5944 74.5403 30.5789 74.5434 30.5634 74.5434Z" fill="#D9C9AC"/>
<path d="M26.9043 82.5179C26.864 82.5179 26.8268 82.4963 26.8113 82.4591C26.7865 82.4065 26.8082 82.3445 26.8609 82.3228C26.929 82.2919 33.5714 79.1485 36.5301 73.0879C36.5549 73.0352 36.6168 73.0135 36.6695 73.0414C36.7222 73.0662 36.7438 73.1281 36.716 73.1808C33.7263 79.3095 27.0158 82.4808 26.9476 82.5148C26.9352 82.5148 26.9198 82.5179 26.9043 82.5179Z" fill="#D9C9AC"/>
<path d="M28.0223 84.3789C27.9727 84.3789 27.9293 84.3417 27.92 84.2922C27.9107 84.2364 27.951 84.1838 28.0068 84.1745C34.3889 83.1649 43.6058 73.1619 43.6987 73.0628C43.7359 73.0194 43.804 73.0163 43.8443 73.0566C43.8877 73.0938 43.8908 73.1619 43.8505 73.2022C43.7576 73.3044 34.4911 83.36 28.0378 84.3789C28.0316 84.3789 28.0285 84.3789 28.0223 84.3789Z" fill="#D9C9AC"/>
<path d="M32.3075 78.8082C32.2517 78.8082 32.2052 78.7648 32.2021 78.706C32.2021 78.6843 32.1494 76.5196 32.9581 74.4013C32.9797 74.3487 33.0386 74.3208 33.0913 74.3425C33.1439 74.3641 33.1718 74.423 33.1501 74.4756C32.3539 76.5536 32.4066 78.6781 32.4066 78.6998C32.4128 78.7586 32.3694 78.8051 32.3075 78.8082C32.3105 78.8082 32.3105 78.8082 32.3075 78.8082Z" fill="#D9C9AC"/>
<path d="M35.0277 77.2039C34.4174 77.2039 34.0332 77.0676 33.9991 77.0552C33.9465 77.0366 33.9186 76.9747 33.9372 76.922C33.9557 76.8694 34.0146 76.8415 34.0704 76.8601C34.089 76.8663 35.7836 77.4547 37.8036 76.0456C37.8501 76.0115 37.9151 76.0239 37.9492 76.0704C37.9833 76.1168 37.9709 76.1819 37.9244 76.2159C36.7812 77.015 35.7465 77.2039 35.0277 77.2039Z" fill="#D9C9AC"/>
<path d="M37.1806 80.7729C36.2698 80.7729 35.8484 80.3694 35.8237 80.3446C35.7834 80.3042 35.7834 80.2391 35.8237 80.1956C35.8639 80.1552 35.929 80.1552 35.9693 80.1956C35.9786 80.2049 36.8522 81.0243 38.8598 80.1739C38.9125 80.149 38.9744 80.177 38.9961 80.2297C39.0178 80.2825 38.993 80.3446 38.9404 80.3663C38.2247 80.6705 37.6392 80.7729 37.1806 80.7729Z" fill="#D9C9AC"/>
<path d="M31.7654 83.0317C31.7097 83.0317 31.6632 82.9852 31.6601 82.9295C31.6601 82.8706 31.6446 81.5018 32.6019 80.3962C32.6391 80.3529 32.7042 80.3498 32.7475 80.3869C32.7909 80.4241 32.7971 80.4891 32.7568 80.5325C31.8522 81.5761 31.8646 82.9109 31.8646 82.9264C31.8708 82.9852 31.8243 83.0317 31.7654 83.0317Z" fill="#D9C9AC"/>
<path d="M19.0752 36.1516C20.2555 36.1516 20.2555 34.3183 19.0752 34.3183C17.8948 34.3214 17.8948 36.1516 19.0752 36.1516Z" fill="#8E97FD"/>
<path d="M40.548 4.28723C41.7284 4.28723 41.7284 2.45386 40.548 2.45386C39.3676 2.45386 39.3645 4.28723 40.548 4.28723Z" fill="#8E97FD"/>
<path d="M85.0711 22.5928C85.6597 22.5928 85.6628 21.6761 85.0711 21.6761C84.4824 21.6761 84.4793 22.5928 85.0711 22.5928Z" fill="#8E97FD"/>
<path d="M35.8175 15.3835C36.4061 15.3835 36.4092 14.4668 35.8175 14.4668C35.2288 14.4668 35.2288 15.3835 35.8175 15.3835Z" fill="#8E97FD"/>
<path d="M93.8946 21.6765C94.4833 21.6765 94.4864 20.7598 93.8946 20.7598C93.3029 20.7598 93.3029 21.6765 93.8946 21.6765Z" fill="#8E97FD"/>
<path d="M34.3955 7.25697C34.9842 7.25697 34.9873 6.34029 34.3955 6.34029C33.8069 6.34029 33.8038 7.25697 34.3955 7.25697Z" fill="#59D6B8"/>
<path d="M70.4543 73.8438C71.0429 73.8438 71.046 72.9271 70.4543 72.9271C69.8657 72.9271 69.8657 73.8438 70.4543 73.8438Z" fill="#59D6B8"/>
<path d="M13.2541 17.3344C13.8427 17.3344 13.8458 16.4177 13.2541 16.4177C12.6655 16.4177 12.6655 17.3344 13.2541 17.3344Z" fill="#59D6B8"/>
<path d="M3.43263 51.809C4.02127 51.809 4.02437 50.8924 3.43263 50.8924C2.8409 50.8924 2.8409 51.809 3.43263 51.809Z" fill="#8ABFA3"/>
<path d="M82.9648 1.54953C83.5534 1.54953 83.5565 0.632843 82.9648 0.632843C82.3762 0.632843 82.3762 1.54953 82.9648 1.54953Z" fill="#8E97FD"/>
<path d="M4.34696 42.0789C4.34696 42.0386 4.34696 41.9984 4.34696 41.9581C4.34696 41.4781 3.92562 41.0197 3.42992 41.0414C2.93422 41.0631 2.51288 41.444 2.51288 41.9581C2.51288 41.9984 2.51288 42.0386 2.51288 42.0789C2.51288 42.5589 2.93422 43.0172 3.42992 42.9956C3.92871 42.9708 4.34696 42.5899 4.34696 42.0789Z" fill="#8E97FD"/>
<path d="M74.9279 1.09134C76.1083 1.09134 76.1083 -0.74202 74.9279 -0.74202C73.7475 -0.74202 73.7444 1.09134 74.9279 1.09134Z" fill="#8E97FD"/>
<path d="M14.8093 66.9407C15.9897 66.9407 15.9897 65.1073 14.8093 65.1073C13.6289 65.1073 13.6289 66.9407 14.8093 66.9407Z" fill="#E9F2DE"/>
</svg>
