<svg width="374" height="63" viewBox="0 0 374 63" fill="none" xmlns="http://www.w3.org/2000/svg">
<rect x="0.5" y="0.5" width="373" height="62" rx="31" stroke="#EBEAEC"/>
<path d="M102.212 30.682H100.462C100.126 29.3567 99.2949 28.694 97.9695 28.694C96.9709 28.694 96.1962 29.0907 95.6455 29.884C95.1695 30.5747 94.9315 31.4473 94.9315 32.502C94.9315 33.5567 95.1695 34.4293 95.6455 35.12C96.1962 35.9133 96.9709 36.31 97.9695 36.31C98.7162 36.31 99.3182 36.0533 99.7755 35.54C100.196 35.0733 100.443 34.4573 100.518 33.692H102.226C102.151 34.896 101.722 35.8713 100.938 36.618C100.163 37.3647 99.1735 37.738 97.9695 37.738C96.5135 37.738 95.3422 37.22 94.4555 36.184C93.6062 35.204 93.1815 33.9767 93.1815 32.502C93.1815 31.018 93.6062 29.786 94.4555 28.806C95.3422 27.7793 96.5135 27.266 97.9695 27.266C99.1175 27.266 100.079 27.5647 100.854 28.162C101.656 28.7873 102.109 29.6273 102.212 30.682ZM108.773 27.266C110.229 27.266 111.4 27.7793 112.287 28.806C113.136 29.7953 113.561 31.0273 113.561 32.502C113.561 33.9767 113.136 35.204 112.287 36.184C111.4 37.22 110.229 37.738 108.773 37.738C107.317 37.738 106.146 37.22 105.259 36.184C104.41 35.204 103.985 33.9767 103.985 32.502C103.985 31.0273 104.41 29.7953 105.259 28.806C106.146 27.7793 107.317 27.266 108.773 27.266ZM108.773 28.694C107.774 28.694 107 29.0907 106.449 29.884C105.973 30.5747 105.735 31.4473 105.735 32.502C105.735 33.5567 105.973 34.4293 106.449 35.12C107 35.9133 107.774 36.31 108.773 36.31C109.772 36.31 110.546 35.9133 111.097 35.12C111.573 34.4293 111.811 33.5567 111.811 32.502C111.811 31.4473 111.573 30.5747 111.097 29.884C110.546 29.0907 109.772 28.694 108.773 28.694ZM115.784 37.5V27.504H117.632L122.196 34.868H122.224V27.504H123.89V37.5H122.042L117.492 30.15H117.45V37.5H115.784ZM125.705 29.016V27.504H133.797V29.016H130.619V37.5H128.869V29.016H125.705ZM135.656 37.5V27.504H137.406V37.5H135.656ZM140.183 37.5V27.504H142.031L146.595 34.868H146.623V27.504H148.289V37.5H146.441L141.891 30.15H141.849V37.5H140.183ZM150.944 33.902V27.504H152.694V33.328C152.694 34.2333 152.801 34.882 153.016 35.274C153.361 35.9087 154.038 36.226 155.046 36.226C156.054 36.226 156.731 35.9087 157.076 35.274C157.291 34.882 157.398 34.2333 157.398 33.328V27.504H159.148V33.902C159.148 35.1527 158.775 36.114 158.028 36.786C157.309 37.4207 156.315 37.738 155.046 37.738C153.777 37.738 152.787 37.4207 152.078 36.786C151.322 36.114 150.944 35.1527 150.944 33.902ZM161.86 37.5V27.504H169.056V29.016H163.61V31.634H168.65V33.062H163.61V35.988H169.154V37.5H161.86ZM177.626 37.5L174.994 27.504H176.772L178.578 35.148H178.606L180.622 27.504H182.414L184.374 35.148H184.402L186.264 27.504H188.042L185.284 37.5H183.506L181.504 29.856H181.476L179.432 37.5H177.626ZM189.895 37.5V27.504H191.645V37.5H189.895ZM193.54 29.016V27.504H201.632V29.016H198.454V37.5H196.704V29.016H193.54ZM203.448 37.5V27.504H205.198V31.48H209.748V27.504H211.498V37.5H209.748V32.992H205.198V37.5H203.448ZM227.612 32.236V37.5H226.492L226.226 36.324C225.769 36.8467 225.307 37.2153 224.84 37.43C224.383 37.6353 223.842 37.738 223.216 37.738C221.76 37.738 220.589 37.22 219.702 36.184C218.853 35.204 218.428 33.9767 218.428 32.502C218.428 31.0273 218.853 29.7953 219.702 28.806C220.589 27.7793 221.76 27.266 223.216 27.266C224.355 27.266 225.307 27.5553 226.072 28.134C226.894 28.7407 227.37 29.59 227.5 30.682H225.792C225.708 30.0473 225.414 29.5527 224.91 29.198C224.444 28.862 223.879 28.694 223.216 28.694C222.218 28.694 221.443 29.0907 220.892 29.884C220.416 30.5747 220.178 31.4473 220.178 32.502C220.178 33.5567 220.416 34.4293 220.892 35.12C221.434 35.904 222.208 36.3007 223.216 36.31C224.103 36.3193 224.784 36.0813 225.26 35.596C225.746 35.1013 225.998 34.4247 226.016 33.566H223.356V32.236H227.612ZM234.47 27.266C235.926 27.266 237.097 27.7793 237.984 28.806C238.833 29.7953 239.258 31.0273 239.258 32.502C239.258 33.9767 238.833 35.204 237.984 36.184C237.097 37.22 235.926 37.738 234.47 37.738C233.014 37.738 231.842 37.22 230.956 36.184C230.106 35.204 229.682 33.9767 229.682 32.502C229.682 31.0273 230.106 29.7953 230.956 28.806C231.842 27.7793 233.014 27.266 234.47 27.266ZM234.47 28.694C233.471 28.694 232.696 29.0907 232.146 29.884C231.67 30.5747 231.432 31.4473 231.432 32.502C231.432 33.5567 231.67 34.4293 232.146 35.12C232.696 35.9133 233.471 36.31 234.47 36.31C235.468 36.31 236.243 35.9133 236.794 35.12C237.27 34.4293 237.508 33.5567 237.508 32.502C237.508 31.4473 237.27 30.5747 236.794 29.884C236.243 29.0907 235.468 28.694 234.47 28.694ZM245.806 27.266C247.262 27.266 248.434 27.7793 249.32 28.806C250.17 29.7953 250.594 31.0273 250.594 32.502C250.594 33.9767 250.17 35.204 249.32 36.184C248.434 37.22 247.262 37.738 245.806 37.738C244.35 37.738 243.179 37.22 242.292 36.184C241.443 35.204 241.018 33.9767 241.018 32.502C241.018 31.0273 241.443 29.7953 242.292 28.806C243.179 27.7793 244.35 27.266 245.806 27.266ZM245.806 28.694C244.808 28.694 244.033 29.0907 243.482 29.884C243.006 30.5747 242.768 31.4473 242.768 32.502C242.768 33.5567 243.006 34.4293 243.482 35.12C244.033 35.9133 244.808 36.31 245.806 36.31C246.805 36.31 247.58 35.9133 248.13 35.12C248.606 34.4293 248.844 33.5567 248.844 32.502C248.844 31.4473 248.606 30.5747 248.13 29.884C247.58 29.0907 246.805 28.694 245.806 28.694ZM261.609 32.236V37.5H260.489L260.223 36.324C259.766 36.8467 259.304 37.2153 258.837 37.43C258.38 37.6353 257.838 37.738 257.213 37.738C255.757 37.738 254.586 37.22 253.699 36.184C252.85 35.204 252.425 33.9767 252.425 32.502C252.425 31.0273 252.85 29.7953 253.699 28.806C254.586 27.7793 255.757 27.266 257.213 27.266C258.352 27.266 259.304 27.5553 260.069 28.134C260.89 28.7407 261.366 29.59 261.497 30.682H259.789C259.705 30.0473 259.411 29.5527 258.907 29.198C258.44 28.862 257.876 28.694 257.213 28.694C256.214 28.694 255.44 29.0907 254.889 29.884C254.413 30.5747 254.175 31.4473 254.175 32.502C254.175 33.5567 254.413 34.4293 254.889 35.12C255.43 35.904 256.205 36.3007 257.213 36.31C258.1 36.3193 258.781 36.0813 259.257 35.596C259.742 35.1013 259.994 34.4247 260.013 33.566H257.353V32.236H261.609ZM264.21 37.5V27.504H265.96V35.988H271.042V37.5H264.21ZM272.949 37.5V27.504H280.145V29.016H274.699V31.634H279.739V33.062H274.699V35.988H280.243V37.5H272.949Z" fill="#3F414E"/>
<path d="M52.6497 31.7673C52.6497 30.778 52.5694 30.056 52.3957 29.3074H41.0985V33.7727H47.7297C47.596 34.8824 46.8741 36.5536 45.2697 37.6765L45.2472 37.826L48.8192 40.5932L49.0667 40.6179C51.3394 38.5189 52.6497 35.4305 52.6497 31.7673Z" fill="#4285F4"/>
<path d="M41.0985 43.5324C44.3472 43.5324 47.0746 42.4628 49.0667 40.6178L45.2697 37.6765C44.2537 38.3851 42.89 38.8797 41.0985 38.8797C37.9166 38.8797 35.216 36.7808 34.2533 33.8797L34.1122 33.8916L30.3981 36.7661L30.3495 36.9011C32.3281 40.8317 36.3924 43.5324 41.0985 43.5324Z" fill="#34A853"/>
<path d="M34.2533 33.8797C33.9993 33.131 33.8523 32.3288 33.8523 31.4999C33.8523 30.671 33.9993 29.8688 34.24 29.1201L34.2332 28.9607L30.4725 26.0401L30.3495 26.0986C29.534 27.7297 29.066 29.5614 29.066 31.4999C29.066 33.4385 29.534 35.27 30.3495 36.9011L34.2533 33.8797Z" fill="#FBBC05"/>
<path d="M41.0989 24.12C43.3583 24.12 44.8824 25.096 45.7514 25.9116L49.1472 22.596C47.0617 20.6574 44.3476 19.4675 41.0989 19.4675C36.3928 19.4675 32.3285 22.1681 30.3499 26.0987L34.2403 29.1202C35.2164 26.2191 37.917 24.12 41.0989 24.12Z" fill="#EB4335"/>
</svg>
