<svg width="414" height="258" viewBox="0 0 414 258" fill="none" xmlns="http://www.w3.org/2000/svg">
<path d="M66.5835 224.997L-9 257.997H421L347.498 224.997H66.5835Z" fill="#8C96FF"/>
<path d="M180.48 163.637L166.2 186.837L193.59 219.367H221.21L246.96 186.287L231.02 163.637H180.48Z" fill="#3F4553"/>
<path d="M166.2 186.837C166.2 186.837 104.77 191.587 89.3599 207.677C73.9499 223.767 81.1999 241.237 96.2099 241.237C123.84 241.237 182.3 242.927 209.96 241.237L211.61 203.567L166.2 186.837Z" fill="#3F4553"/>
<path d="M245.37 186.037C245.37 186.037 309.7 191.587 325.11 207.677C340.52 223.767 331.64 234.427 318.26 241.237C299.43 250.827 231.56 249.237 196.36 237.587L202.87 203.567L245.37 186.037Z" fill="#3F4553"/>
<path d="M248.2 217.637L243.85 206.397L249.27 203.987C249.27 203.987 248.52 197.337 255.15 196.057C261.78 194.777 269.68 199.057 277.38 195.607C284.48 192.427 293.17 189.497 301.28 193.897C302.48 194.547 303.04 195.977 302.63 197.277L302.6 197.377C302.19 198.687 300.91 199.497 299.54 199.357C296.68 199.067 291.58 199.127 286.54 202.177C277.85 207.457 248.2 217.637 248.2 217.637Z" fill="#FEBBA0"/>
<path d="M298.81 218.277C298.81 218.277 255.88 210.647 165.45 209.467L156.72 221.307C156.72 221.307 179.22 234.167 200.34 238.817C221.46 243.467 294.37 258.107 326.93 235.557L298.81 218.277Z" fill="#3F4553"/>
<path d="M200.34 238.827C178.69 233.827 156.04 221.007 156.04 221.007L157.39 218.717" stroke="#6E758F" stroke-width="1.5925" stroke-miterlimit="10" stroke-linecap="round"/>
<path d="M165.45 209.467C165.45 209.467 264.8 207.197 291.31 222.577" stroke="#6E758F" stroke-width="1.5925" stroke-miterlimit="10" stroke-linecap="round"/>
<path d="M116.68 215.907C116.68 215.907 134.82 207.407 147.22 212.977" stroke="#6E758F" stroke-width="1.5925" stroke-miterlimit="10" stroke-linecap="round"/>
<path d="M158.81 219.347L165.44 209.247L158.81 205.657C158.81 205.657 156.49 199.847 149.99 198.047C143.48 196.257 138.85 199.147 131.44 195.107C124.61 191.377 116.17 187.787 107.75 191.537C106.51 192.087 105.83 193.467 106.14 194.797L106.16 194.897C106.47 196.237 107.68 197.137 109.05 197.107C111.92 197.037 117.01 197.497 121.79 200.937C130.04 206.877 158.81 219.347 158.81 219.347Z" fill="#FEBBA0"/>
<path d="M215.89 209.827L243.05 207.157" stroke="#6E758F" stroke-width="1.5925" stroke-miterlimit="10" stroke-linecap="round"/>
<path d="M181.35 198.057L196.5 209.027" stroke="#6E758F" stroke-width="1.5925" stroke-miterlimit="10" stroke-linecap="round"/>
<path d="M177.44 48.7668C178.08 55.0268 183.53 59.5868 189.61 58.9668C195.69 58.3468 200.1 52.7668 199.46 46.5168C198.82 40.2568 193.37 35.6968 187.29 36.3168C181.22 36.9268 176.81 42.5068 177.44 48.7668Z" fill="#3F4553"/>
<path d="M200.15 53.3168C200.15 53.3168 180.83 50.3968 177.79 32.1668C175.11 16.0568 185.92 3.14679 197.77 0.916788C197.78 0.916788 226.25 44.7968 200.15 53.3168Z" fill="#3F4553"/>
<path d="M200.59 2.64679C199.17 3.34679 197.82 4.26679 196.59 5.45679C185.58 16.0468 192.55 36.6068 202.41 45.8868C207.87 51.0168 215.85 53.4068 222.82 50.7868C233.01 46.9568 236.2 35.4168 234.13 25.1368C232.59 17.4768 228.34 10.2468 222.07 5.74679C215.8 1.25679 207.33 -0.643212 200.59 2.64679Z" fill="#FDBCA0"/>
<path d="M198.76 39.6868C196.83 41.5968 193.47 42.3768 190.89 41.4668C188.31 40.5568 186.19 38.1268 185.52 35.3068C184.92 32.7768 185.57 29.8968 187.43 28.3468C189.29 26.7968 192.64 26.8968 194.23 28.9068L198.76 39.6868Z" fill="#FDBCA0"/>
<path d="M195.94 32.9668L197.97 69.3068C198.24 76.0268 203.69 81.3668 210.41 81.4968C218.17 81.6568 224.26 74.8768 223.27 67.1768L219.17 33.4368L195.94 32.9668Z" fill="#FDBCA0"/>
<path d="M221.93 56.2168L221.42 51.2368C221.42 51.2368 211.42 54.3068 202.41 45.8768C202.41 45.8868 207.6 55.3568 221.93 56.2168Z" fill="#DF8370"/>
<path d="M191.97 27.4768C204.99 26.8068 216.87 18.0668 223.43 6.80679C223.43 6.80679 211.45 -4.56321 193.94 2.08679C179.43 7.58679 191.97 27.4768 191.97 27.4768Z" fill="#3F4553"/>
<path d="M193.4 35.8368C191.9 35.9868 190.59 35.1768 190.47 34.0268C190.38 33.1568 190.99 32.3468 191.93 31.9268" stroke="#444359" stroke-width="1.1144" stroke-miterlimit="10" stroke-linecap="round"/>
<path d="M224.68 32.9968C224.98 32.0868 225.5 31.3668 226.08 30.6868L226.36 31.5668C225.7 31.3168 225.34 30.9368 224.97 30.5668C224.62 30.1768 224.31 29.7868 224.03 29.3668C223.47 28.5368 223 27.6568 222.66 26.7268C223.36 27.4368 224 28.1668 224.67 28.8668C225.01 29.2068 225.33 29.5568 225.68 29.8568C226.01 30.1468 226.4 30.4468 226.67 30.5168L227.48 30.7068L226.95 31.3968C226.41 32.1068 225.81 32.7668 224.98 33.2468C224.88 33.3068 224.76 33.2668 224.7 33.1768C224.67 33.1068 224.67 33.0468 224.68 32.9968Z" fill="#444359"/>
<path d="M227.61 36.1768C227.21 36.9968 226.53 37.7068 225.65 38.1368C224.78 38.5868 223.7 38.6768 222.74 38.3968C221.76 38.1268 221 37.4868 220.35 36.8268C220.06 36.4668 219.77 36.0968 219.53 35.7168C219.32 35.3068 219.1 34.9068 218.94 34.4868C219.31 34.7668 219.63 35.0668 219.95 35.3668L220.94 36.1868C221.64 36.6468 222.3 37.1468 223.06 37.3268C223.79 37.5568 224.57 37.5468 225.34 37.3368C226.1 37.1168 226.86 36.6868 227.61 36.1768Z" fill="#444359"/>
<path d="M217.14 23.1068C217.53 24.2668 217.75 25.4668 217.67 26.7568C217.62 27.3868 217.47 28.0768 217 28.6868C216.52 29.3068 215.71 29.5768 215 29.5568C214.27 29.5468 213.55 29.2268 213.06 28.7768C212.55 28.3268 212.15 27.8068 211.85 27.2568C211.25 26.1468 210.87 24.9868 210.68 23.7668C210.65 23.5768 210.78 23.3968 210.97 23.3568C211.15 23.3268 211.31 23.4368 211.36 23.5968L211.37 23.6168C211.71 24.6968 212.16 25.7868 212.74 26.7268C213.32 27.6368 214.11 28.4768 215.04 28.4468C215.5 28.4668 215.93 28.3468 216.19 28.0168C216.48 27.6968 216.62 27.1768 216.7 26.6468C216.85 25.5768 216.75 24.3968 216.57 23.2668V23.2468C216.54 23.0868 216.66 22.9268 216.82 22.9068C216.95 22.8868 217.09 22.9768 217.14 23.1068Z" fill="#444359"/>
<path d="M231.66 20.8368C231.99 21.8168 232.17 22.8168 232.15 23.8868C232.14 24.4168 232.04 24.9968 231.7 25.5468C231.37 26.1268 230.63 26.4868 229.99 26.4568C229.32 26.4468 228.71 26.0968 228.32 25.6868C227.92 25.2668 227.61 24.8168 227.38 24.3368C226.93 23.3768 226.65 22.3968 226.51 21.3668C226.48 21.1768 226.62 20.9968 226.82 20.9668C226.99 20.9468 227.15 21.0468 227.2 21.2068L227.21 21.2268C227.5 22.1268 227.85 23.0468 228.3 23.8468C228.75 24.6268 229.36 25.3768 230.03 25.3368C230.37 25.3468 230.64 25.2468 230.82 24.9668C231.02 24.6868 231.12 24.2568 231.18 23.8068C231.28 22.9068 231.2 21.9168 231.09 20.9768V20.9568C231.07 20.7968 231.19 20.6468 231.35 20.6168C231.48 20.6168 231.62 20.7068 231.66 20.8368Z" fill="#444359"/>
<path d="M242.46 72.6068C242.37 66.5068 222.59 61.6268 222.59 61.6268C221.35 62.9968 219.22 65.3068 210.25 65.3068C201.67 65.3068 198.24 63.0868 196.9 61.6268H188.41C186.52 61.6268 184.79 62.7068 184 64.4268C166.99 101.637 176.55 143.197 180.47 163.627C180.83 165.507 216.33 164.237 232.34 165.507C235.8 165.797 242.8 94.7768 242.46 72.6068Z" fill="#FEE6C6"/>
<path d="M201.15 125.227C202.91 111.007 205.06 102.477 206.71 105.277C208.17 107.757 207.36 120.197 205.17 132.197C205.18 132.197 200.4 131.317 201.15 125.227Z" fill="#FEBBA0"/>
<path d="M212.77 125.227C211.01 111.007 208.86 102.477 207.21 105.277C205.75 107.757 206.56 120.197 208.75 132.197C208.74 132.197 213.52 131.317 212.77 125.227Z" fill="#FEBBA0"/>
<path d="M271.39 121.697H249.04L252.59 144.397L212.03 124.607C211.89 123.087 211.7 121.207 211.47 119.217C209.94 119.217 208.4 119.217 206.87 119.197C206.88 120.927 206.91 122.097 206.91 122.097C206.91 122.097 206.12 132.537 207.93 136.017C211.37 142.637 246.56 163.957 256.33 166.487C256.94 166.647 257.55 166.767 258.16 166.847C267.59 168.177 273.84 162.887 273.77 153.367L271.39 121.697Z" fill="#FEBBA0"/>
<path d="M202.05 119.117C201.7 121.357 201.39 123.517 201.15 125.227L161.76 143.467L163.42 121.707H141.07L138.7 153.397C138.64 162.917 144.89 168.197 154.31 166.877C154.92 166.787 155.53 166.667 156.14 166.517C165.91 163.987 198.64 146.297 205.63 135.977C207.7 132.927 206.72 122.657 206.72 122.657C206.72 122.657 206.72 121.237 206.68 119.217C205.14 119.187 203.6 119.157 202.05 119.117Z" fill="#FEBBA0"/>
<path d="M169.14 134.117C177.88 108.267 177.81 108.247 188.54 61.6368C181.36 62.1268 180.62 60.9568 174.96 63.8968C157.98 72.7168 141.99 101.687 137.28 134.117H169.14Z" fill="#FEE6C6"/>
<path d="M246.96 131.567C241.82 113.257 222.59 61.6368 222.59 61.6368C241.82 60.9868 268.06 86.0568 274.34 128.217L246.96 131.567Z" fill="#FEE6C6"/>
<path d="M242.47 91.1368L238.42 124.417" stroke="#EED2AD" stroke-width="1.5925" stroke-miterlimit="10" stroke-linecap="round"/>
<path d="M172.82 96.5968L176.04 132.197" stroke="#EED2AD" stroke-width="1.5925" stroke-miterlimit="10" stroke-linecap="round"/>
</svg>
