<svg width="171" height="172" viewBox="0 0 171 172" fill="none" xmlns="http://www.w3.org/2000/svg">
<path d="M155.478 -4.08379C155.478 -4.08379 138.266 -15.4602 117.309 -9.46968C96.3486 -3.48106 82.0471 15.2581 70.0569 30.1311C58.0649 45.0066 58.5954 63.3261 70.8212 74.6829C83.047 86.0396 95.3546 76.9007 115.24 81.2891C135.125 85.6775 139.767 89.8272 158.797 82.8018C177.827 75.7764 187.021 50.2239 178.703 27.53C170.383 4.83413 155.478 -4.08379 155.478 -4.08379Z" fill="#F1B869"/>
<path d="M100.787 63.9517C99.957 64.2252 99.0579 63.7717 98.7832 62.9435L93.2273 46.19C92.9888 45.4711 92.2122 45.0793 91.4941 45.3159C90.776 45.5524 90.3865 46.3282 90.6249 47.0471L94.7724 59.5533C95.0165 60.2895 94.6174 61.0844 93.8821 61.3266C93.1468 61.5688 92.351 61.1675 92.1069 60.4313L89.8171 53.5269C89.6407 52.9949 89.0668 52.7054 88.5355 52.8805C88.0041 53.0555 87.7163 53.6287 87.8927 54.1607L88.7443 56.7287L86.6245 57.4269L86.5292 57.1393L88.3617 56.5357L87.6055 54.2553C87.3766 53.5652 87.7507 52.82 88.4401 52.5929C89.1294 52.3658 89.8755 52.7421 90.1044 53.4323L92.3941 60.3367C92.5858 60.9147 93.2094 61.2292 93.7868 61.0391C94.3641 60.8489 94.6768 60.226 94.4851 59.6479L90.3377 47.1417C90.0468 46.2647 90.5227 45.3169 91.3987 45.0283C92.2748 44.7397 93.2236 45.2183 93.5145 46.0954L99.0705 62.8489C99.2927 63.5189 100.02 63.8856 100.692 63.6642C101.361 63.4437 101.726 62.7176 101.503 62.0476L94.7248 41.6074C94.3719 40.5434 94.9494 39.3931 96.0122 39.043C97.0749 38.693 98.2266 39.2738 98.5794 40.3378L105.326 60.683C105.565 61.4019 106.342 61.7937 107.06 61.5571C107.778 61.3206 108.167 60.5448 107.929 59.8259L102.552 43.6129C102.215 42.595 102.767 41.4943 103.784 41.1594C104.801 40.8245 105.903 41.3802 106.24 42.3982L110.206 54.358C110.413 54.982 111.091 55.3236 111.714 55.1183C112.337 54.913 112.677 54.2365 112.47 53.6125L110.314 47.1106C110.065 46.3601 110.471 45.5499 111.221 45.303C111.971 45.056 112.785 45.4641 113.034 46.2147L113.689 48.1903L115.809 47.4921L115.904 47.7796L113.497 48.5724L112.746 46.3093C112.55 45.7169 111.908 45.3956 111.316 45.5905C110.725 45.7854 110.405 46.4265 110.601 47.016L112.757 53.5179C113.016 54.3001 112.59 55.1485 111.809 55.4058C111.028 55.6632 110.179 55.2348 109.919 54.4526L105.953 42.4928C105.668 41.633 104.738 41.1641 103.879 41.447C103.02 41.7298 102.554 42.6585 102.839 43.5183L108.216 59.7313C108.507 60.6083 108.031 61.5561 107.155 61.8447C106.279 62.1333 105.33 61.6547 105.039 60.7776L98.2922 40.4324C97.9918 39.5266 97.0123 39.0326 96.1076 39.3306C95.2028 39.6286 94.7116 40.607 95.012 41.5128L101.791 61.953C102.068 62.7802 101.617 63.6783 100.787 63.9517Z" fill="#FEDEA5"/>
<path d="M128.518 54.8059C127.688 55.0793 126.789 54.6258 126.514 53.7976L120.958 37.0441C120.72 36.3252 119.943 35.9335 119.225 36.17C118.507 36.4065 118.118 37.1823 118.356 37.9012L122.504 50.4075C122.748 51.1436 122.349 51.9385 121.613 52.1807C120.878 52.4229 120.082 52.0216 119.838 51.2854L117.548 44.381C117.372 43.849 116.798 43.5595 116.267 43.7346C115.735 43.9096 115.447 44.4829 115.624 45.0149L116.476 47.5828L114.356 48.281L114.26 47.9935L116.093 47.3899L115.337 45.1095C115.108 44.4193 115.482 43.6741 116.171 43.447C116.861 43.2199 117.607 43.5962 117.836 44.2864L120.125 51.1908C120.317 51.7688 120.941 52.0833 121.518 51.8932C122.095 51.703 122.408 51.0801 122.216 50.5021L118.069 37.9958C117.778 37.1188 118.254 36.171 119.13 35.8824C120.006 35.5939 120.955 36.0724 121.246 36.9495L126.802 53.703C127.024 54.3731 127.751 54.7397 128.423 54.5183C129.092 54.2979 129.457 53.5717 129.235 52.9017L122.456 32.4615C122.103 31.3976 122.681 30.2472 123.743 29.8972C124.806 29.5471 125.958 30.1279 126.311 31.1919L133.058 51.5371C133.296 52.2561 134.073 52.6478 134.791 52.4112C135.509 52.1747 135.898 51.3989 135.66 50.68L130.283 34.4671C129.946 33.4491 130.498 32.3484 131.515 32.0135C132.532 31.6786 133.634 32.2343 133.971 33.2523L137.938 45.2121C138.145 45.8361 138.822 46.1777 139.445 45.9724C140.068 45.7671 140.408 45.0906 140.201 44.4666L138.045 37.9648C137.796 37.2142 138.203 36.404 138.955 36.1561C139.705 35.9092 140.516 36.3183 140.765 37.0688L141.42 39.0444L143.54 38.3462L143.635 38.6337L141.228 39.4266L140.478 37.1634C140.281 36.571 139.642 36.2488 139.051 36.4437C138.459 36.6386 138.137 37.2806 138.332 37.8701L140.488 44.372C140.748 45.1542 140.322 46.0026 139.54 46.2599C138.759 46.5173 137.91 46.0889 137.65 45.3067L133.684 33.3469C133.399 32.4871 132.469 32.0182 131.61 32.3011C130.752 32.5839 130.285 33.5126 130.571 34.3724L135.947 50.5854C136.238 51.4625 135.762 52.4103 134.886 52.6988C134.01 52.9874 133.061 52.5088 132.77 51.6318L126.023 31.2865C125.723 30.3807 124.744 29.8867 123.839 30.1847C122.934 30.4827 122.443 31.4611 122.743 32.3669L129.522 52.8071C129.799 53.6343 129.348 54.5324 128.518 54.8059Z" fill="#FEDEA5"/>
<path d="M156.25 45.6612C155.42 45.9347 154.521 45.4812 154.246 44.653L148.69 27.8995C148.452 27.1805 147.675 26.7888 146.957 27.0254C146.239 27.2619 145.849 28.0377 146.088 28.7566L150.235 41.2628C150.479 41.999 150.08 42.7939 149.345 43.0361C148.61 43.2783 147.814 42.877 147.57 42.1408L145.28 35.2364C145.104 34.7044 144.53 34.4149 143.998 34.59C143.467 34.765 143.179 35.3382 143.356 35.8702L144.207 38.4382L142.087 39.1364L141.992 38.8488L143.825 38.2452L143.068 35.9648C142.839 35.2747 143.214 34.5295 143.903 34.3024C144.592 34.0753 145.338 34.4516 145.567 35.1417L147.857 42.0462C148.049 42.6242 148.672 42.9387 149.25 42.7486C149.827 42.5584 150.14 41.9355 149.948 41.3574L145.801 28.8512C145.51 27.9742 145.986 27.0264 146.862 26.7378C147.738 26.4492 148.686 26.9278 148.977 27.8049L154.533 44.5584C154.756 45.2284 155.482 45.5951 156.155 45.3737C156.827 45.1523 157.188 44.4271 156.966 43.7571L150.188 23.3169C149.835 22.2529 150.412 21.1026 151.475 20.7525C152.538 20.4025 153.689 20.9833 154.042 22.0473L160.789 42.3925C161.028 43.1114 161.804 43.5031 162.522 43.2666C163.241 43.0301 163.63 42.2543 163.392 41.5354L158.015 25.3224C157.677 24.3045 158.23 23.2038 159.247 22.8689C160.264 22.534 161.365 23.0897 161.703 24.1077L165.669 36.0675C165.876 36.6915 166.553 37.0331 167.177 36.8278C167.8 36.6225 168.14 35.946 167.933 35.322L165.776 28.8201C165.528 28.0696 165.934 27.2594 166.687 27.0115C167.436 26.7646 168.248 27.1736 168.497 27.9242L169.152 29.8998L171.271 29.2016L171.367 29.4891L168.96 30.2819L168.209 28.0188C168.013 27.4264 167.374 27.1042 166.782 27.2991C166.19 27.494 165.868 28.136 166.064 28.7255L168.22 35.2274C168.479 36.0096 168.053 36.858 167.272 37.1153C166.491 37.3727 165.641 36.9443 165.382 36.1621L161.416 24.2023C161.131 23.3425 160.201 22.8736 159.342 23.1564C158.483 23.4393 158.017 24.368 158.302 25.2278L163.679 41.4408C163.97 42.3178 163.494 43.2656 162.618 43.5542C161.742 43.8427 160.793 43.3642 160.502 42.4871L153.755 22.1419C153.455 21.2361 152.475 20.7421 151.57 21.0401C150.666 21.3381 150.174 22.3165 150.475 23.2223L157.253 43.6625C157.531 44.4897 157.08 45.3878 156.25 45.6612Z" fill="#FEDEA5"/>
<path d="M113.419 -0.693978L112.535 -3.35934L110.674 -1.26949L113.419 -0.693978Z" fill="#263238"/>
<path d="M109.863 -2.54818L109.444 -2.41014L110.346 0.311589L110.765 0.173547L109.863 -2.54818Z" fill="#263238"/>
<path d="M117.93 -7.95551C115.972 -7.31037 114.914 -5.19809 115.563 -3.23992C116.214 -1.27887 118.328 -0.214739 120.284 -0.858928C122.243 -1.50406 123.301 -3.61634 122.651 -5.57451C122.001 -7.53556 119.889 -8.60064 117.93 -7.95551ZM119.225 -2.37264L118.17 -2.02548L116.93 -5.76642L117.984 -6.11359L119.225 -2.37264ZM121.284 -3.05089L120.23 -2.70372L118.989 -6.44467L120.043 -6.79183L121.284 -3.05089Z" fill="#263238"/>
<path d="M157.738 12.2148C157.5 12.2933 157.244 12.1641 157.165 11.9255L155.874 8.03106C155.795 7.79251 155.923 7.5366 156.161 7.45813C156.399 7.37966 156.655 7.50888 156.735 7.74743L158.026 11.6419C158.104 11.8775 157.976 12.1363 157.738 12.2148Z" fill="#FFDB9D"/>
<path d="M156.156 12.1656C155.918 12.244 155.662 12.1148 155.583 11.8763L154.633 9.01065C154.554 8.77209 154.682 8.51617 154.92 8.43769C155.158 8.35922 155.414 8.48845 155.494 8.72701L156.444 11.5926C156.523 11.8312 156.394 12.0871 156.156 12.1656Z" fill="#FFDB9D"/>
<path d="M154.745 12.6307C154.507 12.7091 154.251 12.5799 154.172 12.3413L153.222 9.47574C153.143 9.23717 153.271 8.98125 153.51 8.90278C153.748 8.82431 154.004 8.95353 154.083 9.19209L155.033 12.0577C155.112 12.2963 154.984 12.5522 154.745 12.6307Z" fill="#FFDB9D"/>
<path d="M171.672 7.04924C171.434 7.12771 171.177 6.99849 171.098 6.75992L170.148 3.89432C170.069 3.65575 170.198 3.39983 170.436 3.32136C170.674 3.24288 170.93 3.37211 171.009 3.61067L171.959 6.47628C172.038 6.71484 171.91 6.97076 171.672 7.04924Z" fill="#FFDB9D"/>
<path d="M170.261 7.51431C170.022 7.59279 169.766 7.46356 169.687 7.225L168.737 4.35939C168.658 4.12083 168.786 3.86491 169.025 3.78643C169.263 3.70796 169.519 3.83719 169.598 4.07575L170.548 6.94136C170.627 7.17992 170.499 7.43584 170.261 7.51431Z" fill="#FFDB9D"/>
<path d="M159.149 11.7492C158.911 11.8277 158.655 11.6985 158.576 11.4599L157.285 7.56549C157.206 7.32694 157.334 7.07102 157.572 6.99255C157.81 6.91408 158.067 7.0433 158.146 7.28186L159.437 11.1763C159.515 11.412 159.384 11.6717 159.149 11.7492Z" fill="#FFDB9D"/>
<path d="M160.784 11.9688C160.545 12.0472 160.289 11.918 160.21 11.6795L158.465 6.41423C158.386 6.17568 158.515 5.91978 158.753 5.84131C158.991 5.76284 159.247 5.89206 159.326 6.13061L161.071 11.3958C161.15 11.6344 161.022 11.8903 160.784 11.9688Z" fill="#FFDB9D"/>
<path d="M162.553 12.5845C162.315 12.6629 162.059 12.5337 161.98 12.2952L159.519 4.87177C159.44 4.63323 159.569 4.37733 159.807 4.29887C160.045 4.2204 160.301 4.34961 160.38 4.58815L162.84 12.0116C162.918 12.2472 162.791 12.506 162.553 12.5845Z" fill="#FFDB9D"/>
<path d="M169.023 8.49319C168.785 8.57166 168.529 8.44243 168.45 8.20388L167.159 4.30944C167.08 4.07089 167.208 3.81498 167.447 3.73651C167.685 3.65804 167.941 3.78726 168.02 4.02581L169.311 7.92025C169.389 8.15593 169.259 8.41566 169.023 8.49319Z" fill="#FFDB9D"/>
<path d="M167.612 8.95876C167.374 9.03723 167.118 8.90801 167.038 8.66946L165.747 4.77502C165.668 4.53647 165.797 4.28056 166.035 4.20209C166.273 4.12362 166.529 4.25284 166.608 4.49139L167.899 8.38583C167.977 8.62151 167.85 8.88029 167.612 8.95876Z" fill="#FFDB9D"/>
<path d="M166.428 10.108C166.189 10.1864 165.933 10.0572 165.854 9.81866L164.109 4.55342C164.03 4.31488 164.158 4.05897 164.397 3.9805C164.635 3.90203 164.891 4.03125 164.97 4.2698L166.715 9.53504C166.794 9.77358 166.666 10.0295 166.428 10.108Z" fill="#FFDB9D"/>
<path d="M165.375 11.6538C165.136 11.7323 164.88 11.6031 164.801 11.3645L162.341 3.9411C162.262 3.70256 162.39 3.44667 162.629 3.3682C162.867 3.28974 163.123 3.41895 163.202 3.65749L165.662 11.0809C165.74 11.3166 165.613 11.5753 165.375 11.6538Z" fill="#FFDB9D"/>
<path d="M164.418 13.4895C164.18 13.5679 163.924 13.4387 163.845 13.2002L160.475 3.03234C160.396 2.79381 160.524 2.53792 160.762 2.45945C161.001 2.38099 161.256 2.5102 161.336 2.74873L164.705 12.9166C164.784 13.1551 164.656 13.411 164.418 13.4895Z" fill="#FFDB9D"/>
<path d="M78.2973 27.5379C77.4193 26.1108 75.6485 25.4403 74.0343 25.9719C72.4085 26.5074 71.3797 28.1223 71.553 29.807C69.9623 30.6116 69.1677 32.4907 69.7391 34.2135C70.339 36.0224 72.1879 37.0628 74.0432 36.6336L73.8747 35.9139C72.3956 36.2575 70.9188 35.4264 70.4399 33.9826C69.9592 32.5331 70.6884 30.9467 72.0969 30.3712L72.3717 30.2583L72.3185 29.9632C72.0569 28.5405 72.894 27.1259 74.267 26.6737C75.6428 26.2205 77.162 26.8623 77.8018 28.1669L77.9603 28.4911L78.2868 28.3421C78.3864 28.2965 78.4869 28.2538 78.5903 28.2198C80.1184 27.7165 81.7723 28.5531 82.2788 30.0802C82.7862 31.6103 81.9545 33.2623 80.4293 33.7647L80.6621 34.4664C82.575 33.8363 83.6149 31.7648 82.9796 29.8494C82.3396 27.9101 80.2189 26.8476 78.2973 27.5379Z" fill="#4A5161"/>
<path d="M78.0794 30.7238C78.0431 30.6146 77.9562 30.5252 77.8452 30.4884C77.7343 30.4516 77.6127 30.4693 77.517 30.5359L74.2009 32.84C74.0659 32.9323 74.0112 33.1034 74.0627 33.2587L75.4615 37.4765C75.3257 37.4702 75.1841 37.485 75.0491 37.5295C74.4518 37.7262 74.1277 38.3719 74.326 38.9699C74.5244 39.568 75.1708 39.894 75.7681 39.6973C76.3338 39.511 76.6483 38.9227 76.514 38.3546L76.5255 38.3508L75.4584 35.1335L78.1463 33.2691L78.7643 35.1322C78.6313 35.125 78.4935 35.1417 78.3585 35.1861C77.7612 35.3828 77.4371 36.0286 77.6354 36.6266C77.8338 37.2246 78.4802 37.5507 79.0775 37.354C79.6748 37.1573 79.9989 36.5115 79.8006 35.9135C79.7987 35.9078 79.7939 35.9029 79.792 35.8972L78.0765 30.7248L78.0794 30.7238ZM77.9022 32.5331L75.2153 34.4003L74.8463 33.2876L77.5342 31.4232L77.9022 32.5331Z" fill="#4A5161"/>
<path d="M107.839 14.5267C107.706 14.1269 108.109 13.5159 107.932 13.1466C107.749 12.7697 107.02 12.7035 106.792 12.3609C106.562 12.0124 106.792 11.3146 106.524 11.0043C106.25 10.6892 105.528 10.8155 105.22 10.5404C104.908 10.2635 104.952 9.53134 104.607 9.29732C104.262 9.0633 103.6 9.37365 103.229 9.18644C102.858 8.99922 102.712 8.28162 102.319 8.14314C101.93 8.00659 101.366 8.47625 100.958 8.39035C100.554 8.30639 100.225 7.64932 99.8096 7.617C99.3982 7.58662 98.9794 8.18706 98.5631 8.2093C98.1535 8.23253 97.6651 7.68203 97.2545 7.75982C96.8525 7.83478 96.604 8.52589 96.2048 8.65734C95.8056 8.78878 95.1936 8.38425 94.825 8.55985C94.4488 8.74117 94.3848 9.47036 94.043 9.69777C93.6954 9.92707 92.9971 9.69449 92.6877 9.96224C92.3736 10.2347 92.502 10.958 92.228 11.2652C91.9521 11.5761 91.2201 11.5301 90.9872 11.8747C90.7543 12.2193 91.0665 12.8821 90.8805 13.2528C90.6945 13.6234 89.9776 13.767 89.8403 14.1599C89.705 14.549 90.1762 15.1147 90.0915 15.5222C90.0088 15.9258 89.353 16.2534 89.3219 16.6688C89.2928 17.0803 89.8943 17.501 89.9178 17.9176C89.9422 18.3274 89.3934 18.8143 89.4724 19.2253C89.5514 19.6267 90.2401 19.8784 90.3727 20.2782C90.5053 20.6779 90.1027 21.2889 90.2794 21.6582C90.4618 22.0351 91.1909 22.1013 91.4192 22.4439C91.6495 22.7924 91.4191 23.4903 91.6876 23.8005C91.961 24.1156 92.6836 23.9893 92.9914 24.2644C93.3031 24.5413 93.2593 25.2735 93.6045 25.5075C93.9497 25.7415 94.6112 25.4312 94.9823 25.6184C95.3534 25.8056 95.4991 26.5232 95.8922 26.6617C96.2815 26.7982 96.8456 26.3286 97.2532 26.4145C97.6569 26.4984 97.9864 27.1555 98.4016 27.1878C98.8131 27.2182 99.2319 26.6178 99.6482 26.5955C100.058 26.5723 100.546 27.1228 100.957 27.045C101.358 26.9672 101.607 26.2789 102.006 26.1475C102.406 26.016 103.018 26.4206 103.386 26.245C103.762 26.0636 103.826 25.3344 104.168 25.107C104.516 24.8777 105.214 25.1103 105.524 24.8426C105.838 24.5701 105.709 23.8468 105.983 23.5397C106.259 23.2287 106.991 23.2747 107.224 22.9301C107.457 22.5855 107.145 21.9227 107.331 21.552C107.517 21.1814 108.234 21.0378 108.371 20.6449C108.506 20.2558 108.035 19.6901 108.12 19.2826C108.202 18.879 108.858 18.5514 108.889 18.136C108.918 17.7245 108.317 17.3038 108.293 16.8872C108.269 16.4774 108.818 15.9905 108.739 15.5795C108.662 15.1742 107.971 14.9264 107.839 14.5267Z" fill="#4A5161"/>
<path d="M101.056 27.1742C101.033 27.1818 101.009 27.1865 100.985 27.1912C100.716 27.2418 100.451 27.0961 100.196 26.9534C100.005 26.8474 99.8099 26.7393 99.6596 26.7474C99.5036 26.7573 99.3179 26.8886 99.1378 27.0181C98.9042 27.1875 98.659 27.3608 98.3911 27.3405C98.1193 27.3184 97.9004 27.1097 97.693 26.9069C97.5372 26.7541 97.3737 26.5974 97.2225 26.5642C97.0714 26.5311 96.8589 26.6106 96.6521 26.6883C96.3802 26.7906 96.0997 26.8957 95.8434 26.8047C95.587 26.7136 95.4313 26.4555 95.2823 26.2079C95.1686 26.0189 95.053 25.8241 94.9153 25.7546C94.7776 25.6851 94.5527 25.7081 94.3335 25.7293C94.0436 25.7578 93.744 25.7862 93.5183 25.6341C93.2927 25.4819 93.2097 25.1934 93.1296 24.9136C93.0686 24.7008 93.0057 24.4823 92.8891 24.3803C92.7753 24.2774 92.5504 24.243 92.3342 24.2058C92.0472 24.1567 91.7477 24.1086 91.5709 23.9021C91.3951 23.6984 91.3877 23.3978 91.3842 23.1087C91.3806 22.8866 91.3751 22.6587 91.2901 22.5273C91.207 22.4015 91.0004 22.3069 90.8052 22.218C90.5384 22.0953 90.262 21.9726 90.1436 21.7214C90.028 21.4787 90.0982 21.1908 90.1683 20.9126C90.2212 20.6974 90.2779 20.4746 90.2283 20.325C90.1787 20.1755 89.9999 20.0302 89.8287 19.8888C89.606 19.707 89.3736 19.5155 89.3251 19.254C89.2737 18.9838 89.4185 18.7192 89.5604 18.4652C89.6658 18.2741 89.7732 18.0793 89.7648 17.929C89.7544 17.7729 89.6225 17.5866 89.4935 17.409C89.3235 17.1748 89.1496 16.929 89.169 16.661C89.1903 16.3892 89.3982 16.1709 89.6003 15.964C89.7526 15.8085 89.9088 15.6455 89.9415 15.4943C89.9742 15.3432 89.894 15.1304 89.8158 14.9233C89.7127 14.651 89.6068 14.3701 89.697 14.1139C89.7872 13.8577 90.0448 13.7027 90.2918 13.5544C90.4804 13.4412 90.6748 13.3262 90.7439 13.1886C90.8129 13.0511 90.7892 12.826 90.7674 12.6067C90.7381 12.3165 90.7087 12.0168 90.8611 11.7943C91.0125 11.569 91.3006 11.4869 91.5801 11.4076C91.7926 11.3472 92.0109 11.2849 92.1124 11.1685C92.2149 11.055 92.2487 10.8302 92.2853 10.614C92.3334 10.327 92.3806 10.0276 92.5865 9.85132C92.7896 9.67601 93.0901 9.66956 93.379 9.66691C93.6011 9.66397 93.8288 9.65915 93.96 9.57449C94.0854 9.49171 94.1794 9.28532 94.2677 9.09039C94.3895 8.8238 94.5113 8.54763 94.7592 8.43089C95.0015 8.31604 95.2894 8.38709 95.5678 8.4581C95.7831 8.51162 96.006 8.569 96.1553 8.51983C96.3046 8.47065 96.4493 8.29223 96.5901 8.12144C96.7712 7.89913 96.9619 7.66728 97.2232 7.61952C97.4931 7.56892 97.758 7.71454 98.0153 7.8563C98.2065 7.96238 98.4016 8.07038 98.5519 8.06238C98.7079 8.05248 98.8936 7.92112 99.0708 7.79261C99.3045 7.62316 99.5496 7.44992 99.8175 7.47015C100.089 7.49231 100.308 7.70093 100.516 7.90376C100.671 8.0566 100.835 8.2133 100.986 8.24646C101.137 8.27962 101.353 8.19912 101.557 8.12241C101.828 8.02012 102.109 7.915 102.365 8.00602C102.622 8.09704 102.777 8.35518 102.927 8.60564C103.041 8.79469 103.157 8.98949 103.294 9.05897C103.432 9.12845 103.657 9.10543 103.876 9.0843C104.166 9.0558 104.466 9.02733 104.691 9.1795C104.917 9.33166 105 9.62014 105.08 9.89999C105.141 10.1128 105.204 10.3313 105.321 10.4332C105.434 10.5361 105.659 10.5705 105.875 10.6078C106.162 10.6568 106.462 10.7049 106.639 10.9115C106.815 11.1151 106.822 11.4157 106.825 11.7048C106.829 11.9269 106.834 12.1548 106.92 12.2863C107.003 12.412 107.209 12.5067 107.404 12.5956C107.671 12.7182 107.948 12.8409 108.065 13.0893C108.181 13.332 108.11 13.6198 108.04 13.8981C107.987 14.1133 107.931 14.3361 107.98 14.4857C108.03 14.6352 108.209 14.7805 108.38 14.9219C108.603 15.1037 108.835 15.2951 108.884 15.5567C108.935 15.8268 108.79 16.0914 108.649 16.3484C108.544 16.5394 108.433 16.7352 108.445 16.8846C108.455 17.0407 108.587 17.2269 108.717 17.4074C108.887 17.6417 109.061 17.8874 109.042 18.1554C109.02 18.4272 108.812 18.6456 108.61 18.8525C108.458 19.0079 108.302 19.171 108.269 19.3221C108.236 19.4732 108.317 19.686 108.395 19.8931C108.498 20.1654 108.604 20.4463 108.514 20.7025C108.423 20.9587 108.166 21.1137 107.916 21.263C107.727 21.3761 107.533 21.4912 107.464 21.6287C107.395 21.7663 107.418 21.9914 107.44 22.2107C107.47 22.5009 107.499 22.8006 107.348 23.0259C107.195 23.2483 106.908 23.3333 106.628 23.4126C106.416 23.473 106.198 23.5353 106.096 23.6517C105.994 23.7652 105.96 23.99 105.923 24.2062C105.875 24.4932 105.828 24.7927 105.622 24.9689C105.419 25.1442 105.119 25.1507 104.83 25.1533C104.608 25.1563 104.383 25.1601 104.249 25.2458C104.123 25.3285 104.029 25.5349 103.941 25.7299C103.819 25.9965 103.697 26.2726 103.447 26.3903C103.208 26.5071 102.916 26.4341 102.638 26.3631C102.423 26.3096 102.2 26.2522 102.05 26.3014C101.901 26.3505 101.756 26.529 101.616 26.6997C101.453 26.8905 101.283 27.0995 101.056 27.1742ZM99.4589 26.4785C99.5164 26.4596 99.5757 26.4464 99.6379 26.4419C99.8753 26.4275 100.113 26.5596 100.34 26.686C100.548 26.8026 100.766 26.9222 100.927 26.8913C101.082 26.8594 101.235 26.6752 101.384 26.492C101.552 26.2869 101.727 26.0761 101.96 25.9995C102.192 25.9229 102.46 25.9909 102.717 26.0533C102.942 26.1097 103.179 26.169 103.322 26.1026C103.471 26.0314 103.572 25.8069 103.671 25.589C103.778 25.353 103.89 25.1055 104.089 24.9761C104.293 24.842 104.566 24.8383 104.829 24.8346C105.063 24.8307 105.307 24.8269 105.429 24.7231C105.553 24.6154 105.593 24.3724 105.631 24.1399C105.672 23.8807 105.714 23.6147 105.874 23.4345C106.034 23.2542 106.296 23.1777 106.549 23.1069C106.776 23.0418 107.012 22.9738 107.102 22.8421C107.194 22.7065 107.167 22.4633 107.144 22.2286C107.117 21.9662 107.092 21.6971 107.198 21.4802C107.304 21.2634 107.539 21.1255 107.765 20.9905C107.967 20.8697 108.177 20.7433 108.231 20.5913C108.283 20.4402 108.197 20.2101 108.114 19.9887C108.02 19.7423 107.925 19.4863 107.974 19.25C108.023 19.0138 108.211 18.8212 108.394 18.6333C108.561 18.4636 108.731 18.2863 108.741 18.1236C108.752 17.9637 108.609 17.765 108.473 17.5739C108.319 17.3598 108.159 17.1381 108.145 16.8939C108.13 16.6564 108.262 16.4186 108.387 16.1922C108.503 15.985 108.622 15.7672 108.591 15.6053C108.561 15.4491 108.374 15.2971 108.19 15.147C107.985 14.9787 107.773 14.8026 107.696 14.5697C107.619 14.3368 107.686 14.069 107.748 13.8127C107.803 13.587 107.862 13.3508 107.795 13.2069C107.723 13.0583 107.499 12.9568 107.281 12.8564C107.044 12.7492 106.797 12.6362 106.667 12.4365C106.532 12.2321 106.528 11.9592 106.523 11.696C106.518 11.4614 106.514 11.2173 106.41 11.0953C106.302 10.9714 106.059 10.9302 105.826 10.8919C105.567 10.8497 105.301 10.8065 105.12 10.6459C104.94 10.4853 104.862 10.2236 104.791 9.96966C104.725 9.74252 104.656 9.50675 104.524 9.41623C104.39 9.32666 104.146 9.3496 103.911 9.37258C103.649 9.39833 103.38 9.42308 103.163 9.31595C102.949 9.20786 102.807 8.97371 102.672 8.74724C102.55 8.54476 102.423 8.3346 102.271 8.27942C102.12 8.22712 101.89 8.31234 101.669 8.39473C101.422 8.48563 101.168 8.58224 100.931 8.53246C100.695 8.48269 100.502 8.29428 100.314 8.11067C100.143 7.94341 99.9655 7.7723 99.8029 7.76207C99.6431 7.75089 99.4449 7.89272 99.2543 8.02884C99.0407 8.1821 98.8195 8.34107 98.5755 8.35444C98.3382 8.3688 98.1 8.23669 97.8734 8.11036C97.6659 7.99369 97.4478 7.87411 97.286 7.90504C97.13 7.93409 96.9787 8.1211 96.8292 8.3043C96.6615 8.50943 96.4871 8.72316 96.2545 8.79976C96.0219 8.87636 95.754 8.80826 95.4967 8.74308C95.2709 8.68665 95.0346 8.62729 94.891 8.69372C94.7426 8.76492 94.6419 8.98947 94.5422 9.20733C94.4357 9.44335 94.3235 9.69083 94.1243 9.82022C93.9204 9.95437 93.6476 9.95805 93.3845 9.96177C93.15 9.96561 92.906 9.96941 92.7844 10.0733C92.6608 10.1809 92.6204 10.4239 92.5828 10.6564C92.5414 10.9156 92.499 11.1816 92.339 11.3619C92.179 11.5422 91.9168 11.6158 91.6641 11.6894C91.4372 11.7545 91.2017 11.8225 91.1116 11.9543C91.0225 12.0889 91.0462 12.3331 91.0699 12.5677C91.0964 12.8301 91.1219 13.0992 91.0155 13.3161C90.909 13.533 90.6745 13.6708 90.4485 13.8058C90.2464 13.9266 90.0367 14.0531 89.982 14.205C89.9302 14.3561 90.0161 14.5862 90.0991 14.8077C90.1907 15.055 90.2881 15.31 90.239 15.5463C90.19 15.7825 90.0022 15.9752 89.8192 16.163C89.6526 16.3327 89.482 16.5101 89.4723 16.6728C89.4616 16.8326 89.604 17.0313 89.7406 17.2224C89.8945 17.4365 90.054 17.6583 90.0681 17.9024C90.0832 18.1399 89.9519 18.3777 89.8263 18.6041C89.7103 18.8114 89.5914 19.0291 89.6228 19.1911C89.6523 19.3472 89.8397 19.4992 90.0232 19.6493C90.2288 19.8177 90.4401 19.9937 90.5174 20.2266C90.5946 20.4596 90.5274 20.7273 90.4659 20.9836C90.4101 21.2093 90.3515 21.4455 90.4183 21.5894C90.49 21.7381 90.7157 21.8424 90.9328 21.9399C91.169 22.0472 91.4168 22.1602 91.5467 22.3598C91.6814 22.5643 91.6859 22.8371 91.6904 23.1004C91.695 23.3349 91.6995 23.5791 91.8037 23.7011C91.9117 23.825 92.1547 23.8662 92.3872 23.9044C92.6464 23.9467 92.9124 23.9899 93.0931 24.1505C93.2738 24.311 93.351 24.5727 93.4225 24.8267C93.4883 25.0538 93.557 25.2896 93.6889 25.3801C93.8247 25.4726 94.0678 25.4467 94.3023 25.4238C94.5645 25.398 94.8334 25.3733 95.0505 25.4804C95.2676 25.5875 95.4061 25.8226 95.5418 26.0491C95.6631 26.2516 95.7902 26.4617 95.9422 26.5169C96.0934 26.5692 96.3231 26.484 96.5443 26.4016C96.7903 26.3078 97.0459 26.2141 97.2822 26.2639C97.5185 26.3136 97.7116 26.5021 97.8999 26.6857C98.0701 26.8529 98.2479 27.024 98.4105 27.0343C98.5703 27.0454 98.7657 26.9046 98.9591 26.7675C99.1191 26.6542 99.2838 26.5362 99.4589 26.4785Z" fill="#4A5161"/>
<path d="M95.232 21.7927C95.1229 21.8286 94.9956 21.8003 94.9134 21.7062C94.5406 21.293 94.2157 20.8321 93.9492 20.336C92.312 17.2732 93.2652 13.5679 96.0698 12.0732C98.8744 10.5786 102.487 11.8552 104.124 14.918C104.218 15.0945 104.306 15.2759 104.383 15.4581C104.45 15.6116 104.378 15.7884 104.224 15.8548C104.067 15.9193 103.894 15.8487 103.827 15.6952C103.757 15.5302 103.677 15.3652 103.591 15.2021C102.112 12.4348 98.868 11.2698 96.3554 12.6077C93.8457 13.9446 93.004 17.2846 94.4826 20.0519C94.7252 20.5048 95.0214 20.9273 95.3589 21.3011C95.4707 21.427 95.4638 21.6175 95.3383 21.729C95.3105 21.7605 95.2722 21.7794 95.232 21.7927Z" fill="white"/>
<path d="M95.2799 21.9366C95.1104 21.9924 94.922 21.9428 94.8015 21.8102C94.4191 21.3874 94.0876 20.9159 93.8172 20.4083C93.0092 18.8942 92.787 17.1776 93.2001 15.5803C93.6114 13.9773 94.6061 12.6831 96.0012 11.9429C97.3954 11.1998 99.0233 11.0944 100.587 11.6485C102.146 12.2005 103.45 13.3375 104.258 14.8517C104.353 15.0311 104.443 15.2182 104.524 15.4023C104.622 15.6316 104.516 15.8992 104.285 15.9978C104.047 16.0984 103.788 15.9891 103.689 15.757C103.62 15.5978 103.544 15.4347 103.46 15.2774C102.022 12.5859 98.867 11.449 96.4301 12.746C93.9932 14.043 93.1812 17.2902 94.6196 19.9846C94.8565 20.4298 95.1451 20.8388 95.4768 21.205C95.6441 21.3924 95.6304 21.6776 95.4475 21.8463C95.3967 21.8854 95.3402 21.9168 95.2799 21.9366ZM96.9573 11.8577C96.6788 11.9495 96.4049 12.0652 96.1426 12.2058C94.8241 12.908 93.883 14.1335 93.492 15.6533C93.0999 17.1798 93.3117 18.8169 94.0844 20.2629C94.3442 20.7485 94.6605 21.2026 95.0266 21.6053C95.0811 21.6639 95.1797 21.6729 95.24 21.6148C95.3013 21.5595 95.3072 21.4618 95.2489 21.4013C94.9019 21.0179 94.5989 20.5848 94.3496 20.1214C92.8309 17.2811 93.6996 13.8494 96.282 12.4725C98.8654 11.0986 102.204 12.2898 103.72 15.131C103.81 15.296 103.889 15.4677 103.961 15.6356C103.993 15.7142 104.08 15.7462 104.163 15.7159C104.199 15.7007 104.228 15.6721 104.24 15.6329C104.256 15.5956 104.256 15.5544 104.24 15.518C104.166 15.3415 104.078 15.1631 103.986 14.9923C103.213 13.5434 101.967 12.4574 100.48 11.9324C99.2985 11.5111 98.0746 11.4898 96.9573 11.8577Z" fill="#263238"/>
<path d="M128.205 56.7862C128.205 56.7862 138.924 50.0787 141.416 45.4299C141.416 45.4299 142.174 51.2417 145.044 53.487C147.914 55.7323 158.078 60.8267 159.928 61.918C161.778 63.0093 165.481 65.7903 166.214 65.4438C166.949 65.0964 167.91 60.9517 168.26 59.7707C168.612 58.5926 169.575 57.5988 169.228 55.9076C168.879 54.2134 167.889 54.4344 167.666 55.0405C167.443 55.6466 165.961 57.7968 164.845 58.5888C163.728 59.3809 162.53 60.2732 162.53 60.2732C162.53 60.2732 158.146 57.1419 154.258 53.104C150.37 49.0661 144.993 40.8478 143.624 39.2759C142.254 37.7078 140.914 37.5109 139.478 37.9838C138.042 38.4567 133.446 39.97 126.581 46.1646C119.715 52.3592 121.147 55.716 122.328 56.7117C123.507 57.7112 125.773 58.1359 128.205 56.7862Z" fill="#4592D0"/>
<path d="M166.237 65.6017C165.64 65.7984 164.068 64.804 161.758 63.2771C161.047 62.8061 160.374 62.361 159.852 62.0544C159.33 61.7479 158.143 61.1179 156.639 60.3209C152.809 58.2929 147.02 55.2287 144.955 53.6119C142.494 51.688 141.573 47.2888 141.334 45.8842C138.517 50.4838 128.711 56.6511 128.287 56.9185C128.284 56.9194 128.281 56.9204 128.28 56.9242C125.8 58.2957 123.457 57.8678 122.232 56.8356C121.927 56.5787 121.217 55.83 121.19 54.4225C121.16 52.8148 122.054 50.0572 126.482 46.0597C133.372 39.8413 137.933 38.3393 139.432 37.8456C141.095 37.298 142.466 37.7238 143.74 39.1833C144.202 39.7108 145.101 40.9715 146.242 42.5674C148.58 45.8398 151.782 50.3172 154.369 53.0066C157.898 56.6744 161.887 59.6231 162.53 60.0911C162.829 59.8682 163.827 59.1312 164.758 58.4705C165.853 57.6918 167.317 55.554 167.525 54.9909C167.653 54.6458 167.977 54.424 168.317 54.4494C168.553 54.4675 169.124 54.6431 169.379 55.8831C169.633 57.1202 169.225 57.9821 168.827 58.8116C168.664 59.1556 168.51 59.4776 168.407 59.8209C168.341 60.0437 168.251 60.3765 168.145 60.7686C167.509 63.1443 166.886 65.2989 166.279 65.5846C166.266 65.5922 166.252 65.597 166.237 65.6017ZM141.369 45.2888C141.392 45.2813 141.419 45.2785 141.443 45.2834C141.508 45.2942 141.557 45.348 141.566 45.4122C141.572 45.4706 142.351 51.1896 145.136 53.3704C147.18 54.9718 152.954 58.0283 156.776 60.0525C158.283 60.8513 159.477 61.4823 160.004 61.7937C160.531 62.1051 161.208 62.552 161.923 63.025C163.428 64.0192 165.707 65.521 166.15 65.3112C166.682 65.0597 167.474 62.1063 167.854 60.689C167.962 60.293 168.051 59.9573 168.117 59.7345C168.226 59.3702 168.394 59.0214 168.553 58.685C168.929 57.8976 169.315 57.0844 169.081 55.946C168.932 55.2264 168.637 54.781 168.294 54.7537C168.091 54.7376 167.89 54.8804 167.809 55.0984C167.586 55.7016 166.092 57.8938 164.935 58.7183C163.832 59.5027 162.636 60.3912 162.623 60.4016C162.57 60.4416 162.5 60.4423 162.445 60.4028C162.4 60.373 158.005 57.2167 154.151 53.2154C151.547 50.5126 148.34 46.0207 145.995 42.7445C144.86 41.1563 143.962 39.9013 143.51 39.3834C142.309 38.0085 141.081 37.6215 139.524 38.1342C138.039 38.6231 133.525 40.11 126.681 46.2845C122.336 50.2039 121.458 52.8696 121.487 54.417C121.511 55.6981 122.148 56.3718 122.423 56.6037C123.568 57.5696 125.772 57.9605 128.125 56.6593C128.367 56.5061 138.851 49.8954 141.282 45.3622C141.302 45.3268 141.334 45.3002 141.369 45.2888ZM128.206 56.7889L128.209 56.7879L128.206 56.7889Z" fill="#263238"/>
<path d="M169.23 55.893C168.881 54.199 167.891 54.42 167.668 55.026C167.445 55.6321 165.964 57.7821 164.847 58.5741C163.73 59.3661 162.532 60.2583 162.532 60.2583C162.532 60.2583 159.117 57.8195 155.643 54.4719C155.15 56.4047 154.117 57.6508 153.321 58.3628C156.287 59.9573 159.051 61.3825 159.93 61.9031C161.78 62.9943 165.484 65.7751 166.216 65.4286C166.951 65.0812 167.912 60.9368 168.262 59.7559C168.617 58.5769 169.581 57.5861 169.23 55.893Z" fill="#FEDEA5"/>
<path d="M166.238 65.5837C165.64 65.7805 164.068 64.7861 161.759 63.2593C161.048 62.7883 160.375 62.3433 159.853 62.0367C159.331 61.7302 158.14 61.0983 156.632 60.2995C155.612 59.7583 154.446 59.1437 153.25 58.4974C153.207 58.4733 153.178 58.432 153.171 58.3832C153.164 58.3343 153.184 58.2865 153.22 58.2522C153.988 57.5622 155.011 56.3419 155.497 54.4368C155.511 54.3842 155.552 54.3451 155.601 54.329C155.654 54.3149 155.709 54.3285 155.748 54.3669C158.865 57.3694 161.968 59.6653 162.528 60.0744C162.826 59.8516 163.824 59.1146 164.755 58.454C165.851 57.6753 167.314 55.5377 167.523 54.9747C167.65 54.6296 167.975 54.4078 168.315 54.4331C168.55 54.4513 169.121 54.6269 169.376 55.8668C169.631 57.1037 169.222 57.9656 168.825 58.795C168.662 59.139 168.508 59.461 168.405 59.8043C168.338 60.0271 168.248 60.3599 168.143 60.752C167.507 63.1275 166.883 65.2819 166.277 65.5676C166.267 65.5743 166.252 65.579 166.238 65.5837ZM153.581 58.3312C154.712 58.938 155.806 59.5187 156.775 60.0291C158.286 60.8298 159.48 61.4608 160.007 61.7721C160.534 62.0835 161.211 62.5305 161.925 63.0034C163.431 63.9975 165.71 65.4993 166.153 65.2895C166.684 65.0379 167.476 62.0848 167.856 60.6675C167.964 60.2716 168.053 59.9359 168.12 59.7131C168.228 59.3488 168.396 59.0001 168.555 58.6637C168.931 57.8764 169.318 57.0632 169.083 55.9249C168.934 55.2053 168.64 54.7599 168.296 54.7327C168.093 54.7166 167.892 54.8593 167.812 55.0773C167.588 55.6805 166.095 57.8726 164.938 58.697C163.835 59.4814 162.638 60.3697 162.626 60.3802C162.572 60.4202 162.502 60.4209 162.448 60.3814C162.414 60.3573 159.108 57.985 155.727 54.7565C155.23 56.4739 154.322 57.6277 153.581 58.3312Z" fill="#263238"/>
<path d="M101.401 24.9982C101.401 24.9982 103.523 27.1799 103.943 27.9762C104.364 28.7724 103.545 29.5876 102.632 30.1209C101.72 30.6542 99.9917 30.6012 99.0316 32.8631C98.0715 35.1251 96.8253 44.0236 96.6584 45.4024C96.4943 46.7802 97.3805 47.5793 98.8291 46.7897C100.278 46.0001 102.596 39.1632 102.596 39.1632C102.596 39.1632 109.786 43.7271 110.86 44.8506C111.934 45.9769 112.467 48.2928 113.098 50.656C113.726 53.0202 114.493 56.503 117.503 58.5486C120.513 60.5941 125.186 59.9134 128.203 56.8146C131.219 53.7196 132.984 45.8781 130.346 43.79C127.709 41.6982 123.335 41.6774 121.305 39.5421C119.274 37.4067 119.224 35.8729 118.363 33.2762C117.501 30.6794 115.817 27.5211 115.817 27.5211C115.817 27.5211 121.37 24.0976 128.039 20.8395C130.357 19.706 127.925 17.4512 126.337 17.3519C124.346 17.226 116.832 20.6061 114.643 21.1036C111.484 21.8249 110.133 22.9748 109.595 23.6973C109.058 24.4197 108.38 25.4211 107.585 25.6065C106.789 25.7918 104.693 22.2748 104.693 22.2748C104.693 22.2748 103.222 24.6314 101.401 24.9982Z" fill="#F37630"/>
<path d="M124.359 59.3907C121.95 60.184 119.357 59.9915 117.42 58.6741C114.529 56.7104 113.68 53.4684 113.059 51.0986L112.791 50.077C112.234 47.9572 111.706 45.9525 110.754 44.9549C109.795 43.9468 103.753 40.0768 102.682 39.3927C102.294 40.5092 100.269 46.1776 98.9039 46.9206C98.183 47.3111 97.5323 47.3563 97.0752 47.0443C96.6267 46.739 96.4197 46.1341 96.5104 45.3802C96.6542 44.1717 97.913 35.1095 98.8923 32.7998C99.6357 31.0462 100.816 30.6385 101.762 30.3111C102.059 30.2099 102.336 30.1124 102.555 29.986C102.963 29.7464 104.26 28.9017 103.809 28.0421C103.405 27.2756 101.313 25.1189 101.29 25.0978C101.252 25.0593 101.239 24.9999 101.253 24.9473C101.27 24.8938 101.312 24.8547 101.368 24.8425C103.105 24.4906 104.55 22.2124 104.566 22.1914C104.593 22.1475 104.644 22.1209 104.695 22.1202C104.747 22.1223 104.796 22.1474 104.824 22.1925C105.827 23.8718 107.123 25.5504 107.553 25.4536C108.225 25.2993 108.842 24.4614 109.339 23.7904L109.477 23.6015C109.973 22.9372 111.298 21.7068 114.611 20.9507C115.432 20.7635 117.062 20.147 118.788 19.4926C121.737 18.3779 125.079 17.1145 126.347 17.1915C127.414 17.2581 128.903 18.2703 129.119 19.3538C129.212 19.8175 129.112 20.4757 128.106 20.9665C122.054 23.9228 116.862 27.0548 116.017 27.5693C116.339 28.1842 117.747 30.9326 118.507 33.2216C118.696 33.791 118.842 34.3009 118.986 34.7926C119.49 36.5311 119.853 37.7895 121.417 39.4309C122.449 40.5169 124.108 41.0425 125.863 41.6001C127.484 42.116 129.157 42.6464 130.441 43.6654C131.21 44.2736 131.668 45.3859 131.766 46.8816C131.985 50.232 130.437 54.7354 128.313 56.915C127.187 58.0831 125.807 58.9141 124.359 59.3907ZM102.552 39.0208C102.595 39.0066 102.642 39.0135 102.681 39.0356C102.975 39.2226 109.898 43.6227 110.972 44.749C111.979 45.8052 112.515 47.8454 113.083 50.0064L113.351 51.028C113.96 53.3509 114.794 56.5277 117.59 58.4268C120.571 60.4531 125.188 59.6985 128.097 56.715C130.136 54.6241 131.676 50.1359 131.464 46.9138C131.37 45.5063 130.953 44.4697 130.253 43.9155C129.013 42.933 127.365 42.4103 125.773 41.9041C123.979 41.3339 122.284 40.7948 121.198 39.6531C119.584 37.9579 119.192 36.6036 118.696 34.8881C118.553 34.3993 118.408 33.8923 118.221 33.3286C117.372 30.7721 115.702 27.6283 115.686 27.5986C115.65 27.5276 115.672 27.4406 115.741 27.3987C115.796 27.3645 121.376 23.9353 127.976 20.7095C128.645 20.3838 128.932 19.9514 128.828 19.4273C128.639 18.4817 127.275 17.5686 126.335 17.5083C125.131 17.4326 121.675 18.7395 118.899 19.7907C117.088 20.4764 115.523 21.0683 114.682 21.2592C111.46 21.9946 110.192 23.165 109.72 23.7958L109.581 23.9819C109.056 24.6939 108.403 25.5786 107.622 25.7592C106.838 25.9408 105.232 23.452 104.689 22.5624C104.304 23.1199 103.14 24.6544 101.687 25.085C102.215 25.6386 103.719 27.2328 104.074 27.9101C104.463 28.6498 103.954 29.5255 102.705 30.2556C102.462 30.3963 102.168 30.4994 101.86 30.6073C100.968 30.9138 99.8593 31.2979 99.1678 32.9292C98.2009 35.2093 96.9517 44.2237 96.806 45.4264C96.7298 46.0607 96.8872 46.5639 97.24 46.8018C97.6015 47.0465 98.1393 46.997 98.7549 46.6635C99.8616 46.063 101.656 41.4658 102.451 39.1209C102.472 39.0693 102.506 39.0359 102.552 39.0208Z" fill="#263238"/>
<path d="M117.956 19.988C117.761 20.0618 117.568 20.1347 117.381 20.2029C117.745 21.4349 118.568 23.3894 120.332 24.9066C120.515 24.805 120.705 24.6976 120.896 24.5903C119.128 23.1477 118.309 21.1789 117.956 19.988Z" fill="#263238"/>
<path d="M120.508 38.5911C120.383 38.425 120.267 38.2588 120.162 38.0956C116.137 40.4932 113.396 44.523 112.019 46.9324C112.11 47.1799 112.195 47.4359 112.281 47.7043C113.517 45.4371 116.299 41.078 120.508 38.5911Z" fill="#263238"/>
<path d="M110.041 44.1649C110.228 44.3074 110.397 44.4402 110.533 44.5547C111.404 42.848 113.786 39.032 119.025 35.4499C118.965 35.2495 118.904 35.0395 118.844 34.8296C113.45 38.4503 110.988 42.3148 110.041 44.1649Z" fill="#263238"/>
<path d="M102.596 35.996C103.589 35.5443 108.259 33.1772 113.873 26.2073C114.797 27.1188 115.576 27.7205 115.645 27.7744C115.726 27.8369 115.833 27.8527 115.925 27.8224C115.94 27.8177 115.956 27.8092 115.969 27.8016C115.882 27.6327 115.83 27.5348 115.83 27.5348C115.83 27.5348 115.92 27.4796 116.087 27.3769C116.067 27.3452 116.045 27.3174 116.014 27.2923C115.98 27.2654 112.736 24.7664 111.627 22.1545C111.436 22.2495 111.255 22.3474 111.093 22.4454C111.315 22.9528 111.606 23.4538 111.935 23.9291C107.843 29.648 102.774 32.2135 101.382 32.8379C100.991 32.1373 100.596 31.5909 100.284 31.2085C100.129 31.3266 99.9758 31.46 99.8282 31.6203C100.096 31.9565 100.434 32.429 100.775 33.025C100.298 32.7291 99.7728 32.5383 99.2599 32.4137C99.1832 32.557 99.1055 32.707 99.0364 32.8733C99.022 32.9068 99.0086 32.9431 98.9942 32.9766C99.9501 33.1883 100.96 33.6501 101.531 34.6205C101.731 35.1384 101.908 35.7088 102.04 36.3289C101.377 35.6731 100.206 34.8621 98.4573 34.8253C98.4122 35.0156 98.367 35.2156 98.3228 35.4184C100.977 35.3995 102.123 37.3384 102.19 37.4536C102.204 37.4747 102.219 37.492 102.237 37.5084C102.274 37.8408 102.298 38.1808 102.304 38.5361C101.535 37.9756 99.9558 37.0854 97.9399 37.2993C97.9024 37.5031 97.862 37.7079 97.8254 37.9145C100.192 37.5661 101.894 38.9327 102.299 39.3002C102.293 39.5606 102.291 39.8134 102.288 40.0633C102.487 39.5192 102.604 39.1712 102.604 39.1712C102.604 39.1712 102.713 39.2406 102.902 39.3601C102.904 39.2988 102.904 39.2413 102.906 39.1801C102.942 38.0101 102.815 36.9448 102.596 35.996ZM112.304 24.4458C112.669 24.9222 113.059 25.3681 113.445 25.7709C108.109 32.4096 103.549 34.8652 102.438 35.3969C102.359 35.1198 102.271 34.8552 102.181 34.6011C102.178 34.5637 102.167 34.5225 102.149 34.487C102.141 34.4736 102.134 34.4602 102.125 34.4438C101.979 34.0612 101.823 33.7044 101.66 33.3781C103.149 32.6996 108.194 30.11 112.304 24.4458Z" fill="#263238"/>
<path d="M122.828 40.621C122.624 40.5158 122.429 40.4078 122.242 40.2873C117.718 43.3599 114.715 47.5046 113.022 50.3724C113.047 50.4663 113.071 50.5603 113.096 50.6542C113.142 50.8306 113.191 51.0156 113.239 51.2006C114.857 48.345 117.961 43.835 122.828 40.621Z" fill="#263238"/>
<path d="M118.159 32.6749C118.091 32.4869 118.018 32.297 117.946 32.1071C110.705 34.9256 108.326 39.9054 107.562 42.4162C107.739 42.5366 107.912 42.6551 108.085 42.7707C108.738 40.4654 110.942 35.4887 118.159 32.6749Z" fill="#263238"/>
<path d="M121.74 18.5747C121.544 18.6456 121.348 18.7166 121.149 18.7885C121.384 20.0659 121.946 21.7493 123.238 23.3133C123.419 23.2154 123.603 23.1196 123.79 23.0198C122.5 21.4904 121.961 19.8089 121.74 18.5747Z" fill="#263238"/>
<path d="M113.896 21.307C114.592 22.6974 115.823 24.757 117.647 26.4458C117.82 26.3441 118.004 26.2358 118.196 26.1246C116.43 24.5317 115.208 22.5267 114.499 21.1496C114.294 21.2014 114.091 21.2523 113.896 21.307Z" fill="#263238"/>
<path d="M116.869 29.6288C116.78 29.4349 116.691 29.2536 116.608 29.0799C108.594 32.8359 105.58 37.7636 104.495 40.393C104.666 40.5057 104.844 40.6194 105.028 40.7409C106.055 38.255 108.99 33.3375 116.869 29.6288Z" fill="#263238"/>
<path d="M128.202 56.8057C130.698 54.2453 132.335 48.436 131.332 45.3244C131.117 44.7443 130.805 44.2634 130.384 43.9266C130.028 43.6418 129.643 43.354 129.24 43.0623C127.945 42.3658 126.431 41.949 125.015 41.4837C119.472 45.9599 115.993 52.4396 114.539 54.9917C115.182 56.3145 116.094 57.5838 117.5 58.5402C120.511 60.5858 125.184 59.9049 128.202 56.8057Z" fill="#4592D0"/>
<path d="M124.354 59.3804C121.944 60.1739 119.351 59.9815 117.413 58.664C116.147 57.8049 115.16 56.6243 114.401 55.056C114.38 55.0119 114.381 54.9573 114.405 54.9143L114.676 54.4358C116.298 51.5665 119.671 45.6005 124.918 41.3653C124.958 41.3329 125.009 41.3226 125.06 41.341C125.321 41.4273 125.584 41.5097 125.851 41.5941C127.026 41.9693 128.244 42.3562 129.311 42.9302C129.772 43.2633 130.148 43.5444 130.475 43.8099C130.901 44.1515 131.236 44.644 131.47 45.272C132.479 48.4009 130.881 54.2707 128.308 56.914C127.182 58.0726 125.801 58.9038 124.354 59.3804ZM114.709 54.996C115.44 56.478 116.381 57.5972 117.585 58.4129C120.567 60.4393 125.184 59.6844 128.093 56.7006C130.605 54.1221 132.165 48.4054 131.187 45.3685C130.975 44.7971 130.671 44.3516 130.289 44.0437C129.963 43.7839 129.593 43.5038 129.153 43.1832C128.125 42.6315 126.925 42.2485 125.76 41.879C125.521 41.8014 125.283 41.7268 125.047 41.6483C119.882 45.8435 116.548 51.7427 114.944 54.5805L114.709 54.996Z" fill="#4592D0"/>
<path d="M95.2426 20.6117C95.1211 20.6581 95.0081 20.7208 94.9047 20.8027C94.066 21.4521 94.1562 22.9723 95.1077 24.1993C96.0563 25.4273 97.5052 25.8973 98.3448 25.2508C98.522 25.1127 98.6551 24.9381 98.7501 24.7346L95.2426 20.6117Z" fill="white"/>
<path d="M97.9828 25.6098C97.6124 25.7318 97.1791 25.7215 96.7191 25.5732C96.0802 25.3658 95.4646 24.9116 94.985 24.2913C94.5064 23.674 94.2231 22.9636 94.1817 22.2916C94.1394 21.5975 94.3639 21.026 94.8101 20.6813C94.924 20.5928 95.0504 20.5224 95.1863 20.4713C95.2466 20.4514 95.3145 20.4642 95.3565 20.5141L98.8602 24.6352C98.8974 24.6803 98.906 24.7445 98.882 24.797C98.7717 25.0311 98.6223 25.2238 98.4346 25.3685C98.2977 25.4742 98.1464 25.5559 97.9828 25.6098ZM95.2012 20.7949C95.1275 20.8319 95.0615 20.8728 94.9983 20.9223C94.6335 21.2051 94.4521 21.6858 94.4878 22.2736C94.5245 22.8835 94.7888 23.5363 95.2292 24.1057C95.6696 24.675 96.2355 25.0946 96.817 25.2826C97.3802 25.4638 97.8912 25.4104 98.2531 25.1285C98.3795 25.0295 98.4877 24.9045 98.5711 24.7527L95.2012 20.7949Z" fill="#263238"/>
<path d="M95.2435 20.6118C95.122 20.6582 95.0091 20.7209 94.9057 20.8028C94.809 20.8761 94.7266 20.9638 94.6567 21.0602L98.2937 25.2867C98.3119 25.2743 98.331 25.2648 98.3482 25.2496C98.5254 25.1115 98.6585 24.9369 98.7534 24.7335L95.2435 20.6118Z" fill="white"/>
<path d="M98.3521 25.4166C98.2918 25.4365 98.2134 25.4304 98.1752 25.3824L94.5381 21.1559C94.4913 21.1012 94.4876 21.0227 94.5326 20.9664C94.6169 20.8557 94.7088 20.7585 94.8103 20.6804C94.9242 20.5919 95.0506 20.5215 95.1865 20.4704C95.2467 20.4506 95.3146 20.4633 95.3567 20.5132L98.8599 24.6339C98.8972 24.6791 98.9057 24.7432 98.8818 24.7958C98.7715 25.0298 98.6221 25.2225 98.4344 25.3672C98.4191 25.3786 98.4057 25.3862 98.3904 25.3977C98.377 25.4053 98.3665 25.4119 98.3521 25.4166ZM94.852 21.0557L98.3094 25.0767C98.4148 24.9815 98.4981 24.8775 98.5652 24.7533L95.1985 20.7949C95.1249 20.8319 95.0588 20.8728 94.9956 20.9223C94.9449 20.9613 94.8961 21.0061 94.852 21.0557Z" fill="#263238"/>
<path d="M102.947 14.8681C103.024 14.7631 103.113 14.6668 103.217 14.5878C104.056 13.9384 105.505 14.4084 106.453 15.6363C107.405 16.8633 107.495 18.3835 106.659 19.0319C106.482 19.17 106.277 19.2534 106.058 19.2937L102.947 14.8681Z" fill="white"/>
<path d="M106.305 19.3871C106.233 19.4108 106.159 19.4287 106.082 19.4446C106.024 19.454 105.966 19.4317 105.931 19.3828L102.82 14.9571C102.783 14.9053 102.782 14.8354 102.819 14.782C102.903 14.6617 103.006 14.5578 103.12 14.4692C104.022 13.7732 105.57 14.2522 106.569 15.5464C107.048 16.1637 107.334 16.8731 107.372 17.5461C107.415 18.2402 107.193 18.8107 106.747 19.1554C106.618 19.2554 106.471 19.3323 106.305 19.3871ZM106.119 19.1261C106.287 19.0837 106.435 19.0125 106.562 18.9135C106.926 18.6307 107.108 18.15 107.072 17.5622C107.034 16.9495 106.771 16.2995 106.331 15.7302C105.434 14.5713 104.075 14.1132 103.304 14.7083C103.241 14.7578 103.182 14.8121 103.13 14.8741L106.119 19.1261Z" fill="#263238"/>
<path d="M106.304 19.3869C106.232 19.4106 106.159 19.4285 106.081 19.4444C106.024 19.4538 105.966 19.4315 105.93 19.3826L102.82 14.9574C102.783 14.9056 102.783 14.8358 102.819 14.7823C102.903 14.6621 103.006 14.5582 103.12 14.4696C103.221 14.3916 103.336 14.3251 103.465 14.2729C103.532 14.2445 103.607 14.2678 103.649 14.3273L106.826 18.9058C106.87 18.971 106.86 19.0571 106.8 19.1057C106.773 19.1305 106.762 19.1438 106.745 19.1524C106.617 19.2552 106.471 19.3321 106.304 19.3869ZM106.119 19.1259C106.26 19.092 106.385 19.0351 106.497 18.96L103.472 14.6022C103.413 14.6345 103.355 14.6696 103.304 14.7087C103.241 14.7582 103.182 14.8125 103.13 14.8745L106.119 19.1259Z" fill="#263238"/>
<path d="M108.918 24.6162C108.524 25.0904 108.083 25.5069 107.597 25.6188C106.802 25.8041 104.706 22.2875 104.706 22.2875C104.706 22.2875 103.232 24.642 101.411 25.0088C101.411 25.0088 103.533 27.1903 103.953 27.9864C104.294 28.6301 103.82 29.2867 103.145 29.7961C103.867 30.7514 105.872 32.8213 108.716 31.0458C111.202 29.4966 109.94 26.3912 108.918 24.6162Z" fill="#FEDEA5"/>
<path d="M107.689 31.705C105.332 32.4813 103.678 30.7613 103.02 29.8904C102.996 29.8568 102.986 29.8185 102.989 29.7793C102.995 29.7391 103.015 29.7037 103.049 29.68C103.482 29.3524 104.157 28.7091 103.814 28.0597C103.41 27.2932 101.319 25.1368 101.296 25.1157C101.258 25.0772 101.244 25.0178 101.259 24.9652C101.276 24.9117 101.317 24.8726 101.374 24.8604C103.111 24.5085 104.556 22.2305 104.571 22.2095C104.598 22.1656 104.65 22.139 104.7 22.1383C104.752 22.1404 104.802 22.1655 104.829 22.2106C105.832 23.8897 107.128 25.5681 107.558 25.4713C107.933 25.3828 108.329 25.0801 108.796 24.5182C108.827 24.4791 108.875 24.4601 108.924 24.4632C108.973 24.4662 109.018 24.4961 109.041 24.5393C110.065 26.32 111.397 29.5463 108.787 31.1744C108.409 31.417 108.042 31.5887 107.689 31.705ZM103.355 29.8248C104.125 30.7927 106.012 32.554 108.632 30.9192C110.941 29.4794 109.844 26.5938 108.893 24.8785C108.576 25.238 108.136 25.6507 107.63 25.7664C106.846 25.948 105.24 23.4595 104.697 22.5699C104.312 23.1274 103.149 24.6618 101.696 25.0924C102.223 25.6459 103.727 27.24 104.082 27.9172C104.399 28.5177 104.138 29.1905 103.355 29.8248Z" fill="#FEDEA5"/>
<path d="M106.037 24.2728C105.707 23.8358 105.391 23.3721 105.15 23.0015C104.984 22.7979 104.819 22.5808 104.658 22.3628C104.405 22.7428 103.05 24.6819 101.405 25.0132C101.405 25.0132 102.122 25.7534 102.805 26.5269C103.55 26.505 104.555 26.3463 105.176 25.7112C105.569 25.3107 105.843 24.7833 106.037 24.2728Z" fill="#263238"/>
<path d="M104.213 26.4516C103.737 26.6086 103.232 26.663 102.813 26.6766C102.769 26.6784 102.724 26.6581 102.694 26.6264C102.021 25.8625 101.305 25.1252 101.299 25.1175C101.261 25.0791 101.247 25.0197 101.262 24.9671C101.279 24.9135 101.32 24.8744 101.377 24.8622C102.96 24.545 104.281 22.6518 104.533 22.2756C104.56 22.2345 104.606 22.2098 104.657 22.209C104.708 22.2083 104.754 22.2315 104.782 22.2699C104.952 22.5013 105.115 22.7155 105.269 22.9009C105.58 23.3789 105.884 23.8149 106.157 24.175C106.189 24.2153 106.195 24.2709 106.179 24.3206C105.941 24.9477 105.642 25.4482 105.291 25.8097C104.989 26.1196 104.61 26.3211 104.213 26.4516ZM102.875 26.3724C103.579 26.3446 104.504 26.1837 105.07 25.6048C105.378 25.2863 105.647 24.847 105.863 24.2973C105.532 23.8575 105.223 23.3976 105.021 23.0847C104.91 22.9521 104.788 22.7946 104.661 22.6255C104.247 23.2117 103.107 24.6816 101.694 25.099C101.946 25.3576 102.417 25.8564 102.875 26.3724Z" fill="#263238"/>
<path d="M95.1099 19.6176C95.1099 19.6176 97.4892 23.5067 98.5617 24.3974C99.6352 25.2909 102.601 25.7912 103.839 25.5397C105.077 25.2882 105.429 23.5361 105.734 22.1122C106.039 20.6882 105.922 19.6358 105.131 18.1835C104.338 16.732 102.613 14.5762 101.47 13.4727C100.729 12.7566 98.2954 12.5725 96.4946 13.7109C94.6938 14.8493 94.0147 17.4873 95.1099 19.6176Z" fill="#FEDEA5"/>
<path d="M104.048 25.6432C103.991 25.6622 103.932 25.6782 103.869 25.6894C102.529 25.9616 99.5565 25.4192 98.4668 24.5151C97.3857 23.6176 95.081 19.8571 94.9836 19.6979C94.9826 19.695 94.9788 19.6931 94.9769 19.6873C93.8655 17.5272 94.5112 14.7885 96.4145 13.5845C98.3024 12.3918 100.807 12.626 101.575 13.368C102.695 14.4475 104.445 16.614 105.265 18.1172C106.043 19.5388 106.208 20.6326 105.883 22.1494L105.865 22.2287C105.575 23.5839 105.217 25.2584 104.048 25.6432ZM95.2411 19.5429C95.3375 19.6993 97.6317 23.4282 98.6565 24.2804C99.664 25.1191 102.54 25.6486 103.805 25.3915C104.922 25.1673 105.28 23.4994 105.568 22.1605L105.586 22.0812C105.9 20.6256 105.746 19.6238 104.999 18.2558C104.193 16.7766 102.468 14.6466 101.366 13.5806C100.682 12.9222 98.3173 12.7346 96.5778 13.8369C94.8009 14.961 94.2032 17.5181 95.2411 19.5429Z" fill="#263238"/>
<path d="M100.365 20.6944C100.356 20.6972 100.347 20.7001 100.338 20.7C100.255 20.7112 100.18 20.6563 100.165 20.5748C100.164 20.5594 100.108 20.1912 100.366 19.8826C100.579 19.6305 100.931 19.4987 101.41 19.4911C101.492 19.4895 101.562 19.5559 101.565 19.6412C101.567 19.7236 101.498 19.7943 101.415 19.7959C101.028 19.802 100.753 19.8957 100.6 20.0772C100.43 20.2768 100.462 20.528 100.463 20.5309C100.478 20.6029 100.434 20.6717 100.365 20.6944Z" fill="#263238"/>
<path d="M101.346 22.2221C100.662 22.4473 100.064 22.3347 100.05 22.3299C99.9673 22.3123 99.9157 22.2335 99.9301 22.1522C99.9475 22.0699 100.026 22.0185 100.107 22.0332C100.196 22.0518 102.308 22.4416 102.9 19.8466C102.917 19.7643 103 19.7148 103.082 19.7324C103.164 19.7499 103.214 19.8325 103.197 19.9148C102.863 21.3874 102.058 21.9875 101.346 22.2221Z" fill="#263238"/>
<path d="M98.2096 21.2684C97.8847 21.3754 97.6415 21.3342 97.6213 21.3312C97.4585 21.3018 97.3485 21.1432 97.3765 20.9775C97.4054 20.8147 97.5607 20.7061 97.7225 20.7326C97.7599 20.7395 98.4304 20.8093 98.944 19.6948C99.015 19.5437 99.1933 19.4754 99.3446 19.547C99.4958 19.6185 99.5646 19.7971 99.4936 19.9482C99.1019 20.8053 98.5977 21.1406 98.2096 21.2684Z" fill="#263238"/>
<path d="M101.936 18.4323C101.64 18.5297 101.343 18.5668 101.114 18.5659C100.948 18.5662 100.81 18.4296 100.811 18.2601C100.811 18.0944 100.947 17.9571 101.113 17.9597C101.168 17.9609 102.457 17.9479 102.495 16.9942C102.499 16.8267 102.641 16.697 102.809 16.7025C102.976 16.7079 103.106 16.8502 103.101 17.0178C103.071 17.8288 102.508 18.2441 101.936 18.4323Z" fill="#263238"/>
<path d="M96.7896 20.0043C96.7149 20.0288 96.6327 19.9921 96.6021 19.9192C96.5878 19.8857 96.2508 19.0715 96.6142 18.3809C96.8357 17.9634 97.257 17.6875 97.8724 17.5646C97.9528 17.5477 98.0341 17.6007 98.0522 17.6841C98.0694 17.7646 98.0195 17.8448 97.9334 17.8636C97.4108 17.9687 97.0575 18.1903 96.882 18.5256C96.5848 19.0892 96.8769 19.7969 96.8798 19.8055C96.9122 19.8841 96.8777 19.9721 96.7992 20.0043C96.7982 20.0014 96.7925 20.0033 96.7896 20.0043Z" fill="#263238"/>
<path d="M99.6954 16.5566C99.6609 16.5679 99.6226 16.5678 99.5852 16.5513C99.5096 16.5156 99.4743 16.4282 99.5088 16.3497C99.5146 16.3383 100.118 15.0506 101.739 15.43C101.821 15.4475 101.871 15.5302 101.854 15.6125C101.836 15.6949 101.754 15.7444 101.671 15.7268C100.289 15.403 99.7894 16.4649 99.7836 16.4764C99.7654 16.5175 99.7328 16.5442 99.6954 16.5566Z" fill="#263238"/>
<path d="M93.2995 22.3951C93.2995 22.3951 93.8115 24.6402 94.2069 25.1317C94.6023 25.6232 97.1925 27.1072 97.7057 27.4834C98.2188 27.8596 98.3106 27.9059 98.0526 29.4704C97.7945 31.0349 94.8412 41.5797 95.3504 43.8257C95.8625 46.0708 96.6542 47.9878 98.8255 46.807C101 45.6253 100.396 39.3609 100.285 35.7404C100.173 32.12 99.8039 27.4937 99.5008 26.5796C99.1986 25.6684 95.4998 24.3646 95.0955 24.2013C94.694 24.037 94.1577 22.8904 93.949 22.2609C93.7412 21.6247 93.391 21.74 93.2995 22.3951Z" fill="#FEDEA5"/>
<path d="M98.3128 47.1951C97.8134 47.3596 97.3658 47.354 96.9758 47.1763C95.9788 46.7236 95.5204 45.2452 95.2054 43.8535C94.818 42.1477 96.3619 35.8582 97.2841 32.1012C97.5935 30.8355 97.8413 29.8355 97.9049 29.4415C98.1456 27.9879 98.0873 27.9465 97.6363 27.6137C97.4557 27.4818 97.0629 27.2382 96.606 26.955C95.6121 26.3386 94.3715 25.5739 94.0898 25.2235C93.6839 24.7195 93.2042 22.6582 93.1528 22.4265C93.1499 22.4083 93.1471 22.3901 93.15 22.37C93.2097 21.9549 93.3726 21.7068 93.5945 21.6847C93.715 21.6737 93.9397 21.7272 94.0979 22.2044C94.3496 22.9633 94.8659 23.9347 95.1565 24.0526C95.1976 24.071 95.2769 24.099 95.3859 24.1396C98.0942 25.1638 99.4495 25.9195 99.6497 26.5231C99.969 27.4861 100.33 32.1755 100.441 35.7262C100.457 36.1865 100.476 36.6871 100.501 37.2144C100.663 40.86 100.882 45.8513 98.9022 46.9276C98.6964 47.0464 98.4993 47.1336 98.3128 47.1951ZM93.4493 22.3894C93.5968 23.0263 94.0177 24.6605 94.3205 25.0359C94.5698 25.3459 95.8877 26.1617 96.7603 26.7001C97.241 26.9977 97.6176 27.2308 97.7905 27.3588C98.3868 27.7937 98.4536 27.9566 98.1985 29.4915C98.132 29.896 97.8832 30.9026 97.5729 32.1751C96.6583 35.9073 95.125 42.1518 95.4962 43.7896C95.7798 45.029 96.2143 46.5025 97.0975 46.9003C97.5506 47.105 98.092 47.0286 98.7533 46.6705C100.569 45.6835 100.35 40.8004 100.194 37.2362C100.17 36.705 100.147 36.2025 100.134 35.7412C100.015 31.8968 99.6372 27.4647 99.3579 26.6224C99.2454 26.2832 98.4447 25.6255 95.2747 24.4282C95.1647 24.3847 95.0816 24.3547 95.0376 24.3373C94.5481 24.1382 93.9948 22.8824 93.8023 22.3018C93.7175 22.0459 93.6314 21.9882 93.6123 21.9881C93.5941 21.9909 93.5003 22.0728 93.4493 22.3894Z" fill="#263238"/>
<path d="M100.282 35.7345C100.271 35.3746 100.257 35.0061 100.241 34.6318L96.8625 34.4401C95.9968 38.0514 95.0356 42.4597 95.347 43.8209C95.8593 46.0664 96.6513 47.9837 98.8231 46.8029C100.998 45.6211 100.395 39.3584 100.282 35.7345Z" fill="#F26F1F"/>
<path d="M98.3096 47.1954C97.81 47.3599 97.3624 47.3542 96.9722 47.1766C95.9749 46.7237 95.5164 45.245 95.2012 43.8531C94.8775 42.4257 95.9117 37.7765 96.7198 34.4041C96.7381 34.3343 96.8013 34.2848 96.8759 34.2889L100.254 34.4777C100.331 34.4809 100.393 34.5433 100.397 34.6218C100.413 34.9961 100.428 35.3675 100.439 35.7274C100.455 36.1879 100.474 36.6885 100.499 37.216C100.661 40.8622 100.881 45.8543 98.9001 46.9307C98.6934 47.0466 98.4962 47.1339 98.3096 47.1954ZM96.9818 34.5985C96.1861 37.9317 95.1874 42.4385 95.495 43.7882C95.7787 45.0279 96.2134 46.5016 97.0969 46.8995C97.5501 47.1042 98.0917 47.0279 98.7531 46.6698C100.569 45.6827 100.35 40.7987 100.193 37.2339C100.17 36.7026 100.147 36.2 100.134 35.7386C100.124 35.4228 100.113 35.1011 100.097 34.7747L96.9818 34.5985Z" fill="#263238"/>
<path d="M96.2544 37.0871C96.2496 37.111 96.2448 37.135 96.24 37.1589C96.2275 37.2173 96.214 37.2728 96.2015 37.3311C96.1736 37.4584 96.1486 37.5847 96.1198 37.7091C96.9459 37.6349 98.3828 37.567 100.366 37.6767C100.358 37.4688 100.348 37.2676 100.34 37.0693C98.4925 36.966 97.1169 37.0169 96.2544 37.0871Z" fill="#263238"/>
<path d="M99.998 45.0241C100.062 44.8049 100.118 44.5694 100.167 44.3234C98.2604 44.993 96.7247 45.1094 95.6774 45.0648C95.75 45.2836 95.8283 45.4909 95.9123 45.6867C96.9347 45.7042 98.3182 45.571 99.998 45.0241Z" fill="#263238"/>
<path d="M95.5081 40.9065C95.4985 40.9639 95.4888 41.0214 95.4821 41.0779C95.4734 41.1382 95.4628 41.2023 95.4541 41.2626C95.4397 41.3631 95.429 41.456 95.4165 41.5527C96.5856 41.2921 98.4037 41.0381 100.441 41.2897C100.444 41.0876 100.446 40.8826 100.445 40.6786C98.4694 40.4387 96.7117 40.6537 95.5081 40.9065Z" fill="#263238"/>
<path d="M104.702 13.141C104.702 13.141 106.906 13.8126 107.367 14.2415C107.829 14.6733 109.123 17.3644 109.461 17.9039C109.799 18.4434 109.84 18.5384 111.421 18.3945C113 18.2477 123.735 16.0528 125.937 16.7253C128.141 17.3969 129.997 18.3237 128.662 20.4094C127.328 22.4952 121.121 21.4473 117.516 21.0745C113.91 20.7017 109.32 20.0051 108.43 19.6376C107.541 19.2702 106.504 15.4828 106.371 15.0705C106.237 14.6582 105.13 14.04 104.514 13.7866C103.904 13.5313 104.045 13.1881 104.702 13.141Z" fill="#FEDEA5"/>
<path d="M127.391 21.4493C125.329 22.1284 121.763 21.7137 118.986 21.3903C118.46 21.3307 117.962 21.2712 117.504 21.2244C113.968 20.8605 109.314 20.1627 108.377 19.7759C107.789 19.5322 107.129 18.1258 106.303 15.3476C106.269 15.2373 106.245 15.1558 106.231 15.1127C106.135 14.8126 105.201 14.2266 104.463 13.921C103.998 13.7296 103.96 13.4996 103.978 13.3819C104.013 13.1599 104.274 13.0164 104.691 12.9874C104.711 12.9875 104.73 12.9876 104.748 12.9944C104.977 13.0623 106.998 13.6891 107.472 14.1296C107.804 14.4383 108.478 15.7289 109.022 16.7652C109.271 17.2383 109.484 17.6499 109.592 17.8218C109.903 18.3161 109.939 18.3776 111.407 18.2418C111.806 18.2032 112.822 18.0312 114.107 17.8123C117.921 17.1594 124.306 16.0679 125.983 16.5784C127.344 16.9947 128.789 17.5559 129.171 18.5849C129.377 19.1363 129.249 19.7783 128.793 20.4898C128.508 20.9349 128.02 21.2422 127.391 21.4493ZM104.427 13.3426C104.315 13.3794 104.278 13.4233 104.276 13.4339C104.275 13.4501 104.327 13.5413 104.575 13.6448C105.139 13.8769 106.353 14.5205 106.516 15.0219C106.531 15.0651 106.555 15.1494 106.59 15.2626C107.56 18.5135 108.159 19.3595 108.488 19.4968C109.308 19.8362 113.702 20.53 117.531 20.9219C117.989 20.9688 118.49 21.0273 119.017 21.0898C122.563 21.5015 127.42 22.0651 128.535 20.326C128.942 19.6909 129.055 19.1561 128.884 18.6891C128.547 17.779 127.109 17.2379 125.894 16.8691C124.289 16.38 117.948 17.4631 114.158 18.1113C112.865 18.333 111.846 18.506 111.435 18.5455C109.883 18.6895 109.726 18.6103 109.347 18.0046C109.22 17.804 109.016 17.4086 108.751 16.9087C108.274 16 107.557 14.6249 107.264 14.3547C106.909 14.0248 105.309 13.4859 104.685 13.2957C104.573 13.3039 104.49 13.3217 104.427 13.3426Z" fill="#263238"/>
<path d="M117.517 21.0675C117.161 21.0315 116.79 20.9908 116.419 20.9471L116.471 17.5602C120.136 16.9564 124.606 16.3108 125.938 16.7175C128.143 17.3891 129.999 18.316 128.664 20.4021C127.33 22.4882 121.123 21.4402 117.517 21.0675Z" fill="#F26F1F"/>
<path d="M127.391 21.4433C125.329 22.1225 121.763 21.7078 118.985 21.3844C118.459 21.3248 117.961 21.2653 117.503 21.2184C117.143 21.1806 116.777 21.1417 116.402 21.099C116.326 21.0892 116.266 21.0228 116.269 20.9453L116.321 17.5583C116.322 17.4846 116.372 17.4235 116.447 17.4114C119.87 16.8459 124.583 16.1458 125.985 16.5709C127.347 16.9873 128.792 17.5486 129.174 18.5776C129.38 19.1291 129.252 19.7712 128.796 20.4828C128.508 20.9288 128.017 21.2371 127.391 21.4433ZM117.531 20.9188C117.989 20.9657 118.49 21.0242 119.017 21.0867C122.563 21.4985 127.421 22.0621 128.536 20.3227C128.944 19.6876 129.056 19.1527 128.885 18.6856C128.548 17.7755 127.11 17.2343 125.895 16.8655C124.57 16.4627 120.002 17.1375 116.62 17.6927L116.573 20.8163C116.896 20.8501 117.217 20.885 117.531 20.9188Z" fill="#263238"/>
<path d="M123.027 21.6173C123.232 21.6297 123.432 21.6372 123.632 21.6447L123.902 16.6129C123.77 16.6181 123.636 16.6271 123.496 16.638C123.469 16.6408 123.437 16.6416 123.409 16.6444C123.372 16.6471 123.332 16.6508 123.295 16.6535L123.027 21.6173Z" fill="#263238"/>
<path d="M120.283 16.9841C120.232 16.9915 120.177 16.9999 120.124 17.0045C119.985 17.025 119.844 17.0426 119.704 17.0631L119.429 21.2834C119.584 21.2993 119.74 21.3181 119.896 21.337C119.939 21.3419 119.985 21.3459 120.032 21.3528L120.317 16.9794C120.305 16.9832 120.296 16.9832 120.283 16.9841Z" fill="#263238"/>
<path d="M127.065 17.1033C126.968 18.1078 126.783 19.9321 126.566 21.4932C126.788 21.452 127.001 21.404 127.198 21.3455C127.392 19.9231 127.553 18.3456 127.647 17.3612C127.463 17.2686 127.266 17.1835 127.065 17.1033Z" fill="#263238"/>
<path d="M163.045 61.1523C163.715 61.2507 164.385 61.6679 164.385 61.6679C164.385 61.6679 164.358 62.4518 163.209 64.1635C164.577 64.8487 165.847 65.6043 166.221 65.4268C166.956 65.0795 167.916 60.9357 168.267 59.7549C168.618 58.577 169.582 57.5835 169.234 55.8926C168.886 54.1987 167.895 54.4197 167.673 55.0256C167.45 55.6316 165.625 57.9742 164.509 58.769C163.393 59.5609 162.536 60.2609 162.536 60.2609C162.536 60.2609 162.375 61.0538 163.045 61.1523Z" fill="#F37630"/>
<path d="M166.239 65.5796C165.877 65.6988 165.16 65.3417 163.956 64.7203C163.692 64.5843 163.414 64.4396 163.135 64.2987C163.097 64.2794 163.066 64.2448 163.056 64.2036C163.045 64.1624 163.052 64.1155 163.075 64.0792C163.968 62.7485 164.169 61.9902 164.213 61.7492C164.017 61.6383 163.513 61.3768 163.018 61.304C162.797 61.2715 162.63 61.1732 162.516 61.01C162.292 60.6912 162.377 60.2455 162.383 60.2274C162.391 60.1929 162.409 60.1614 162.437 60.1395C162.445 60.1338 163.309 59.428 164.418 58.6418C165.524 57.8566 167.315 55.5445 167.529 54.9701C167.656 54.625 167.981 54.4033 168.321 54.4286C168.556 54.4468 169.127 54.6224 169.382 55.8621C169.636 57.0989 169.228 57.9607 168.831 58.79C168.668 59.1339 168.513 59.4559 168.411 59.7991C168.344 60.0219 168.254 60.3546 168.149 60.7467C167.513 63.1219 166.89 65.276 166.284 65.5616C166.269 65.5664 166.253 65.5749 166.239 65.5796ZM163.424 64.1046C163.654 64.2204 163.877 64.3381 164.096 64.451C164.951 64.8967 165.92 65.3974 166.152 65.2892C166.683 65.0377 167.475 62.085 167.855 60.6679C167.962 60.2721 168.052 59.9364 168.118 59.7137C168.227 59.3494 168.394 59.0007 168.553 58.6644C168.929 57.8772 169.316 57.0641 169.082 55.926C168.932 55.2065 168.638 54.7611 168.294 54.7339C168.092 54.7177 167.89 54.8605 167.81 55.0784C167.582 55.6959 165.761 58.0624 164.593 58.8905C163.636 59.5691 162.866 60.1834 162.675 60.3386C162.664 60.441 162.654 60.6774 162.767 60.8377C162.833 60.9308 162.931 60.9848 163.065 61.0045C163.758 61.1079 164.434 61.5232 164.463 61.5424C164.511 61.5714 164.538 61.6232 164.533 61.6758C164.53 61.7054 164.493 62.4768 163.424 64.1046Z" fill="#263238"/>
<path d="M168.539 54.6512C168.945 56.7021 168.534 57.5455 167.063 60.7728C165.915 63.2911 165.621 64.7112 165.552 65.3848C165.856 65.4664 166.088 65.4855 166.218 65.4267C166.954 65.0794 167.914 60.9361 168.264 59.7554C168.615 58.5777 169.579 57.5842 169.231 55.8935C169.082 55.1645 168.815 54.793 168.539 54.6512Z" fill="white"/>
<path d="M166.231 65.5813C166.073 65.6333 165.841 65.6171 165.513 65.5305C165.441 65.513 165.392 65.4429 165.403 65.3693C165.483 64.5934 165.811 63.1552 166.927 60.7085L167.012 60.5241C168.408 57.465 168.782 56.6434 168.392 54.6797C168.379 54.6232 168.404 54.5639 168.45 54.5297C168.496 54.4954 168.558 54.4909 168.612 54.5179C168.862 54.6491 169.202 54.9902 169.383 55.862C169.637 57.0987 169.228 57.9603 168.831 58.7895C168.668 59.1334 168.514 59.4553 168.411 59.7985C168.345 60.0213 168.255 60.354 168.149 60.746C167.513 63.1209 166.89 65.2748 166.284 65.5605C166.268 65.569 166.251 65.5747 166.231 65.5813ZM165.719 65.2682C166.011 65.3316 166.12 65.3052 166.153 65.2881C166.684 65.0366 167.475 62.0842 167.856 60.6673C167.963 60.2715 168.052 59.9359 168.119 59.7131C168.227 59.3489 168.395 59.0002 168.554 58.664C168.93 57.8768 169.316 57.0639 169.082 55.9258C168.998 55.5197 168.881 55.2521 168.766 55.0794C169.026 56.8406 168.57 57.839 167.284 60.6544L167.199 60.8388C166.12 63.2033 165.807 64.5918 165.719 65.2682Z" fill="#263238"/>
<path d="M119.663 51.8332C119.62 51.8474 119.567 51.8424 119.528 51.8106C119.461 51.7624 119.444 51.6656 119.492 51.5987C119.492 51.5987 119.73 51.268 120.125 50.7262C120.173 50.6593 120.269 50.6434 120.337 50.6945C120.404 50.7427 120.42 50.8395 120.37 50.9074C119.974 51.4463 119.74 51.7789 119.74 51.7789C119.717 51.8057 119.691 51.8238 119.663 51.8332Z" fill="white"/>
<path d="M118.759 52.6889C118.759 52.6889 125.818 42.2855 132.298 37.1728C138.778 32.063 141.869 33.0644 142.251 35.8092C142.63 38.555 142.048 47.9961 140.99 53.4477C139.932 58.8993 138.042 67.9197 138.042 67.9197C138.042 67.9197 144.193 72.3784 144.798 72.9255C145.402 73.4697 142.661 74.4808 141.289 74.1861C140.199 73.952 140.252 74.0556 137.846 73.4064C133.767 72.3062 133.289 71.5069 133.511 70.5822C134.226 67.6198 135.39 64.956 135.147 61.7475C134.704 55.9193 134.883 48.1229 135.415 48.7961C135.415 48.7961 133.209 53.3499 128.71 56.7449C124.209 60.1408 120.757 60.7833 117.51 58.5226" fill="#73B4EA"/>
<path d="M143.68 74.0656C142.873 74.3313 141.887 74.4709 141.254 74.3381C140.935 74.2708 140.715 74.2316 140.502 74.1934C139.991 74.1032 139.507 74.017 137.804 73.5574C133.746 72.463 133.102 71.6257 133.361 70.5519C133.542 69.7936 133.756 69.0469 133.967 68.327C134.588 66.1673 135.174 64.1309 134.994 61.7659C134.72 58.1371 134.644 52.5679 134.913 50.0009C133.957 51.5821 131.918 54.5181 128.797 56.8724C124.172 60.3635 120.662 60.9101 117.416 58.6523C117.346 58.6051 117.331 58.5113 117.378 58.4416C117.425 58.3719 117.521 58.356 117.588 58.4041C120.707 60.5763 124.109 60.0302 128.612 56.6305C132.199 53.9248 134.334 50.4436 135.024 49.2021C135.091 48.8674 135.173 48.6619 135.272 48.626C135.307 48.6146 135.423 48.5797 135.527 48.7112C135.564 48.7564 135.569 48.8186 135.545 48.8712C135.541 48.8788 135.45 49.0651 135.272 49.3821C135.007 51.08 134.909 56.7289 135.291 61.748C135.475 64.1656 134.88 66.2307 134.254 68.4143C134.046 69.1333 133.834 69.8761 133.653 70.6277C133.482 71.3411 133.665 72.1325 137.88 73.2676C139.57 73.7254 140.046 73.8077 140.551 73.8997C140.767 73.937 140.991 73.9781 141.316 74.0464C142.458 74.2894 144.483 73.6066 144.716 73.1472C144.737 73.1051 144.736 73.0831 144.695 73.0456C144.104 72.5129 138.014 68.0946 137.952 68.0513C137.902 68.0167 137.879 67.9572 137.892 67.8989C137.91 67.8099 139.793 58.8173 140.84 53.4269C141.909 47.9141 142.474 38.5456 142.1 35.8363C141.967 34.869 141.496 34.1951 140.742 33.8915C139.748 33.4883 137.342 33.3971 132.391 37.2985C126.004 42.3359 118.956 52.6753 118.885 52.7784C118.838 52.848 118.745 52.8659 118.675 52.8187C118.605 52.7715 118.587 52.6786 118.634 52.6089C118.705 52.5058 125.781 42.1254 132.203 37.0603C135.96 34.0979 139.031 32.8728 140.852 33.6096C141.713 33.9577 142.247 34.7131 142.399 35.7954C142.776 38.5258 142.21 47.946 141.135 53.4827C140.149 58.5727 138.412 66.8759 138.207 67.8619C138.962 68.4077 144.321 72.3042 144.897 72.8196C145.038 72.9484 145.072 73.1161 144.987 73.2842C144.837 73.5698 144.314 73.8567 143.68 74.0656Z" fill="#73B4EA"/>
<path d="M121.253 49.6696C121.207 49.6848 121.157 49.6759 121.116 49.648C121.048 49.597 121.035 49.5021 121.083 49.4353C122.565 47.4573 124.671 44.7474 126.299 43.0784C126.356 43.0183 126.455 43.0177 126.512 43.0754C126.573 43.135 126.573 43.2308 126.516 43.288C124.899 44.9466 122.802 47.644 121.325 49.6173C121.308 49.6421 121.282 49.6602 121.253 49.6696Z" fill="white"/>
<path d="M132.879 52.5762C132.839 52.5894 132.793 52.5854 132.753 52.5604C132.681 52.517 132.659 52.4222 132.702 52.3506L134.475 49.4672C134.447 48.8641 134.248 42.7902 136.919 38.715C136.966 38.6454 137.057 38.6247 137.127 38.6719C137.197 38.719 137.218 38.811 137.171 38.8807C134.428 43.0657 134.776 49.432 134.781 49.4943C134.782 49.5259 134.776 49.5565 134.758 49.5813L132.964 52.5038C132.941 52.543 132.914 52.5649 132.879 52.5762Z" fill="white"/>
<path d="M141.939 47.3998C141.922 47.4054 141.901 47.4092 141.881 47.4062C141.797 47.4021 141.734 47.33 141.738 47.2458L141.828 45.759C141.832 45.6748 141.904 45.6129 141.988 45.6171C142.072 45.6212 142.134 45.6933 142.13 45.7775L142.041 47.2643C142.04 47.3284 141.996 47.3809 141.939 47.3998Z" fill="white"/>
<path d="M142.112 44.605C142.094 44.6106 142.073 44.6144 142.053 44.6114C141.969 44.6073 141.907 44.5352 141.911 44.451L142.233 39.0676C142.237 38.9834 142.309 38.9215 142.393 38.9256C142.477 38.9298 142.539 39.0018 142.535 39.086L142.213 44.4695C142.209 44.5345 142.169 44.5861 142.112 44.605Z" fill="white"/>
<path d="M141.277 74.1827C142.647 74.4744 145.392 73.4652 144.786 72.922C144.181 72.3778 138.029 67.9166 138.029 67.9166C138.029 67.9166 138.53 65.5286 139.161 62.4664C137.233 62.8367 135.933 62.394 135.143 61.9017C135.336 65.04 134.204 67.6647 133.498 70.5792C133.276 71.5039 133.755 72.3031 137.833 73.403C140.24 74.0521 140.186 73.9486 141.277 74.1827Z" fill="#FEDEA5"/>
<path d="M143.672 74.0574C142.865 74.3231 141.879 74.4627 141.246 74.33C140.928 74.2626 140.708 74.2235 140.494 74.1853C139.984 74.0951 139.5 74.009 137.796 73.5493C133.739 72.4552 133.095 71.618 133.353 70.5441C133.536 69.7887 133.748 69.0459 133.955 68.327C134.563 66.2132 135.137 64.216 134.994 61.9126C134.991 61.8561 135.018 61.8026 135.068 61.7731C135.116 61.7446 135.176 61.7439 135.225 61.7757C135.952 62.2285 137.219 62.6882 139.135 62.3189C139.186 62.3085 139.235 62.3241 139.27 62.3606C139.304 62.3971 139.321 62.4488 139.309 62.4976C138.753 65.2002 138.296 67.3759 138.199 67.8512C138.953 68.3969 144.313 72.2931 144.888 72.8085C145.03 72.9373 145.063 73.1049 144.979 73.2731C144.829 73.5615 144.306 73.8485 143.672 74.0574ZM135.309 62.1723C135.395 64.4085 134.837 66.3559 134.247 68.4095C134.042 69.1246 133.829 69.8675 133.648 70.6162C133.477 71.3295 133.66 72.1208 137.874 73.2558C139.564 73.7135 140.04 73.7958 140.545 73.8878C140.762 73.925 140.985 73.9662 141.311 74.0345C142.452 74.2774 144.477 73.5945 144.71 73.1351C144.731 73.0931 144.73 73.0711 144.689 73.0336C144.098 72.5009 138.008 68.083 137.946 68.0397C137.897 68.005 137.874 67.9456 137.886 67.8873C137.886 67.8873 138.364 65.6122 138.97 62.657C137.271 62.9325 136.072 62.5812 135.309 62.1723Z" fill="#263238"/>
<path d="M138.028 67.9143C138.028 67.9143 137.55 67.7524 137.326 68.6783C137.101 69.6042 137.067 70.4639 137.067 70.4639L134.01 68.6696C133.829 69.297 133.65 69.9301 133.496 70.5777C133.274 71.5026 133.752 72.3021 137.832 73.4025C140.239 74.0519 140.185 73.9483 141.276 74.1825C142.647 74.4743 145.393 73.4649 144.786 72.9214C144.181 72.3742 138.028 67.9143 138.028 67.9143Z" fill="#F37630"/>
<path d="M143.671 74.0569C142.864 74.3227 141.879 74.4623 141.245 74.3295C140.927 74.2621 140.706 74.2229 140.493 74.1847C139.982 74.0946 139.498 74.0083 137.794 73.5485C133.736 72.454 133.091 71.6164 133.35 70.5423C133.512 69.8699 133.702 69.2014 133.865 68.6276C133.878 68.5817 133.911 68.5454 133.953 68.5284C133.998 68.5103 134.044 68.5144 134.087 68.5385L136.934 70.2074C136.96 69.8829 137.024 69.2781 137.179 68.6401C137.28 68.224 137.447 67.9489 137.675 67.8225C137.88 67.7104 138.057 67.7638 138.076 67.7705C138.09 67.7754 138.105 67.7831 138.118 67.7918C138.369 67.9738 144.284 72.2632 144.888 72.8076C145.03 72.9365 145.063 73.1042 144.979 73.2723C144.829 73.5609 144.306 73.8479 143.671 74.0569ZM134.101 68.8976C133.951 69.4255 133.784 70.0165 133.641 70.6124C133.47 71.326 133.653 72.1175 137.868 73.253C139.559 73.7108 140.035 73.7932 140.54 73.8852C140.757 73.9225 140.98 73.9636 141.306 74.032C142.447 74.275 144.473 73.592 144.706 73.1324C144.727 73.0903 144.726 73.0683 144.685 73.0308C144.112 72.5143 138.406 68.3732 137.965 68.0525C137.938 68.0486 137.879 68.0522 137.812 68.0902C137.711 68.1492 137.568 68.3047 137.47 68.7102C137.252 69.6084 137.218 70.4584 137.217 70.4651C137.215 70.5168 137.184 70.5655 137.139 70.5931C137.093 70.6178 137.035 70.6176 136.988 70.5915L134.101 68.8976Z" fill="#F37630"/>
<path d="M137.832 73.4018C140.24 74.0513 140.186 73.9476 141.277 74.1819C142.512 74.4455 144.856 73.6544 144.874 73.0962C140.438 74.302 135.671 72.0141 133.469 70.7258C133.334 71.5871 133.972 72.3596 137.832 73.4018Z" fill="white"/>
<path d="M143.648 74.0702C142.864 74.3285 141.904 74.472 141.245 74.3286C140.927 74.2612 140.706 74.222 140.493 74.1838C139.982 74.0937 139.498 74.0074 137.794 73.5476C133.867 72.486 133.17 71.6721 133.316 70.7017C133.325 70.651 133.356 70.609 133.4 70.5881C133.447 70.5662 133.498 70.5684 133.542 70.5953C135.906 71.9771 140.514 74.1226 144.831 72.9499C144.878 72.9376 144.926 72.9474 144.964 72.9763C145.002 73.0052 145.024 73.0522 145.021 73.101C145.016 73.2494 144.92 73.3994 144.735 73.5432C144.489 73.7356 144.096 73.9227 143.648 74.0702ZM133.602 70.9777C133.631 71.5648 134.247 72.2778 137.871 73.2539C139.562 73.7118 140.039 73.7942 140.544 73.8862C140.76 73.9235 140.984 73.9646 141.31 74.033C142.222 74.2272 143.838 73.8163 144.497 73.344C140.321 74.2789 135.981 72.3385 133.602 70.9777Z" fill="#263238"/>
</svg>
