<svg width="414" height="896" viewBox="0 0 414 896" fill="none" xmlns="http://www.w3.org/2000/svg">
<g clip-path="url(#clip0_1_3480)">
<rect width="414" height="896" fill="#8E97FD"/>
<circle cx="207" cy="615" r="246" fill="#9AA2FD"/>
<circle cx="207" cy="615" r="246" fill="#949DFF"/>
<circle cx="207" cy="615" r="211" fill="#9AA2FD"/>
<circle cx="207" cy="615" r="211" fill="#99A1FF"/>
<circle cx="207" cy="615" r="177" fill="#9AA2FD"/>
<circle cx="207" cy="615" r="177" fill="#9EA6FF"/>
<path d="M296.4 424C294.829 415.773 286.145 411.573 282 410.502C291.949 407.931 296.618 415.858 297.709 420.143C308.705 413.973 315.818 418.001 318 420.786C309.622 418.215 300.109 421.857 296.4 424Z" fill="#B4BAFF"/>
<path d="M61.8 440C60.84 435.299 55.5333 432.899 53 432.287C59.08 430.818 61.9333 435.348 62.6 437.796C69.32 434.27 73.6667 436.572 75 438.164C69.88 436.694 64.0667 438.776 61.8 440Z" fill="#B4BAFF"/>
<circle cx="207" cy="615" r="142" fill="#A3ABFF"/>
<path d="M345.248 461.025C297.249 447.525 304.248 488.025 314.248 488.025C318.357 488.025 326.873 489.025 337.249 489.025H368.749C408.748 489.025 420.249 486.358 420.749 485.525C424.249 459.025 403.082 461.525 391.749 464.525C393.582 454.692 391.649 434.825 369.248 434.025C346.848 433.225 343.915 451.692 345.248 461.025Z" fill="#B4BAFF"/>
<path d="M7.75573 385.787C-13.2717 379.899 -10.2054 397.564 -5.8247 397.564C-4.0249 397.564 -0.294134 398 4.25144 398H18.0509C35.5738 398 40.6117 396.837 40.831 396.473C42.3643 384.915 33.0916 386.005 28.1267 387.314C28.9299 383.025 28.0828 374.36 18.2696 374.011C8.45638 373.662 7.17151 381.717 7.75573 385.787Z" fill="#A6ADFB"/>
<circle cx="39" cy="363" r="6" fill="#A6ADFB"/>
<circle cx="3" cy="3" r="3" transform="matrix(1 0 0 -1 27 352)" fill="#A6ADFB"/>
</g>
<defs>
<clipPath id="clip0_1_3480">
<rect width="414" height="896" fill="white"/>
</clipPath>
</defs>
</svg>
