<svg width="414" height="504" viewBox="0 0 414 504" fill="none" xmlns="http://www.w3.org/2000/svg">
<g clip-path="url(#clip0_326_2)">
<path d="M0 -1V381.053C0 381.053 32.2351 449.788 115.112 441.811C197.989 433.835 215.177 390.876 315.243 470.049C315.243 470.049 350.543 503.185 415 501.967V-1H0Z" fill="#FAF8F5"/>
<path d="M402.149 504C349.355 504 318.072 479.662 317.738 479.381C255.185 430.238 216.838 439.61 163.778 452.6C149.705 456.045 135.138 459.609 118.529 462.6C37.3493 477.232 -2.59944 434.67 -3 434.23L-2.01196 433.335C-1.62476 433.762 37.8967 475.777 118.275 461.291C134.858 458.301 149.385 454.75 163.444 451.305C216.878 438.235 255.478 428.796 318.553 478.34C318.94 478.647 356.899 508.152 419.853 501.757L419.987 503.079C413.805 503.72 407.85 504 402.149 504Z" fill="#F9F0E3"/>
</g>
<path d="M210.742 400.597C249.968 400.597 281.767 399.357 281.767 397.827C281.767 396.297 249.968 395.057 210.742 395.057C171.515 395.057 139.716 396.297 139.716 397.827C139.716 399.357 171.515 400.597 210.742 400.597Z" fill="#F9F0E3"/>
<path opacity="0.5" d="M85.7815 395.93C110.682 395.93 130.868 394.396 130.868 392.505C130.868 390.614 110.682 389.081 85.7815 389.081C60.8808 389.081 40.6948 390.614 40.6948 392.505C40.6948 394.396 60.8808 395.93 85.7815 395.93Z" fill="#F9EAD4"/>
<path d="M369.159 400.604C369.159 401.76 353.81 402.691 334.873 402.691C315.937 402.691 300.588 401.76 300.588 400.604C300.588 399.448 315.937 398.518 334.873 398.518C353.803 398.518 369.159 399.448 369.159 400.604Z" fill="#F9F0E3"/>
<path d="M286.068 234.824L284.484 237.558H287.644L286.068 234.824Z" fill="#E7CCA8"/>
<path d="M286.068 239.84L284.484 242.574H287.644L286.068 239.84Z" fill="#E7CCA8"/>
<path d="M289.344 236.881L287.876 239.84H290.804L289.344 236.881Z" fill="#E7CCA8"/>
<path d="M48.1184 251.131L46.5349 253.872H49.6947L48.1184 251.131Z" fill="#E7CCA8"/>
<path d="M48.1184 256.147L46.5349 258.881H49.6947L48.1184 256.147Z" fill="#E7CCA8"/>
<path d="M51.3945 253.188L49.9272 256.147H52.8546L51.3945 253.188Z" fill="#E7CCA8"/>
<path d="M282.908 355.9L281.332 358.634H284.484L282.908 355.9Z" fill="#E7CCA8"/>
<path d="M282.908 360.909L281.332 363.65H284.484L282.908 360.909Z" fill="#E7CCA8"/>
<path d="M286.184 357.951L284.724 360.909H287.644L286.184 357.951Z" fill="#E7CCA8"/>
<path d="M220.642 215.507C220.642 217.434 219.088 218.99 217.163 218.99C215.238 218.99 213.683 217.434 213.683 215.507C213.683 213.581 215.238 212.025 217.163 212.025C219.08 212.025 220.642 213.588 220.642 215.507Z" stroke="white" stroke-miterlimit="10"/>
<path d="M370.982 363.636H298.874C297.806 363.636 296.942 362.771 296.942 361.702C296.942 360.633 297.806 359.768 298.874 359.768H370.982C372.05 359.768 372.914 360.633 372.914 361.702C372.914 362.771 372.05 363.636 370.982 363.636Z" fill="#FEE6C6"/>
<path d="M308.833 397.827C307.75 397.827 306.857 397.165 306.813 396.322L304.939 362.443H312.726L310.852 396.322C310.801 397.165 309.915 397.827 308.833 397.827Z" fill="#FEE6C6"/>
<path d="M361.721 397.827C360.638 397.827 359.745 397.165 359.701 396.322L357.827 362.443H365.614L363.74 396.322C363.689 397.165 362.803 397.827 361.721 397.827Z" fill="#FEE6C6"/>
<path d="M334.932 397.827C333.849 397.827 332.956 397.165 332.912 396.322L331.038 362.443H338.825L336.951 396.322C336.907 397.165 336.014 397.827 334.932 397.827Z" fill="#FEE6C6"/>
<path d="M351.108 352.997C352.146 348.366 349.236 343.77 344.609 342.732C339.982 341.693 335.39 344.606 334.352 349.237C333.315 353.868 336.224 358.464 340.852 359.502C345.479 360.541 350.071 357.628 351.108 352.997Z" fill="#F9D8AC"/>
<path d="M347.055 344.057H338.2C337.706 344.057 337.307 343.657 337.307 343.163C337.307 342.669 337.706 342.269 338.2 342.269H347.055C347.549 342.269 347.948 342.669 347.948 343.163C347.948 343.657 347.549 344.057 347.055 344.057Z" fill="#F9D8AC"/>
<path d="M338.811 327.99C339.123 328.136 339.493 328.688 339.617 329.451C339.74 330.215 339.58 330.869 339.319 331.095C339.014 330.956 338.636 330.397 338.513 329.633C338.389 328.87 338.571 328.223 338.811 327.99Z" fill="#F9D8AC"/>
<path d="M339.392 331.019L339.213 331.049L340.018 335.948L340.197 335.919L339.392 331.019Z" fill="#F9D8AC"/>
<path d="M341.389 330.884C341.055 330.862 340.503 331.174 340.096 331.792C339.689 332.418 339.581 333.079 339.719 333.414C340.045 333.443 340.605 333.123 341.012 332.505C341.426 331.887 341.513 331.218 341.389 330.884Z" fill="#F9D8AC"/>
<path d="M337.292 331.56C337.605 331.429 338.222 331.545 338.811 332.003C339.399 332.461 339.711 333.057 339.689 333.421C339.392 333.559 338.76 333.435 338.171 332.977C337.583 332.519 337.285 331.916 337.292 331.56Z" fill="#F9D8AC"/>
<path d="M337.685 333.959C337.997 333.828 338.614 333.952 339.203 334.402C339.791 334.86 340.103 335.457 340.082 335.82C339.784 335.958 339.152 335.835 338.563 335.377C337.975 334.919 337.677 334.315 337.685 333.959Z" fill="#F9D8AC"/>
<path d="M341.789 333.29C341.454 333.268 340.902 333.581 340.496 334.199C340.089 334.817 339.98 335.485 340.118 335.82C340.445 335.849 341.004 335.529 341.411 334.911C341.818 334.286 341.912 333.617 341.789 333.29Z" fill="#F9D8AC"/>
<path d="M340.176 335.811L339.997 335.84L340.802 340.74L340.981 340.71L340.176 335.811Z" fill="#F9D8AC"/>
<path d="M342.181 335.675C341.847 335.653 341.295 335.966 340.888 336.584C340.481 337.209 340.372 337.87 340.51 338.205C340.837 338.234 341.396 337.921 341.803 337.296C342.21 336.678 342.304 336.009 342.181 335.675Z" fill="#F9D8AC"/>
<path d="M338.077 336.351C338.389 336.22 339.007 336.336 339.595 336.794C340.183 337.252 340.496 337.849 340.474 338.212C340.176 338.35 339.544 338.227 338.956 337.769C338.367 337.311 338.07 336.707 338.077 336.351Z" fill="#F9D8AC"/>
<path d="M338.476 338.757C338.789 338.626 339.406 338.75 339.995 339.201C340.583 339.659 340.895 340.255 340.874 340.619C340.576 340.757 339.944 340.633 339.355 340.175C338.767 339.717 338.462 339.106 338.476 338.757Z" fill="#F9D8AC"/>
<path d="M342.573 338.081C342.239 338.059 341.687 338.372 341.28 338.99C340.874 339.608 340.765 340.277 340.903 340.611C341.229 340.64 341.789 340.32 342.196 339.702C342.61 339.084 342.697 338.408 342.573 338.081Z" fill="#F9D8AC"/>
<path d="M340.967 340.601L340.788 340.63L341.593 345.53L341.772 345.5L340.967 340.601Z" fill="#F9D8AC"/>
<path d="M346.496 331.531C346.743 331.749 346.917 332.316 346.793 332.978C346.67 333.639 346.314 334.119 345.994 334.221C345.747 334.01 345.573 333.436 345.689 332.774C345.82 332.12 346.191 331.647 346.496 331.531Z" fill="#F9D8AC"/>
<path d="M345.919 334.176L345.138 338.423L345.317 338.456L346.097 334.209L345.919 334.176Z" fill="#F9D8AC"/>
<path d="M348.021 334.715C347.709 334.592 347.099 334.672 346.51 335.042C345.929 335.421 345.617 335.929 345.646 336.242C345.944 336.373 346.568 336.286 347.157 335.915C347.738 335.537 348.028 335.021 348.021 334.715Z" fill="#F9D8AC"/>
<path d="M343.932 333.959C344.266 333.952 344.81 334.243 345.224 334.803C345.639 335.362 345.747 335.951 345.609 336.235C345.283 336.249 344.731 335.951 344.317 335.391C343.902 334.832 343.815 334.243 343.932 333.959Z" fill="#F9D8AC"/>
<path d="M343.554 336.046C343.888 336.038 344.433 336.329 344.847 336.889C345.261 337.449 345.37 338.038 345.232 338.321C344.905 338.336 344.353 338.038 343.939 337.478C343.525 336.918 343.43 336.329 343.554 336.046Z" fill="#F9D8AC"/>
<path d="M347.636 336.794C347.324 336.671 346.714 336.751 346.125 337.122C345.544 337.5 345.232 338.008 345.261 338.321C345.559 338.452 346.183 338.365 346.772 337.994C347.353 337.623 347.651 337.1 347.636 336.794Z" fill="#F9D8AC"/>
<path d="M345.16 338.332L344.379 342.579L344.558 342.612L345.338 338.364L345.16 338.332Z" fill="#F9D8AC"/>
<path d="M347.258 338.866C346.946 338.743 346.336 338.823 345.747 339.193C345.166 339.571 344.854 340.08 344.883 340.393C345.181 340.524 345.806 340.437 346.394 340.066C346.975 339.695 347.266 339.179 347.258 338.866Z" fill="#F9D8AC"/>
<path d="M343.169 338.118C343.503 338.11 344.048 338.401 344.462 338.961C344.876 339.521 344.985 340.11 344.847 340.393C344.52 340.408 343.968 340.11 343.554 339.55C343.14 338.99 343.053 338.401 343.169 338.118Z" fill="#F9D8AC"/>
<path d="M344.391 342.484L343.611 346.731L343.789 346.764L344.57 342.517L344.391 342.484Z" fill="#F9D8AC"/>
<path d="M352.583 290.338C352.961 290.578 353.36 291.342 353.404 292.352C353.454 293.355 353.142 294.177 352.779 294.431C352.401 294.213 352.002 293.428 351.951 292.418C351.907 291.414 352.241 290.607 352.583 290.338Z" fill="#FEE6C6"/>
<path d="M352.894 294.336L352.655 294.348L352.967 300.803L353.206 300.791L352.894 294.336Z" fill="#FEE6C6"/>
<path d="M355.488 294.468C355.06 294.388 354.304 294.708 353.68 295.45C353.055 296.191 352.822 297.042 352.953 297.492C353.375 297.587 354.137 297.252 354.762 296.511C355.379 295.769 355.597 294.919 355.488 294.468Z" fill="#FEE6C6"/>
<path d="M350.091 294.73C350.513 294.613 351.297 294.853 351.987 295.529C352.677 296.206 352.997 297.027 352.91 297.492C352.503 297.623 351.704 297.369 351.014 296.693C350.316 296.017 350.019 295.188 350.091 294.73Z" fill="#FEE6C6"/>
<path d="M350.244 297.892C350.665 297.776 351.449 298.016 352.14 298.692C352.83 299.368 353.149 300.189 353.062 300.655C352.655 300.786 351.856 300.531 351.166 299.855C350.469 299.179 350.178 298.35 350.244 297.892Z" fill="#FEE6C6"/>
<path d="M355.641 297.63C355.212 297.55 354.457 297.87 353.832 298.612C353.207 299.353 352.975 300.204 353.106 300.655C353.527 300.749 354.29 300.415 354.914 299.673C355.532 298.932 355.75 298.081 355.641 297.63Z" fill="#FEE6C6"/>
<path d="M353.187 300.682L352.948 300.693L353.259 307.149L353.498 307.137L353.187 300.682Z" fill="#FEE6C6"/>
<path d="M355.793 300.785C355.365 300.705 354.609 301.025 353.985 301.767C353.36 302.508 353.128 303.359 353.258 303.81C353.68 303.904 354.442 303.57 355.067 302.828C355.684 302.087 355.902 301.229 355.793 300.785Z" fill="#FEE6C6"/>
<path d="M350.396 301.047C350.818 300.931 351.602 301.171 352.292 301.847C352.982 302.523 353.302 303.344 353.215 303.81C352.808 303.941 352.009 303.686 351.319 303.01C350.621 302.327 350.324 301.498 350.396 301.047Z" fill="#FEE6C6"/>
<path d="M350.549 304.21C350.97 304.093 351.755 304.333 352.445 305.009C353.135 305.685 353.454 306.507 353.367 306.972C352.96 307.103 352.161 306.849 351.471 306.173C350.774 305.496 350.476 304.668 350.549 304.21Z" fill="#FEE6C6"/>
<path d="M355.946 303.948C355.517 303.868 354.762 304.188 354.137 304.929C353.513 305.671 353.28 306.522 353.411 306.972C353.832 307.067 354.595 306.732 355.22 305.991C355.837 305.249 356.055 304.399 355.946 303.948Z" fill="#FEE6C6"/>
<path d="M353.505 306.971L353.266 306.983L353.578 313.438L353.817 313.426L353.505 306.971Z" fill="#FEE6C6"/>
<path d="M358.002 359.681H351.246C348.551 359.681 346.423 357.376 346.641 354.686L350.149 311.538H359.091L362.6 354.686C362.825 357.376 360.696 359.681 358.002 359.681Z" fill="#FEE6C6"/>
<path d="M360.014 311.669H349.234C348.602 311.669 348.094 311.16 348.094 310.527C348.094 309.895 348.602 309.386 349.234 309.386H360.014C360.646 309.386 361.154 309.895 361.154 310.527C361.154 311.153 360.646 311.669 360.014 311.669Z" fill="#FEE6C6"/>
<path d="M355.975 320.226C356.077 316.605 356.258 312.985 356.447 309.372C356.636 305.758 356.89 302.145 357.115 298.532C357.391 294.919 357.638 291.305 357.951 287.7L358.43 282.291C358.619 280.488 358.779 278.685 358.982 276.882C358.939 278.692 358.851 280.502 358.786 282.312L358.51 287.736C358.321 291.349 358.067 294.962 357.842 298.576C357.558 302.189 357.319 305.802 357.006 309.408C356.694 313.014 356.374 316.62 355.975 320.226Z" fill="#FEE6C6"/>
<path d="M356.316 316.082C355.771 308.848 355.561 301.607 355.43 294.366C355.328 287.125 355.314 279.884 355.633 272.636C356.178 279.869 356.389 287.11 356.52 294.352C356.614 301.593 356.629 308.834 356.316 316.082Z" fill="#FEE6C6"/>
<path d="M355.394 322.872C355.844 319.273 356.367 315.689 356.912 312.112C357.449 308.528 358.052 304.959 358.619 301.382C359.244 297.812 359.839 294.242 360.493 290.68L361.488 285.337C361.844 283.563 362.178 281.782 362.556 280.008C362.338 281.803 362.077 283.599 361.837 285.395L361.045 290.767C360.508 294.352 359.905 297.921 359.338 301.498C358.713 305.068 358.118 308.637 357.464 312.2C356.803 315.769 356.142 319.324 355.394 322.872Z" fill="#FEE6C6"/>
<path d="M354.057 272.745C354.057 273.167 353.716 273.508 353.295 273.508C352.873 273.508 352.532 273.167 352.532 272.745C352.532 272.323 352.873 271.981 353.295 271.981C353.716 271.981 354.057 272.323 354.057 272.745Z" stroke="#FEE6C6" stroke-miterlimit="10"/>
<path d="M358.147 270.876C359.158 270.876 359.977 270.056 359.977 269.044C359.977 268.033 359.158 267.212 358.147 267.212C357.136 267.212 356.316 268.033 356.316 269.044C356.316 270.056 357.136 270.876 358.147 270.876Z" stroke="#FEE6C6" stroke-miterlimit="10"/>
<path d="M361.83 278.481C362.163 278.481 362.432 278.211 362.432 277.877C362.432 277.544 362.163 277.274 361.83 277.274C361.497 277.274 361.227 277.544 361.227 277.877C361.227 278.211 361.497 278.481 361.83 278.481Z" stroke="#FEE6C6" stroke-miterlimit="10"/>
<path d="M363.893 290.906C363.893 291.218 363.638 291.473 363.326 291.473C363.014 291.473 362.759 291.218 362.759 290.906C362.759 290.593 363.014 290.339 363.326 290.339C363.638 290.339 363.893 290.593 363.893 290.906Z" stroke="#FEE6C6" stroke-miterlimit="10"/>
<path d="M349.394 286.115C349.939 286.115 350.382 285.672 350.382 285.126C350.382 284.58 349.939 284.137 349.394 284.137C348.848 284.137 348.406 284.58 348.406 285.126C348.406 285.672 348.848 286.115 349.394 286.115Z" stroke="#FEE6C6" stroke-miterlimit="10"/>
<path d="M325.663 331.095H300.486V358.547H325.663V331.095Z" fill="#F9D8AC"/>
<path d="M322.844 334.17H303.312V355.471H322.844V334.17Z" fill="#FEE6C6"/>
<path d="M72.0457 205.831H67.9924V385.213H72.0457V205.831Z" fill="#FEE6C6"/>
<path d="M90.699 391.764H49.3459C49.3459 387.336 58.6074 383.752 70.0261 383.752C81.4449 383.752 90.699 387.336 90.699 391.764Z" fill="#FEE6C6"/>
<path d="M98.4642 208.295H41.5737L42.627 204.602L42.8376 203.875L44.748 197.187L44.9587 196.46L55.375 160H86.1157L95.4352 196.46L95.624 197.187L97.331 203.875L97.5199 204.602L98.4642 208.295Z" fill="#FEE6C6"/>
<path d="M45.3074 198.822L43.3679 202.181H47.2396L45.3074 198.822Z" fill="#E5CAA6"/>
<path d="M49.6946 202.181L47.7551 198.822H51.634L49.6946 202.181Z" fill="#E5CAA6"/>
<path d="M53.5662 198.822L51.634 202.181H55.5057L53.5662 198.822Z" fill="#E5CAA6"/>
<path d="M57.9609 202.181L56.0215 198.822H59.8931L57.9609 202.181Z" fill="#E5CAA6"/>
<path d="M61.8325 198.822L59.8931 202.181H63.7647L61.8325 198.822Z" fill="#E5CAA6"/>
<path d="M66.22 202.181L64.2805 198.822H68.1594L66.22 202.181Z" fill="#E5CAA6"/>
<path d="M70.0916 198.822L68.1594 202.181H72.0311L70.0916 198.822Z" fill="#E5CAA6"/>
<path d="M74.4788 202.181L72.5466 198.822H76.4183L74.4788 202.181Z" fill="#E5CAA6"/>
<path d="M78.3579 198.822L76.4185 202.181H80.2901L78.3579 198.822Z" fill="#E5CAA6"/>
<path d="M82.7451 202.181L80.8057 198.822H84.6773L82.7451 202.181Z" fill="#E5CAA6"/>
<path d="M86.6169 198.822L84.6775 202.181H88.5564L86.6169 198.822Z" fill="#E5CAA6"/>
<path d="M91.0042 202.181L89.072 198.822H92.9436L91.0042 202.181Z" fill="#E5CAA6"/>
<path d="M94.8758 198.822L92.9436 202.181H96.8152L94.8758 198.822Z" fill="#E5CAA6"/>
<path d="M95.624 197.187H44.748L44.9587 196.46H95.4352L95.624 197.187Z" fill="#E5CAA6"/>
<path d="M97.5199 204.602H42.627L42.8376 203.875H97.331L97.5199 204.602Z" fill="#E5CAA6"/>
<path d="M104.885 314.707C106.367 308.964 109.555 303.831 112.831 298.887C115.737 294.496 118.781 290.127 122.616 286.521C126.451 282.908 131.18 280.065 136.381 279.265C135.11 283.366 133.839 287.466 132.567 291.566C131.296 295.667 129.981 299.854 127.475 303.337C124.853 306.972 121.054 309.632 117.001 311.537C112.94 313.442 108.597 314.642 104.275 315.834" fill="#66A986"/>
<path d="M105.154 314.781C107.341 307.009 112.091 299.942 116.885 293.523C119.362 290.2 122.086 287.074 125.384 284.552C126.946 283.352 134.914 278.067 135.706 280.56C136.055 281.665 134.122 285.657 133.796 286.711C133.185 288.681 132.59 290.651 131.965 292.614C130.796 296.3 129.524 300.03 127.251 303.199C121.905 310.622 112.578 313.261 104.21 315.573C103.876 315.668 104.014 316.191 104.355 316.097C112.534 313.836 121.411 311.291 126.997 304.413C132.51 297.63 134.13 287.467 136.65 279.339C136.716 279.128 136.505 278.968 136.316 279.004C128.449 280.444 122.355 285.613 117.539 291.771C112.229 298.561 106.985 306.267 104.631 314.643C104.529 314.97 105.052 315.115 105.154 314.781Z" fill="#66A986"/>
<path d="M96.1689 334.01C101.907 321.738 107.639 309.459 113.377 297.187C113.675 296.554 112.73 296.002 112.433 296.634C106.694 308.906 100.963 321.186 95.2246 333.457C94.9341 334.09 95.8711 334.643 96.1689 334.01Z" fill="#80B996"/>
<path d="M96.997 307.598C97.3312 294.737 102.183 281.738 105.416 269.372C105.503 269.03 104.98 268.884 104.893 269.226C101.646 281.658 96.7937 294.664 96.4595 307.598C96.445 307.947 96.9898 307.947 96.997 307.598Z" fill="#80B996"/>
<path d="M88.3383 310.288C82.8614 305.417 77.3409 300.495 73.0479 294.548C68.7623 288.601 65.7478 281.469 65.9875 274.141C69.4814 279.688 76.8614 281.76 80.5006 287.212C81.6992 289.008 82.4183 291.08 83.1229 293.123C85.0987 298.845 87.0817 304.573 89.0575 310.295" fill="#66A986"/>
<path d="M88.5272 310.099C82.7815 304.988 76.9414 299.812 72.5758 293.414C70.4039 290.23 68.6243 286.747 67.5057 283.054C66.9246 281.135 66.5323 279.172 66.3434 277.18C66.1836 275.464 65.6752 274.846 66.9463 275.9C68.7478 277.398 70.295 279.012 72.2272 280.379C74.8785 282.247 77.6823 283.999 79.6799 286.609C82.2585 289.975 83.3045 294.512 84.6774 298.481C86.0503 302.443 87.4159 306.406 88.7887 310.368C88.905 310.695 89.4279 310.557 89.3117 310.222C87.7863 305.817 86.2682 301.418 84.7428 297.013C83.5442 293.537 82.6072 289.706 80.4353 286.674C76.6581 281.396 69.9027 279.39 66.2127 273.995C66.0674 273.777 65.7042 273.85 65.7042 274.134C65.588 289.735 77.3336 300.858 88.135 310.477C88.4037 310.717 88.796 310.331 88.5272 310.099Z" fill="#66A986"/>
<path d="M77.6897 283.556C86.646 301.811 92.5297 321.375 95.1229 341.549C95.2101 342.233 96.2997 342.247 96.2125 341.549C93.5975 321.178 87.6775 301.447 78.6267 283.003C78.3217 282.37 77.3774 282.923 77.6897 283.556Z" fill="#80B996"/>
<path d="M93.8512 267.197C89.3694 251.472 89.5002 234.459 94.2289 218.8C97.5195 223.533 100.04 228.803 101.667 234.329C103.483 240.486 104.188 247.037 103.12 253.369C102.052 259.701 99.132 265.801 94.4469 270.185" fill="#66A986"/>
<path d="M94.1133 267.125C91.8179 258.823 90.6847 250.266 90.8808 241.651C90.9898 237.034 91.4547 232.432 92.2973 227.888C92.6605 225.933 93.0963 223.992 93.5903 222.065C94.4401 218.786 95.0358 220.407 96.2997 222.588C104.704 237.041 107.166 257.347 94.244 269.997C93.9898 270.244 94.3748 270.629 94.629 270.382C108.953 256.358 104.668 233.741 94.4547 218.663C94.3239 218.474 94.0261 218.495 93.9535 218.728C89.2973 234.599 89.1738 251.327 93.5757 267.27C93.6847 267.605 94.2077 267.46 94.1133 267.125Z" fill="#66A986"/>
<path d="M106.527 310.288C105.336 302.378 107.878 294.264 111.997 287.409C116.115 280.553 121.745 274.751 127.324 269.022C128.682 279.942 126.365 291.291 120.837 300.8C119.319 303.417 117.517 305.94 115.106 307.765C112.694 309.59 109.585 310.666 106.614 310.128" fill="#80B996"/>
<path d="M106.803 310.288C105.764 302.022 108.249 294.024 112.563 287.009C114.757 283.446 117.372 280.168 120.14 277.034C121.396 275.617 122.689 274.221 123.997 272.847C124.556 272.258 125.108 271.516 125.747 271.022C126.728 270.266 126.604 269.735 127.229 270.84C127.825 271.88 127.425 274.541 127.411 275.726C127.389 277.558 127.273 279.39 127.062 281.215C126.583 285.228 125.631 289.212 124.207 292.999C121.396 300.495 116.115 310.942 106.6 309.859C106.251 309.822 106.258 310.368 106.6 310.404C115.316 311.4 120.488 302.959 123.546 296.038C127.309 287.54 128.609 278.234 127.578 269.023C127.556 268.804 127.295 268.645 127.113 268.826C116.174 280.08 104.108 293.319 106.244 310.288C106.302 310.629 106.847 310.637 106.803 310.288Z" fill="#80B996"/>
<path d="M98.0567 296.147C97.3812 286.477 99.3279 276.764 102.509 267.604C105.691 258.444 110.093 249.771 114.48 241.119C117.393 251.014 118.323 261.65 115.868 271.668C113.413 281.686 107.347 291.007 98.4781 296.256" fill="#80B996"/>
<path d="M98.3334 296.147C97.7596 286.18 99.6917 276.387 103.011 267.023C104.776 262.043 106.897 257.194 109.171 252.425C110.261 250.128 111.394 247.852 112.534 245.584C112.665 245.322 113.82 242.479 114.096 242.494C115.011 242.53 115.069 244.304 115.258 245.097C119.653 263.701 115.629 285.38 98.3407 296.024C98.0428 296.205 98.3189 296.678 98.6167 296.496C117.59 284.82 120.394 260.895 114.75 241.047C114.692 240.829 114.357 240.764 114.248 240.982C105.51 258.219 96.6409 276.285 97.7886 296.147C97.8104 296.496 98.3552 296.504 98.3334 296.147Z" fill="#80B996"/>
<path d="M92.1811 261.331C96.5322 286.682 97.2949 312.483 94.4838 338.052C94.4039 338.75 95.5007 338.743 95.5733 338.052C98.3917 312.389 97.5927 286.485 93.2344 261.04C93.1109 260.349 92.0649 260.64 92.1811 261.331Z" fill="#80B996"/>
<path d="M93.9961 269.596C89.8194 266.106 86.1802 260.181 85.1996 254.83C84.219 249.48 84.5096 243.976 84.8437 238.545C85.1851 233.115 85.5701 227.633 84.7856 222.246C88.8606 227.735 92.2891 233.704 94.984 239.992C97.0252 244.754 98.6595 249.778 98.8411 254.954C99.0227 260.13 97.6281 265.51 94.2068 269.4" fill="#80B996"/>
<path d="M94.1931 269.408C87.4377 263.446 84.8445 255.558 84.8082 246.725C84.7936 242.632 85.1641 238.553 85.3675 234.475C85.4692 232.432 85.5418 230.389 85.5128 228.346C85.5055 227.757 84.9462 223.642 85.3094 223.424C86.6169 222.639 95.8637 242.814 96.3795 244.297C99.2705 252.577 99.8952 262.05 94.0187 269.212C93.8008 269.481 94.1785 269.866 94.4037 269.597C106.048 255.406 93.9824 234.38 85.0188 222.116C84.8808 221.927 84.474 221.956 84.5103 222.254C85.7234 231.77 83.6605 241.272 84.4087 250.796C84.9898 258.219 88.1931 264.849 93.8008 269.793C94.0696 270.026 94.4546 269.64 94.1931 269.408Z" fill="#80B996"/>
<path d="M87.8582 306.928C89.9647 299.52 88.7226 289.422 85.1924 282.573C81.6621 275.732 76.1634 270.069 70.0618 265.372C70.3959 273.267 71.0061 281.272 73.6356 288.724C76.2724 296.183 80.805 303.373 87.8582 306.928Z" fill="#80B996"/>
<path d="M88.1204 307.002C92.5223 290.128 83.1083 275.246 70.2586 265.184C70.0915 265.053 69.7792 265.118 69.7937 265.38C70.462 280.466 72.9026 299.23 87.7209 307.169C88.0332 307.336 88.302 306.863 87.9969 306.696C81.2633 303.09 76.9413 296.685 74.2755 289.67C72.9026 286.056 72.0237 282.269 71.4426 278.452C71.0503 275.864 70.8034 273.261 70.6218 270.651C70.5637 269.8 70.3966 268.863 70.462 268.012C70.5564 266.776 70.0843 266.42 71.3046 266.703C72.5322 266.987 74.537 269.466 75.4305 270.317C76.7525 271.574 78.0164 272.897 79.2077 274.279C81.8662 277.361 84.2124 280.793 85.8032 284.551C88.7378 291.458 89.5005 299.579 87.5974 306.856C87.5102 307.198 88.0332 307.343 88.1204 307.002Z" fill="#80B996"/>
<path d="M118.643 364.835C118.643 377.136 113.871 387.853 106.818 393.429H84.5758C77.5226 387.853 72.7502 377.136 72.7502 364.835C72.7502 353.341 76.9197 343.229 83.2174 337.398H108.169C114.474 343.229 118.643 353.334 118.643 364.835Z" fill="#FEE6C6"/>
<path d="M85.353 349.27L79.3821 359.63H91.3311L85.353 349.27Z" stroke="#E6CAA6" stroke-miterlimit="10"/>
<path d="M85.353 351.8L81.5613 358.372H89.1447L85.353 351.8Z" stroke="#E6CAA6" stroke-width="0.5" stroke-miterlimit="10"/>
<path d="M93.9825 383.287L86.7622 387.46V379.121L93.9825 383.287Z" stroke="#E6CAA6" stroke-width="0.75" stroke-miterlimit="10"/>
<path d="M91.5854 383.287L87.9607 385.381V381.193L91.5854 383.287Z" stroke="#E6CAA6" stroke-width="0.5" stroke-miterlimit="10"/>
<path d="M104.108 340.444L98.3262 350.47H109.897L104.108 340.444Z" stroke="#E6CAA6" stroke-miterlimit="10"/>
<path d="M104.108 344.247L101.617 348.565H106.607L104.108 344.247Z" stroke="#E6CAA6" stroke-width="0.5" stroke-miterlimit="10"/>
<path d="M104.108 384.472L97.4692 369.197H110.755L104.108 384.472Z" stroke="#E6CAA6" stroke-miterlimit="10"/>
<path d="M104.108 380.75L99.8953 371.059H108.329L104.108 380.75Z" stroke="#E6CAA6" stroke-width="0.5" stroke-miterlimit="10"/>
<path d="M82.0916 371.56C82.0916 370.543 82.9196 369.714 83.9366 369.714C84.9535 369.714 85.7816 370.543 85.7816 371.56C85.7816 372.578 84.9535 373.407 83.9366 373.407C82.9196 373.407 82.0916 372.578 82.0916 371.56Z" stroke="#E6CAA6" stroke-miterlimit="10"/>
<path d="M104.108 362.254C105.745 362.254 107.072 360.926 107.072 359.288C107.072 357.65 105.745 356.322 104.108 356.322C102.471 356.322 101.145 357.65 101.145 359.288C101.145 360.926 102.471 362.254 104.108 362.254Z" stroke="#E6CAA6" stroke-miterlimit="10"/>
<path d="M92.1664 344.894C92.8043 344.894 93.3214 344.376 93.3214 343.738C93.3214 343.099 92.8043 342.582 92.1664 342.582C91.5286 342.582 91.0115 343.099 91.0115 343.738C91.0115 344.376 91.5286 344.894 92.1664 344.894Z" stroke="#E6CAA6" stroke-miterlimit="10"/>
<g opacity="0.25">
<path opacity="0.25" d="M109.84 339.114C105.859 358.794 96.7356 377.42 83.5735 392.571C83.9004 392.862 84.2345 393.16 84.5759 393.429H106.818C113.871 387.853 118.643 377.136 118.643 364.835C118.643 354.388 115.2 345.097 109.84 339.114Z" fill="#FEE6C6"/>
</g>
<path d="M108.133 337.398H83.2611C82.5057 337.398 81.8955 336.787 81.8955 336.031V335.748C81.8955 334.992 82.5057 334.381 83.2611 334.381H108.133C108.888 334.381 109.498 334.992 109.498 335.748V336.031C109.505 336.787 108.888 337.398 108.133 337.398Z" fill="#F9D8AC"/>
<path d="M109.716 304.85C110.413 302.48 111.292 300.16 112.273 297.885C113.246 295.609 114.365 293.392 115.563 291.225C116.784 289.066 118.091 286.965 119.529 284.951C120.256 283.948 120.989 282.952 121.752 281.978C122.537 281.018 123.314 280.066 124.149 279.15C123.8 279.659 123.444 280.168 123.081 280.662L122.035 282.189C121.338 283.207 120.655 284.232 119.994 285.264C118.672 287.343 117.394 289.437 116.195 291.582C114.982 293.719 113.863 295.907 112.774 298.118C111.692 300.335 110.696 302.589 109.716 304.85Z" fill="#66A986"/>
<path d="M92.2683 263.345C91.8688 261.113 91.5492 258.873 91.2441 256.634C90.9317 254.395 90.6702 252.149 90.4087 249.909C90.169 247.663 89.9293 245.416 89.7405 243.163L89.4644 239.782C89.3991 238.655 89.3119 237.521 89.2683 236.394C89.4717 237.507 89.6315 238.626 89.8204 239.746L90.2925 243.105C90.6049 245.344 90.8664 247.59 91.1279 249.837C91.3676 252.083 91.6073 254.33 91.7961 256.591C91.9923 258.83 92.1666 261.084 92.2683 263.345Z" fill="#66A986"/>
<path d="M75.22 276.031C76.4548 277.957 77.5517 279.964 78.5831 282.007C79.6219 284.05 80.5371 286.143 81.3942 288.274C82.2296 290.404 82.9996 292.563 83.6533 294.759C83.9729 295.856 84.2853 296.961 84.5685 298.066C84.83 299.179 85.0988 300.291 85.3095 301.418L84.2271 298.168C83.8712 297.085 83.5008 296.009 83.123 294.933C82.3531 292.788 81.5686 290.651 80.726 288.543C79.8979 286.427 78.9972 284.333 78.0892 282.247C77.1594 280.16 76.1933 278.103 75.22 276.031Z" fill="#66A986"/>
<path d="M101.333 286.885C102.474 284.115 103.607 281.353 104.675 278.561C105.743 275.769 106.796 272.978 107.74 270.149C108.743 267.336 109.636 264.486 110.508 261.636C110.944 260.211 111.365 258.779 111.779 257.34L113.007 253.021C112.752 254.497 112.433 255.958 112.12 257.427C111.779 258.888 111.416 260.342 111.045 261.789C110.275 264.69 109.375 267.547 108.423 270.389C107.421 273.21 106.367 276.024 105.183 278.779C104.007 281.52 102.743 284.239 101.333 286.885Z" fill="#66A986"/>
<path d="M237.436 257.652H182.427C169.105 257.652 158.304 268.463 158.304 281.796V340.822H261.567V281.796C261.567 268.463 250.765 257.652 237.436 257.652Z" fill="#5C6193"/>
<path d="M249.342 327.83H170.521V340.822H249.342V327.83Z" fill="#4E5567"/>
<path d="M249.342 340.822H164.413V373.843H249.342V340.822Z" fill="#8E97FD"/>
<path d="M256.068 378.736H163.803C161.1 378.736 158.914 376.548 158.914 373.843H260.957C260.957 376.548 258.763 378.736 256.068 378.736Z" fill="#3F414E"/>
<path d="M161.362 394.025H158.304L163.802 378.736H168.081L161.362 394.025Z" fill="#3F414E"/>
<path d="M258.509 394.025H261.567L256.068 378.736H251.79L258.509 394.025Z" fill="#3F414E"/>
<path d="M149.544 267.125C146.587 265.155 144.103 262.349 142.933 258.99C141.764 255.631 142.026 251.705 144.009 248.753C145.992 245.802 149.776 244.042 153.241 244.835C153.386 240.153 157.686 236.743 161.849 234.599C166.432 232.236 171.219 230.869 175.904 233.014C178.512 234.213 181.258 236.162 182.638 238.684C184.018 241.2 184.839 243.977 185.638 246.74C188.914 244.791 193.374 245.089 196.366 247.452C199.359 249.815 200.674 254.09 199.541 257.732C203.245 256.162 207.734 255.464 211.141 257.608C214.722 259.862 215.957 264.493 216.204 268.724C216.415 272.359 216.051 276.213 213.988 279.208C211.548 282.756 207.226 284.428 203.136 285.773C196.061 288.092 188.776 290.033 181.33 290.251C173.885 290.469 166.214 288.855 160.112 284.588C154.004 280.32 149.696 273.166 149.914 265.715" fill="#4E5567"/>
<path d="M145.643 272.417C141.938 272.614 138.423 274.962 136.817 278.314C135.212 281.665 135.575 285.874 137.733 288.892C134.653 288.935 131.667 290.767 130.229 293.493C128.791 296.22 128.972 299.717 130.672 302.283C132.11 304.45 134.457 305.86 136.89 306.776C143.638 309.313 151.309 308.455 158.006 305.787C161.856 304.253 165.553 302.079 168.146 298.852C170.74 295.624 172.091 291.211 170.972 287.219C170.187 284.435 168.292 282.072 166.054 280.255C163.81 278.437 161.217 277.107 158.638 275.82C154.192 273.602 149.536 271.407 144.568 271.32" fill="#3F4553"/>
<path d="M167.471 321.251H146.086C139.338 321.251 133.868 315.777 133.868 309.023C133.868 302.269 139.338 296.794 146.086 296.794H163.033C165.488 296.794 167.478 298.786 167.478 301.244V321.251H167.471Z" fill="#8E97FD"/>
<path d="M170.522 373.843H156.292C151.331 373.843 147.306 369.815 147.306 364.85V296.787H161.536C166.497 296.787 170.522 300.815 170.522 305.78V373.843Z" fill="#8E97FD"/>
<path d="M173.035 235.878C174.967 235.42 177.146 235.769 178.861 236.947C179.703 237.536 180.444 238.299 180.916 239.208C181.199 239.637 181.345 240.131 181.526 240.596C181.664 241.076 181.759 241.578 181.839 242.058C181.599 241.614 181.446 241.149 181.199 240.727C180.945 240.313 180.742 239.877 180.437 239.506C179.907 238.721 179.216 238.066 178.446 237.536C177.684 236.998 176.812 236.612 175.904 236.343C174.989 236.096 174.03 235.922 173.035 235.878Z" fill="white"/>
<path d="M205.374 259.818C207.407 259.782 209.514 260.538 211.054 261.999C211.446 262.356 211.758 262.792 212.071 263.214C212.318 263.686 212.608 264.13 212.746 264.638C212.95 265.126 213.015 265.649 213.095 266.158C213.146 266.674 213.124 267.19 213.11 267.692C212.884 266.696 212.659 265.722 212.223 264.849C211.824 263.962 211.257 263.17 210.553 262.516C209.863 261.847 209.049 261.301 208.177 260.858C207.284 260.436 206.354 260.066 205.374 259.818Z" fill="white"/>
<path d="M193.134 249.146C193.584 249.211 194.013 249.371 194.427 249.575C194.841 249.778 195.219 250.047 195.553 250.36C195.887 250.68 196.163 251.073 196.352 251.494C196.548 251.916 196.621 252.388 196.606 252.839C196.461 252.41 196.337 251.989 196.098 251.625C195.865 251.262 195.611 250.92 195.291 250.622C194.674 250.026 193.933 249.553 193.134 249.146Z" fill="white"/>
<path d="M204.189 280.691C205.105 277.361 204.807 273.596 202.875 270.731C200.943 267.867 197.238 266.136 193.897 267.009C194.921 264.602 193.439 261.731 191.274 260.255C189.117 258.779 186.444 258.321 183.887 257.739C176.376 256.031 169.178 252.941 162.764 248.674C159.517 246.514 158.979 247.002 157.447 243.519C156.531 244.864 154.737 247.052 154.686 248.717C151.788 246.071 145.977 245.795 144.001 248.746C142.018 251.698 141.757 255.624 142.926 258.983C144.096 262.341 146.58 265.148 149.536 267.118L149.899 265.708C149.682 273.159 153.989 280.313 160.098 284.581C166.207 288.848 173.877 290.462 181.316 290.244C188.18 290.041 194.906 288.376 201.458 286.296C202.671 284.573 203.637 282.705 204.189 280.691Z" fill="#3F4553"/>
<path d="M163.919 305.78V365.41H152.297V315.115H149.108C145.745 315.115 143.021 312.389 143.021 309.023C143.021 305.657 145.745 302.93 149.108 302.93H161.071C162.648 302.93 163.919 304.202 163.919 305.78Z" stroke="#8C96FF" stroke-miterlimit="10"/>
<path d="M176.093 256.438C175.606 252.628 178.018 249.182 181.475 248.739C184.94 248.295 188.144 251.014 188.638 254.824C189.124 258.634 186.713 262.08 183.255 262.523C179.79 262.967 176.587 260.24 176.093 256.438Z" fill="#8E97FD"/>
<path d="M176.093 256.44C176.58 260.249 179.79 262.976 183.255 262.525C184.693 262.343 185.943 261.631 186.887 260.606C182.587 257.843 181.831 250.987 181.693 248.726C181.621 248.733 181.555 248.733 181.483 248.741C178.018 249.184 175.606 252.63 176.093 256.44Z" fill="#8E97FD"/>
<path d="M166.861 272.178L169.301 283.185L177.858 285.628C177.858 285.628 180.916 282.567 180.916 281.956C180.916 281.345 176.638 269.728 176.638 269.728L166.861 272.178Z" fill="#FDBCA0"/>
<path d="M176.63 269.735L166.853 272.178L167.689 275.936C169.439 276.693 171.415 277.252 173.667 277.529C174.894 277.681 176.158 277.449 177.233 276.823C177.785 276.504 178.301 276.111 178.795 275.697C177.72 272.694 176.63 269.735 176.63 269.735Z" fill="#DF8370"/>
<path d="M153.415 250.164C153.415 250.164 152.195 274.017 173.58 275.238C180.299 272.796 184.577 263.621 183.357 256.278C182.136 248.942 174.19 236.707 162.582 240.378C156.473 242.828 153.415 250.164 153.415 250.164Z" fill="#FDBCA0"/>
<path d="M221.238 277.689L236.775 258.677C237.393 257.921 237.734 256.976 237.734 255.995V250.833C237.734 250.44 237.988 250.084 238.359 249.96C238.954 249.764 239.564 250.208 239.564 250.833V254.453L245.063 244.668L252.392 244.057L242.615 261.178L227.95 286.864L221.238 277.689Z" fill="#FDBCA0"/>
<path d="M289.67 260.56L315.334 269.124L323.229 262.465C326.186 259.971 330.522 259.731 333.595 262.08C335.375 263.439 336.312 265.351 334.27 267.903C329.382 274.017 315.326 280.742 315.326 280.742L286.605 274.628L289.67 260.56Z" fill="#FDBCA0"/>
<path opacity="0.5" d="M286.62 274.628L300.879 277.667C301.794 272.527 301.082 267.336 300.421 264.152L289.678 260.567L286.62 274.628Z" fill="#DF8370"/>
<path d="M210.851 304.595C210.851 304.595 243.022 268.819 257.412 256.605C259.809 254.569 262.918 253.581 266.056 253.835C276.676 254.693 298.838 258.728 298.838 258.728C298.838 258.728 303.116 274.628 295.169 283.803C290.281 283.192 268.286 278.91 268.286 278.91L223.679 327.83L210.851 304.595Z" fill="#739BE0"/>
<path d="M296.39 291.749L317.164 314.984L334.488 317.958C337.706 318.51 339.726 321.913 338.447 324.922C337.619 326.864 335.636 329.481 331.22 328.441C320.832 325.998 311.055 322.938 311.055 322.938L286.612 303.367L296.39 291.749Z" fill="#FDBCA0"/>
<path opacity="0.5" d="M309.188 306.064L296.39 291.749L286.612 303.367L303.697 317.049C306.515 314.134 308.905 310.419 309.188 306.064Z" fill="#DF8370"/>
<path opacity="0.2" d="M257.274 263.679L212.361 307.321L223.686 327.83L268.293 278.91C268.293 278.91 290.288 283.192 295.176 283.803C295.685 283.221 296.135 282.603 296.549 281.971C288.559 275.435 279.022 267.932 271.918 262.69C267.443 259.397 261.254 259.811 257.274 263.679Z" fill="#739BE0"/>
<path d="M193.134 324.159C193.134 324.159 204.132 340.059 220.018 338.227C234.85 336.511 251.274 315.079 262.838 296.816C264.022 294.941 266.673 294.73 268.148 296.38C277.242 306.58 293.339 321.716 293.339 321.716C293.339 321.716 308.615 314.381 308.615 302.756C304.402 297.696 286.823 279.55 276.312 268.768C271.78 264.115 264.443 263.715 259.424 267.838L210.233 308.259L193.134 324.159Z" fill="#97B8FF"/>
<g opacity="0.5">
<path opacity="0.5" d="M220.018 338.227C234.85 336.511 251.274 315.079 262.838 296.816C264.022 294.94 266.673 294.73 268.148 296.38C277.242 306.58 293.339 321.716 293.339 321.716C293.339 321.716 296.898 320 300.581 316.925C292.395 308.768 283.722 301.105 274.613 294.003C271.664 291.705 268.162 289.335 264.494 290.062C261.305 290.702 259.061 293.486 257.107 296.089C252.879 301.716 248.659 307.343 244.431 312.97C239.819 319.114 234.945 325.475 228.037 328.826C222.146 331.676 215.078 331.996 208.955 329.692C204.204 327.903 200.078 324.544 197.282 320.313L193.134 324.166C193.134 324.159 204.132 340.059 220.018 338.227Z" fill="#97B8FF"/>
</g>
<path d="M252.4 321.251H273.784C280.533 321.251 286.002 315.777 286.002 309.023C286.002 302.269 280.533 296.794 273.784 296.794H256.838C254.383 296.794 252.392 298.786 252.392 301.244V321.251H252.4Z" fill="#8E97FD"/>
<path d="M249.342 373.843H263.571C268.533 373.843 272.557 369.815 272.557 364.85V296.787H258.327C253.366 296.787 249.342 300.815 249.342 305.78V373.843Z" fill="#8E97FD"/>
<path d="M255.422 305.78V365.41H267.044V315.115H270.233C273.596 315.115 276.32 312.389 276.32 309.023C276.32 305.657 273.596 302.93 270.233 302.93H258.269C256.693 302.93 255.422 304.202 255.422 305.78Z" stroke="#8C96FF" stroke-miterlimit="10"/>
<path d="M158.914 261.171L148.527 264.232C148.527 264.232 151.585 274.628 166.861 281.353L168.691 280.742C168.691 280.742 177.241 285.533 179.384 277.325C182.841 276.118 187.192 275.115 190.599 274.424C194.122 273.712 197.776 274.272 200.921 275.995L213.139 282.705C214.294 283.337 215.739 283.068 216.589 282.058L224.906 272.178L233.39 278.568L221.63 297.303C220.867 298.525 219.291 298.954 218.013 298.292L206.579 292.36L213.298 302.756C213.298 302.756 212.688 321.716 193.134 324.159C186.415 317.434 177.858 308.87 172.97 305.199C168.081 301.527 152.195 291.131 147.917 286.849C143.638 282.567 132.641 267.278 132.031 259.331C132.031 255.049 156.473 251.996 156.473 251.996L158.914 261.171Z" fill="#FFFFFE"/>
<path d="M155.006 285.031C142.236 276.271 136.825 264.828 134.537 256.954C132.997 257.688 132.031 258.488 132.031 259.339C132.641 267.292 143.638 282.574 147.917 286.856C152.195 291.138 168.081 301.534 172.97 305.206C173.841 305.86 174.836 306.674 175.904 307.605C173.296 302.065 167.558 293.646 155.006 285.031Z" fill="#F2F2F2"/>
<path d="M194.914 284.464C195.422 284.319 195.945 284.239 196.475 284.195C197.006 284.144 197.536 284.152 198.073 284.203C199.134 284.304 200.209 284.573 201.175 285.097C202.148 285.591 203.006 286.347 203.63 287.241C203.979 287.67 204.204 288.172 204.458 288.652C204.698 289.139 204.829 289.67 205.018 290.179L204.967 290.077C205.562 290.884 206.114 291.727 206.688 292.549C207.262 293.377 207.8 294.221 208.337 295.079C207.662 294.33 206.993 293.574 206.361 292.803C205.729 292.025 205.068 291.262 204.458 290.469L204.436 290.448L204.4 290.368C204.204 289.902 204.051 289.415 203.826 288.957C203.579 288.521 203.376 288.056 203.049 287.67C202.78 287.249 202.417 286.907 202.068 286.544C201.676 286.238 201.306 285.904 200.855 285.671C199.991 285.169 199.032 284.806 198.015 284.632C197.006 284.457 195.96 284.377 194.914 284.464Z" fill="#97B8FF"/>
<path d="M170.892 257.994C171.43 258.844 171.895 260.56 173.253 260.291C173.718 260.197 173.936 259.84 174.292 259.564C175.541 258.59 176.195 260.088 175.309 260.909C174.851 261.331 174.212 261.433 173.623 261.498C173.282 261.534 173.275 262.08 173.623 262.043C174.48 261.949 175.381 261.752 175.933 261.025C176.376 260.444 176.464 259.644 175.977 259.063C175.526 258.539 174.858 258.452 174.292 258.83C173.761 259.179 173.464 260.008 172.599 259.637C171.982 259.375 171.691 258.234 171.364 257.718C171.175 257.427 170.703 257.696 170.892 257.994Z" fill="#444359"/>
<path d="M168.008 266.013C170.849 268.397 174.8 267.881 176.899 264.813C177.096 264.522 176.623 264.246 176.427 264.537C174.546 267.292 170.958 267.779 168.393 265.627C168.125 265.402 167.74 265.787 168.008 266.013Z" fill="#444359"/>
<path d="M161.42 256.38C162.081 254.679 163.752 253.741 165.553 254.061C165.895 254.119 166.04 253.595 165.698 253.537C163.592 253.166 161.667 254.242 160.897 256.242C160.766 256.562 161.297 256.7 161.42 256.38Z" fill="#444359"/>
<path d="M163.156 261.214L161.711 260.378L163.374 260.524L163.156 261.214Z" fill="#444359"/>
<path d="M163.505 261.418C164.275 259.339 166.396 258.379 168.488 259.084C168.822 259.193 168.967 258.67 168.633 258.561C166.251 257.761 163.846 258.932 162.982 261.28C162.858 261.6 163.381 261.745 163.505 261.418Z" fill="#444359"/>
<path d="M164.449 259.215L163.803 257.317L165.081 258.859L164.449 259.215Z" fill="#444359"/>
<path d="M167.435 258.626L167.878 257.317L168.161 258.677L167.435 258.626Z" fill="#444359"/>
<path d="M178.432 254.162L179.449 252.832L179.093 254.468L178.432 254.162Z" fill="#444359"/>
<path d="M179.209 254.351C176.907 253.45 174.444 254.461 173.463 256.729C173.325 257.049 173.798 257.325 173.936 257.005C174.829 254.94 176.965 254.053 179.071 254.875C179.391 255.006 179.529 254.475 179.209 254.351Z" fill="#444359"/>
<path d="M176.057 254.315L175.773 252.33L176.747 254.082L176.057 254.315Z" fill="#444359"/>
<path d="M173.856 256.474L173.035 255.355L174.306 255.907L173.856 256.474Z" fill="#444359"/>
<path d="M238.62 260.567L245.848 237.885C246.037 237.296 246.574 236.889 247.199 236.874L260.165 236.532C261.16 236.503 261.886 237.463 261.596 238.415L254.39 261.978C254.194 262.61 253.598 263.032 252.937 263.01L239.95 262.479C238.991 262.421 238.33 261.483 238.62 260.567Z" fill="#3F4553"/>
<path d="M237.4 260.568L244.627 237.885C244.816 237.296 245.354 236.889 245.978 236.874L258.944 236.533C259.94 236.503 260.666 237.463 260.375 238.416L253.17 261.978C252.974 262.61 252.378 263.032 251.717 263.01L238.729 262.48C237.763 262.421 237.109 261.484 237.4 260.568Z" fill="#4E5567"/>
<path d="M258.022 240.226L253.191 256.009L252.501 258.277L252.175 259.346C252.058 259.724 251.768 260.008 251.419 260.124C251.281 260.168 251.143 260.189 250.998 260.182L248.288 260.073L240.458 259.753C239.673 259.717 239.143 258.954 239.376 258.212L243.117 246.463L244.533 242.021L245.245 239.797C245.274 239.702 245.317 239.608 245.376 239.528C245.579 239.201 245.935 238.99 246.334 238.975L246.712 238.968L256.86 238.699C257.666 238.677 258.254 239.455 258.022 240.226Z" fill="#F2EDE4"/>
<g opacity="0.35">
<path opacity="0.35" d="M253.191 256.009L252.501 258.277L245.376 239.528C245.579 239.201 245.935 238.99 246.334 238.975L246.712 238.968L253.191 256.009Z" fill="white"/>
</g>
<g opacity="0.35">
<path opacity="0.35" d="M251.419 260.124C251.281 260.168 251.143 260.189 250.998 260.182L248.288 260.073L243.117 246.463L244.533 242.021L251.419 260.124Z" fill="white"/>
</g>
<path d="M156.248 264.69C158.769 258.961 159.437 252.432 158.137 246.304C159.045 249.219 162.219 250.869 165.248 251.254C168.277 251.64 171.35 251.102 174.4 251.254C177.451 251.407 180.749 252.483 182.289 255.122C182.572 255.602 182.885 256.198 183.437 256.242C184.127 256.3 184.533 255.486 184.679 254.81C185.805 249.742 183.727 244.181 179.768 240.822C175.81 237.463 170.202 236.293 165.139 237.434C160.076 238.575 155.616 241.905 152.754 246.231C150.96 248.943 149.747 252.076 149.565 255.326C149.384 258.568 150.284 261.92 152.311 264.457C152.812 265.082 153.43 265.686 154.214 265.86C154.999 266.035 155.957 265.591 156.081 264.791" fill="#3F4553"/>
<path d="M156.179 271.997C159.937 271.23 162.315 267.33 161.491 263.286C160.667 259.241 156.953 256.585 153.195 257.352C149.438 258.118 147.059 262.019 147.883 266.063C148.707 270.107 152.422 272.764 156.179 271.997Z" fill="#8E97FD"/>
<path d="M151.941 261.672C147.815 249.081 152.979 244.333 153.212 244.028L153.364 244.013H153.401L153.553 244.006C153.379 244.246 151.301 249.953 154.694 260.306L151.941 261.672Z" fill="#8E97FD"/>
<path d="M160.65 268.71C149.972 271.545 148.214 265.824 148.236 261.694C147.728 263.025 147.582 264.537 147.895 266.071C148.723 270.12 152.434 272.774 156.19 272.01C158.129 271.603 159.698 270.367 160.65 268.71Z" fill="#8E97FD"/>
<defs>
<clipPath id="clip0_326_2">
<rect width="423" height="504" fill="white" transform="translate(-3)"/>
</clipPath>
</defs>
</svg>
